<svg xmlns="http://www.w3.org/2000/svg" xmlns:xlink="http://www.w3.org/1999/xlink" viewBox="0 0 200 275"><defs><style>.cls-1{fill:none;}.cls-2{isolation:isolate;}.cls-3{fill:#466996;}.cls-4{opacity:0.3;}.cls-4,.cls-42{mix-blend-mode:multiply;}.cls-5{fill:#b0e1f8;}.cls-6{fill:#c8e9f8;}.cls-7{fill:#fff;}.cls-8{fill:#d84663;}.cls-9{clip-path:url(#clip-path);}.cls-10{fill:#2b1f56;}.cls-11{fill:#00aeb7;}.cls-12{fill:#f8a61a;}.cls-13{fill:#f5b3d0;}.cls-14{fill:#ec7122;}.cls-15{fill:#ffe100;}.cls-16{fill:#e180b3;}.cls-17{fill:#f6c7db;}.cls-18{fill:#e080b2;}.cls-19{fill:#38898b;}.cls-20{fill:#8ed3df;}.cls-21{fill:#b03251;}.cls-22{fill:#ed6084;}.cls-23{fill:#456995;}.cls-24{fill:#ececec;}.cls-25{fill:#3ec2e5;}.cls-26{fill:#9fdae9;}.cls-27{fill:#e6f3fa;}.cls-28{fill:#252727;}.cls-29{fill:#f69b80;}.cls-30{fill:#f17c71;}.cls-31{fill:#f9bb92;}.cls-32{fill:#161818;}.cls-33{fill:#fdeee7;}.cls-34{fill:#ce4b57;}.cls-35{fill:#444242;}.cls-36{fill:#ef5c69;}.cls-37,.cls-46{fill:#456997;}.cls-38{fill:#2b547e;}.cls-39{fill:#6693c7;}.cls-40{fill:#f1745a;}.cls-41{fill:#e66749;}.cls-42{fill:#c0c0bf;}.cls-43{fill:#dc8126;}.cls-44{fill:#585a5a;}.cls-45{fill:#fdc20e;}.cls-46{opacity:0.5;mix-blend-mode:screen;}</style><clipPath id="clip-path"><rect class="cls-1" width="200.01" height="276.57"/></clipPath></defs><title>bd letter</title><g class="cls-2"><g id="OBJECTS"><rect class="cls-3" width="200.01" height="276.57"/><g class="cls-4"><polygon class="cls-3" points="16.81 0 19.86 0 9.51 7.27 0 0.6 0 0 2.2 0 9.51 5.13 16.81 0"/><polygon class="cls-3" points="42.66 0 45.72 0 35.36 7.27 25 0 28.05 0 35.36 5.13 42.66 0"/><polygon class="cls-3" points="68.52 0 71.58 0 61.22 7.27 50.86 0 53.91 0 61.22 5.13 68.52 0"/><polygon class="cls-3" points="94.38 0 97.43 0 87.07 7.27 76.72 0 79.77 0 87.07 5.13 94.38 0"/><polygon class="cls-3" points="120.23 0 123.29 0 112.93 7.27 102.57 0 105.62 0 112.93 5.13 120.23 0"/><polygon class="cls-3" points="146.09 0 149.15 0 138.78 7.27 128.43 0 131.48 0 138.78 5.13 146.09 0"/><polygon class="cls-3" points="171.95 0 175 0 164.65 7.27 154.28 0 157.34 0 164.65 5.13 171.95 0"/><polygon class="cls-3" points="200.01 0 200.01 0.6 190.51 7.27 180.14 0 183.2 0 190.51 5.13 197.81 0 200.01 0"/><polygon class="cls-3" points="200.01 8.97 200.01 11.11 190.51 17.78 177.57 8.71 164.65 17.78 151.72 8.71 138.78 17.78 125.86 8.71 112.93 17.78 100 8.71 87.07 17.78 74.15 8.71 61.22 17.78 48.29 8.71 35.36 17.78 22.43 8.71 9.51 17.78 0 11.11 0 8.97 9.51 15.64 22.43 6.57 35.36 15.64 48.29 6.57 61.22 15.64 74.15 6.57 87.07 15.64 100 6.57 112.93 15.64 125.86 6.57 138.78 15.64 151.72 6.57 164.65 15.64 177.57 6.57 190.51 15.64 200.01 8.97"/><polygon class="cls-3" points="200.01 19.48 200.01 21.62 190.51 28.29 177.57 19.22 164.65 28.29 151.72 19.22 138.78 28.29 125.86 19.22 112.93 28.29 100 19.22 87.07 28.29 74.15 19.22 61.22 28.29 48.29 19.22 35.36 28.29 22.43 19.22 9.51 28.29 0 21.62 0 19.47 9.51 26.14 22.43 17.08 35.36 26.14 48.29 17.08 61.22 26.14 74.15 17.08 87.07 26.14 100 17.08 112.93 26.14 125.86 17.08 138.78 26.14 151.72 17.08 164.65 26.14 177.57 17.08 190.51 26.14 200.01 19.48"/><polygon class="cls-3" points="200.01 29.99 200.01 32.13 190.51 38.8 177.57 29.73 164.65 38.8 151.72 29.73 138.78 38.8 125.86 29.73 112.93 38.8 100 29.73 87.07 38.8 74.15 29.73 61.22 38.8 48.29 29.73 35.36 38.8 22.43 29.73 9.51 38.8 0 32.13 0 29.99 9.51 36.66 22.43 27.58 35.36 36.66 48.29 27.58 61.22 36.66 74.15 27.58 87.07 36.66 100 27.58 112.93 36.66 125.86 27.58 138.78 36.66 151.72 27.58 164.65 36.66 177.57 27.58 190.51 36.66 200.01 29.99"/><polygon class="cls-3" points="200.01 40.5 200.01 42.64 190.51 49.31 177.57 40.23 164.65 49.31 151.72 40.23 138.78 49.31 125.86 40.23 112.93 49.31 100 40.23 87.07 49.31 74.15 40.23 61.22 49.31 48.29 40.23 35.36 49.31 22.43 40.23 9.51 49.31 0 42.64 0 40.49 9.51 47.16 22.43 38.09 35.36 47.16 48.29 38.09 61.22 47.16 74.15 38.09 87.07 47.16 100 38.09 112.93 47.16 125.86 38.09 138.78 47.16 151.72 38.09 164.65 47.16 177.57 38.09 190.51 47.16 200.01 40.5"/><polygon class="cls-3" points="200.01 51.01 200.01 53.15 190.51 59.82 177.57 50.74 164.65 59.82 151.72 50.74 138.78 59.82 125.86 50.74 112.93 59.82 100 50.74 87.07 59.82 74.15 50.74 61.22 59.82 48.29 50.74 35.36 59.82 22.43 50.74 9.51 59.82 0 53.15 0 51 9.51 57.67 22.43 48.6 35.36 57.67 48.29 48.6 61.22 57.67 74.15 48.6 87.07 57.67 100 48.6 112.93 57.67 125.86 48.6 138.78 57.67 151.72 48.6 164.65 57.67 177.57 48.6 190.51 57.67 200.01 51.01"/><polygon class="cls-3" points="200.01 61.52 200.01 63.66 190.51 70.33 177.57 61.26 164.65 70.33 151.72 61.26 138.78 70.33 125.86 61.26 112.93 70.33 100 61.26 87.07 70.33 74.15 61.26 61.22 70.33 48.29 61.26 35.36 70.33 22.43 61.26 9.51 70.33 0 63.66 0 61.52 9.51 68.19 22.43 59.11 35.36 68.19 48.29 59.11 61.22 68.19 74.15 59.11 87.07 68.19 100 59.11 112.93 68.19 125.86 59.11 138.78 68.19 151.72 59.11 164.65 68.19 177.57 59.11 190.51 68.19 200.01 61.52"/><polygon class="cls-3" points="200.01 72.03 200.01 74.17 190.51 80.84 177.57 71.76 164.65 80.84 151.72 71.76 138.78 80.84 125.86 71.76 112.93 80.84 100 71.76 87.07 80.84 74.15 71.76 61.22 80.84 48.29 71.76 35.36 80.84 22.43 71.76 9.51 80.84 0 74.17 0 72.02 9.51 78.69 22.43 69.62 35.36 78.69 48.29 69.62 61.22 78.69 74.15 69.62 87.07 78.69 100 69.62 112.93 78.69 125.86 69.62 138.78 78.69 151.72 69.62 164.65 78.69 177.57 69.62 190.51 78.69 200.01 72.03"/><polygon class="cls-3" points="200.01 82.54 200.01 84.68 190.51 91.34 177.57 82.27 164.65 91.34 151.72 82.27 138.78 91.34 125.86 82.27 112.93 91.34 100 82.27 87.07 91.34 74.15 82.27 61.22 91.34 48.29 82.27 35.36 91.34 22.43 82.27 9.51 91.34 0 84.68 0 82.53 9.51 89.2 22.43 80.13 35.36 89.2 48.29 80.13 61.22 89.2 74.15 80.13 87.07 89.2 100 80.13 112.93 89.2 125.86 80.13 138.78 89.2 151.72 80.13 164.65 89.2 177.57 80.13 190.51 89.2 200.01 82.54"/><polygon class="cls-3" points="200.01 93.04 200.01 95.19 190.51 101.85 177.57 92.78 164.65 101.85 151.72 92.78 138.78 101.85 125.86 92.78 112.93 101.85 100 92.78 87.07 101.85 74.15 92.78 61.22 101.85 48.29 92.78 35.36 101.85 22.43 92.78 9.51 101.85 0 95.19 0 93.04 9.51 99.71 22.43 90.64 35.36 99.71 48.29 90.64 61.22 99.71 74.15 90.64 87.07 99.71 100 90.64 112.93 99.71 125.86 90.64 138.78 99.71 151.72 90.64 164.65 99.71 177.57 90.64 190.51 99.71 200.01 93.04"/><polygon class="cls-3" points="200.01 103.56 200.01 105.69 190.51 112.36 177.57 103.29 164.65 112.36 151.72 103.29 138.78 112.36 125.86 103.29 112.93 112.36 100 103.29 87.07 112.36 74.15 103.29 61.22 112.36 48.29 103.29 35.36 112.36 22.43 103.29 9.51 112.36 0 105.69 0 103.55 9.51 110.22 22.43 101.15 35.36 110.22 48.29 101.15 61.22 110.22 74.15 101.15 87.07 110.22 100 101.15 112.93 110.22 125.86 101.15 138.78 110.22 151.72 101.15 164.65 110.22 177.57 101.15 190.51 110.22 200.01 103.56"/><polygon class="cls-3" points="200.01 114.06 200.01 116.21 190.51 122.87 177.57 113.8 164.65 122.87 151.72 113.8 138.78 122.87 125.86 113.8 112.93 122.87 100 113.8 87.07 122.87 74.15 113.8 61.22 122.87 48.29 113.8 35.36 122.87 22.43 113.8 9.51 122.87 0 116.21 0 114.06 9.51 120.73 22.43 111.66 35.36 120.73 48.29 111.66 61.22 120.73 74.15 111.66 87.07 120.73 100 111.66 112.93 120.73 125.86 111.66 138.78 120.73 151.72 111.66 164.65 120.73 177.57 111.66 190.51 120.73 200.01 114.06"/><polygon class="cls-3" points="200.01 124.57 200.01 126.72 190.51 133.38 177.57 124.31 164.65 133.38 151.72 124.31 138.78 133.38 125.86 124.31 112.93 133.38 100 124.31 87.07 133.38 74.15 124.31 61.22 133.38 48.29 124.31 35.36 133.38 22.43 124.31 9.51 133.38 0 126.72 0 124.57 9.51 131.24 22.43 122.17 35.36 131.24 48.29 122.17 61.22 131.24 74.15 122.17 87.07 131.24 100 122.17 112.93 131.24 125.86 122.17 138.78 131.24 151.72 122.17 164.65 131.24 177.57 122.17 190.51 131.24 200.01 124.57"/><polygon class="cls-3" points="200.01 135.09 200.01 137.22 190.51 143.89 177.57 134.82 164.65 143.89 151.72 134.82 138.78 143.89 125.86 134.82 112.93 143.89 100 134.82 87.07 143.89 74.15 134.82 61.22 143.89 48.29 134.82 35.36 143.89 22.43 134.82 9.51 143.89 0 137.22 0 135.08 9.51 141.75 22.43 132.68 35.36 141.75 48.29 132.68 61.22 141.75 74.15 132.68 87.07 141.75 100 132.68 112.93 141.75 125.86 132.68 138.78 141.75 151.72 132.68 164.65 141.75 177.57 132.68 190.51 141.75 200.01 135.09"/><polygon class="cls-3" points="200.01 145.59 200.01 147.74 190.51 154.4 177.57 145.33 164.65 154.4 151.72 145.33 138.78 154.4 125.86 145.33 112.93 154.4 100 145.33 87.07 154.4 74.15 145.33 61.22 154.4 48.29 145.33 35.36 154.4 22.43 145.33 9.51 154.4 0 147.74 0 145.59 9.51 152.26 22.43 143.19 35.36 152.26 48.29 143.19 61.22 152.26 74.15 143.19 87.07 152.26 100 143.19 112.93 152.26 125.86 143.19 138.78 152.26 151.72 143.19 164.65 152.26 177.57 143.19 190.51 152.26 200.01 145.59"/><polygon class="cls-3" points="200.01 156.1 200.01 158.24 190.51 164.91 177.57 155.84 164.65 164.91 151.72 155.84 138.78 164.91 125.86 155.84 112.93 164.91 100 155.84 87.07 164.91 74.15 155.84 61.22 164.91 48.29 155.84 35.36 164.91 22.43 155.84 9.51 164.91 0 158.24 0 156.1 9.51 162.77 22.43 153.69 35.36 162.77 48.29 153.69 61.22 162.77 74.15 153.69 87.07 162.77 100 153.69 112.93 162.77 125.86 153.69 138.78 162.77 151.72 153.69 164.65 162.77 177.57 153.69 190.51 162.77 200.01 156.1"/><polygon class="cls-3" points="200.01 166.61 200.01 168.75 190.51 175.42 177.57 166.35 164.65 175.42 151.72 166.35 138.78 175.42 125.86 166.35 112.93 175.42 100 166.35 87.07 175.42 74.15 166.35 61.22 175.42 48.29 166.35 35.36 175.42 22.43 166.35 9.51 175.42 0 168.75 0 166.6 9.51 173.28 22.43 164.21 35.36 173.28 48.29 164.21 61.22 173.28 74.15 164.21 87.07 173.28 100 164.21 112.93 173.28 125.86 164.21 138.78 173.28 151.72 164.21 164.65 173.28 177.57 164.21 190.51 173.28 200.01 166.61"/><polygon class="cls-3" points="200.01 177.12 200.01 179.26 190.51 185.93 177.57 176.86 164.65 185.93 151.72 176.86 138.78 185.93 125.86 176.86 112.93 185.93 100 176.86 87.07 185.93 74.15 176.86 61.22 185.93 48.29 176.86 35.36 185.93 22.43 176.86 9.51 185.93 0 179.26 0 177.12 9.51 183.79 22.43 174.71 35.36 183.79 48.29 174.71 61.22 183.79 74.15 174.71 87.07 183.79 100 174.71 112.93 183.79 125.86 174.71 138.78 183.79 151.72 174.71 164.65 183.79 177.57 174.71 190.51 183.79 200.01 177.12"/><polygon class="cls-3" points="200.01 187.63 200.01 189.77 190.51 196.44 177.57 187.37 164.65 196.44 151.72 187.37 138.78 196.44 125.86 187.37 112.93 196.44 100 187.37 87.07 196.44 74.15 187.37 61.22 196.44 48.29 187.37 35.36 196.44 22.43 187.37 9.51 196.44 0 189.77 0 187.63 9.51 194.3 22.43 185.22 35.36 194.3 48.29 185.22 61.22 194.3 74.15 185.22 87.07 194.3 100 185.22 112.93 194.3 125.86 185.22 138.78 194.3 151.72 185.22 164.65 194.3 177.57 185.22 190.51 194.3 200.01 187.63"/><polygon class="cls-3" points="200.01 198.14 200.01 200.28 190.51 206.95 177.57 197.88 164.65 206.95 151.72 197.88 138.78 206.95 125.86 197.88 112.93 206.95 100 197.88 87.07 206.95 74.15 197.88 61.22 206.95 48.29 197.88 35.36 206.95 22.43 197.88 9.51 206.95 0 200.28 0 198.13 9.51 204.8 22.43 195.74 35.36 204.8 48.29 195.74 61.22 204.8 74.15 195.74 87.07 204.8 100 195.74 112.93 204.8 125.86 195.74 138.78 204.8 151.72 195.74 164.65 204.8 177.57 195.74 190.51 204.8 200.01 198.14"/><polygon class="cls-3" points="200.01 208.65 200.01 210.79 190.51 217.46 177.57 208.39 164.65 217.46 151.72 208.39 138.78 217.46 125.86 208.39 112.93 217.46 100 208.39 87.07 217.46 74.15 208.39 61.22 217.46 48.29 208.39 35.36 217.46 22.43 208.39 9.51 217.46 0 210.79 0 208.65 9.51 215.32 22.43 206.24 35.36 215.32 48.29 206.24 61.22 215.32 74.15 206.24 87.07 215.32 100 206.24 112.93 215.32 125.86 206.24 138.78 215.32 151.72 206.24 164.65 215.32 177.57 206.24 190.51 215.32 200.01 208.65"/><polygon class="cls-3" points="200.01 219.16 200.01 221.3 190.51 227.97 177.57 218.89 164.65 227.97 151.72 218.89 138.78 227.97 125.86 218.89 112.93 227.97 100 218.89 87.07 227.97 74.15 218.89 61.22 227.97 48.29 218.89 35.36 227.97 22.43 218.89 9.51 227.97 0 221.3 0 219.15 9.51 225.82 22.43 216.75 35.36 225.82 48.29 216.75 61.22 225.82 74.15 216.75 87.07 225.82 100 216.75 112.93 225.82 125.86 216.75 138.78 225.82 151.72 216.75 164.65 225.82 177.57 216.75 190.51 225.82 200.01 219.16"/><polygon class="cls-3" points="200.01 229.67 200.01 231.81 190.51 238.48 177.57 229.41 164.65 238.48 151.72 229.41 138.78 238.48 125.86 229.41 112.93 238.48 100 229.41 87.07 238.48 74.15 229.41 61.22 238.48 48.29 229.41 35.36 238.48 22.43 229.41 9.51 238.48 0 231.81 0 229.66 9.51 236.33 22.43 227.26 35.36 236.33 48.29 227.26 61.22 236.33 74.15 227.26 87.07 236.33 100 227.26 112.93 236.33 125.86 227.26 138.78 236.33 151.72 227.26 164.65 236.33 177.57 227.26 190.51 236.33 200.01 229.67"/><polygon class="cls-3" points="200.01 240.18 200.01 242.32 190.51 248.99 177.57 239.92 164.65 248.99 151.72 239.92 138.78 248.99 125.86 239.92 112.93 248.99 100 239.92 87.07 248.99 74.15 239.92 61.22 248.99 48.29 239.92 35.36 248.99 22.43 239.92 9.51 248.99 0 242.32 0 240.18 9.51 246.84 22.43 237.77 35.36 246.84 48.29 237.77 61.22 246.84 74.15 237.77 87.07 246.84 100 237.77 112.93 246.84 125.86 237.77 138.78 246.84 151.72 237.77 164.65 246.84 177.57 237.77 190.51 246.84 200.01 240.18"/><polygon class="cls-3" points="200.01 250.69 200.01 252.83 190.51 259.5 177.57 250.42 164.65 259.5 151.72 250.42 138.78 259.5 125.86 250.42 112.93 259.5 100 250.42 87.07 259.5 74.15 250.42 61.22 259.5 48.29 250.42 35.36 259.5 22.43 250.42 9.51 259.5 0 252.83 0 250.68 9.51 257.35 22.43 248.28 35.36 257.35 48.29 248.28 61.22 257.35 74.15 248.28 87.07 257.35 100 248.28 112.93 257.35 125.86 248.28 138.78 257.35 151.72 248.28 164.65 257.35 177.57 248.28 190.51 257.35 200.01 250.69"/><polygon class="cls-3" points="200.01 261.2 200.01 263.34 190.51 270 177.57 260.93 164.65 270 151.72 260.93 138.78 270 125.86 260.93 112.93 270 100 260.93 87.07 270 74.15 260.93 61.22 270 48.29 260.93 35.36 270 22.43 260.93 9.51 270 0 263.34 0 261.19 9.51 267.86 22.43 258.79 35.36 267.86 48.29 258.79 61.22 267.86 74.15 258.79 87.07 267.86 100 258.79 112.93 267.86 125.86 258.79 138.78 267.86 151.72 258.79 164.65 267.86 177.57 258.79 190.51 267.86 200.01 261.2"/><polygon class="cls-3" points="6.93 276.57 3.88 276.57 0 273.85 0 271.7 6.93 276.57"/><polygon class="cls-3" points="22.43 269.3 32.79 276.57 29.74 276.57 22.43 271.44 15.13 276.57 12.07 276.57 22.43 269.3"/><polygon class="cls-3" points="48.29 269.3 58.65 276.57 55.59 276.57 48.29 271.44 40.98 276.57 37.93 276.57 48.29 269.3"/><polygon class="cls-3" points="74.15 269.3 84.5 276.57 81.45 276.57 74.15 271.44 66.84 276.57 63.79 276.57 74.15 269.3"/><polygon class="cls-3" points="100 269.3 110.36 276.57 107.31 276.57 100 271.44 92.69 276.57 89.64 276.57 100 269.3"/><polygon class="cls-3" points="125.86 269.3 136.21 276.57 133.16 276.57 125.86 271.44 118.55 276.57 115.5 276.57 125.86 269.3"/><polygon class="cls-3" points="151.72 269.3 162.08 276.57 159.02 276.57 151.72 271.44 144.41 276.57 141.35 276.57 151.72 269.3"/><polygon class="cls-3" points="177.57 269.3 187.94 276.57 184.88 276.57 177.57 271.44 170.27 276.57 167.22 276.57 177.57 269.3"/><polygon class="cls-3" points="200.01 271.7 200.01 273.85 196.13 276.57 193.08 276.57 200.01 271.7"/></g><polygon class="cls-5" points="25.16 26.35 35.62 247.16 167.24 236.72 175.97 31.14 25.16 26.35"/><circle class="cls-6" cx="155.89" cy="78.46" r="10.14" transform="translate(-9.82 133.21) rotate(-45)"/><circle class="cls-6" cx="43.1" cy="108.14" r="7.32"/><circle class="cls-6" cx="144.46" cy="177.86" r="10.7"/><circle class="cls-6" cx="53.49" cy="190.13" r="6.15" transform="translate(-143.84 198.51) rotate(-76.72)"/><circle class="cls-6" cx="149.89" cy="129.99" r="6.15" transform="translate(-47.06 153.92) rotate(-47.86)"/><polygon class="cls-7" points="38.98 43.22 37.31 44.91 40.47 44.53 41.3 47.2 41.65 44.05 44.65 43.34 42.79 42.06 43.51 40.2 40.98 41.36 38.49 40.2 38.98 43.22"/><polygon class="cls-7" points="153.58 41.76 151.65 43.9 155.05 43.41 155.32 45.56 156.27 43.96 158.86 45.14 157 42.75 158 39.53 155.27 41.17 152.52 39.98 153.58 41.76"/><path class="cls-5" d="M19.86,21.13l11,231.46L172.09,241.4l9.13-215.14ZM168.5,237.94l-.58.05L34.37,248.57l0-.67L23.78,25l153.56,4.87Z"/><path class="cls-8" d="M152,70a17,17,0,0,1,3.87,7.91l5.44-4.2a16,16,0,0,0-7.07-5.84c-1.42-.57-3.13-.89-4.41,0a4.24,4.24,0,0,0-1.58,3.28,7.87,7.87,0,0,0-1.08-.56,4.33,4.33,0,0,0-1.57-.4,2.28,2.28,0,0,0-1.52.49,3.22,3.22,0,0,0-.83,2.54l0,.64c-.17,0-.34-.09-.51-.12a3.66,3.66,0,0,0-2.69.51,4.54,4.54,0,0,0-1.57,3.25,12.14,12.14,0,0,0,.42,4.87l2.21-1.81a8.27,8.27,0,0,1-.38-4.06,2.53,2.53,0,0,1,.71-1.45,2.13,2.13,0,0,1,1.88-.43c0,.17,0,.34.06.51a6.88,6.88,0,0,0,1.6,3.78,2,2,0,0,0,.81.53,1,1,0,0,0,.91-.18A1.32,1.32,0,0,0,147,78a5.27,5.27,0,0,0-2.58-3.73,9.72,9.72,0,0,1,0-1.79,1.51,1.51,0,0,1,.59-1.19,1.55,1.55,0,0,1,1.46.25,16.06,16.06,0,0,1,1.76,1.2,16.32,16.32,0,0,0,.54,3.26,10,10,0,0,0,1.59,3.64,1.91,1.91,0,0,0,1.51.62,1.66,1.66,0,0,0,1.35-1A3,3,0,0,0,153,77a13.64,13.64,0,0,0-3.39-4.92,6.84,6.84,0,0,1,0-1,3.06,3.06,0,0,1,.22-1.12,1.2,1.2,0,0,1,.86-.69A1.71,1.71,0,0,1,152,70Zm-6,6.45a3.25,3.25,0,0,1,.46,1.34.53.53,0,0,1-.14.53.38.38,0,0,1-.4,0,.89.89,0,0,1-.3-.28,6,6,0,0,1-1.09-2.86s0-.09,0-.13A4.36,4.36,0,0,1,146,76.43Zm6.26,1.31c0,.39-.2.82-.65.7s-.62-.92-.75-1.32c-.18-.56-.36-1.16-.52-1.7-.1-.33-.2-.67-.29-1A14.73,14.73,0,0,1,151.92,77,2,2,0,0,1,152.21,77.74Z"/><path class="cls-8" d="M40.57,93.22A11.31,11.31,0,0,1,37,88.62l-3,3.43a10.5,10.5,0,0,0,5.33,2.83,3.16,3.16,0,0,0,2.86-.55A2.83,2.83,0,0,0,42.85,92a6.82,6.82,0,0,0,.77.23,2.76,2.76,0,0,0,1.07,0,1.49,1.49,0,0,0,.92-.51A2.12,2.12,0,0,0,45.8,90c0-.14-.06-.28-.1-.41h.35a2.39,2.39,0,0,0,1.67-.69,3,3,0,0,0,.58-2.3,7.86,7.86,0,0,0-.9-3.1L46.2,85A5.56,5.56,0,0,1,47,87.56a1.75,1.75,0,0,1-.27,1,1.4,1.4,0,0,1-1.16.52c0-.1-.07-.21-.11-.32a4.54,4.54,0,0,0-1.53-2.23,1.2,1.2,0,0,0-.59-.23.63.63,0,0,0-.57.23.87.87,0,0,0,0,.8,3.44,3.44,0,0,0,2.16,2.07,5.77,5.77,0,0,1,.21,1.16,1,1,0,0,1-.22.85,1,1,0,0,1-1,0,9.93,9.93,0,0,1-1.3-.55,10.64,10.64,0,0,0-.78-2,6.5,6.5,0,0,0-1.51-2.14,1.25,1.25,0,0,0-1.06-.2,1.09,1.09,0,0,0-.74.8A2,2,0,0,0,39,88.8a9.16,9.16,0,0,0,2.84,2.74,4.94,4.94,0,0,1,.15.64,1.94,1.94,0,0,1,0,.76.79.79,0,0,1-.46.56A1.16,1.16,0,0,1,40.57,93.22Zm3-5a2.09,2.09,0,0,1-.47-.8.33.33,0,0,1,0-.36.27.27,0,0,1,.26-.06.83.83,0,0,1,.23.15,3.94,3.94,0,0,1,1.08,1.7l0,.08A2.9,2.9,0,0,1,43.61,88.25Zm-4.22,0c-.07-.25,0-.55.33-.53s.53.51.66.75.39.7.56,1,.22.4.32.61a9.67,9.67,0,0,1-1.58-1.42A1.3,1.3,0,0,1,39.39,88.23Z"/><path class="cls-8" d="M93,261.46a12.88,12.88,0,0,1,2.11,6.36l4.53-2.61a12.16,12.16,0,0,0-4.72-5.12,3.69,3.69,0,0,0-3.33-.49A3.23,3.23,0,0,0,90,261.91a6.86,6.86,0,0,0-.76-.53,3.22,3.22,0,0,0-1.14-.46,1.67,1.67,0,0,0-1.2.21A2.42,2.42,0,0,0,86,263c0,.16,0,.33-.05.49l-.37-.14a2.8,2.8,0,0,0-2.09.1A3.48,3.48,0,0,0,82,265.7a9.16,9.16,0,0,0-.19,3.72l1.86-1.13a6.29,6.29,0,0,1,.13-3.11,2,2,0,0,1,.68-1A1.65,1.65,0,0,1,86,264c0,.13,0,.26,0,.39a5.16,5.16,0,0,0,.82,3,1.51,1.51,0,0,0,.55.49.74.74,0,0,0,.71,0,1,1,0,0,0,.32-.87,4,4,0,0,0-1.57-3.08,7.62,7.62,0,0,1,.21-1.34,1.13,1.13,0,0,1,.57-.84,1.15,1.15,0,0,1,1.07.33,11.44,11.44,0,0,1,1.21,1.1,11.72,11.72,0,0,0,.08,2.51,7.28,7.28,0,0,0,.82,2.9,1.47,1.47,0,0,0,1.08.63,1.24,1.24,0,0,0,1.11-.59,2.3,2.3,0,0,0,0-1.77,10.54,10.54,0,0,0-2-4.06A4.78,4.78,0,0,1,91,262a2.1,2.1,0,0,1,.28-.82.89.89,0,0,1,.71-.43A1.28,1.28,0,0,1,93,261.46Zm-5.2,4.25a2.38,2.38,0,0,1,.21,1.05c0,.15,0,.33-.16.39a.27.27,0,0,1-.3,0,.66.66,0,0,1-.2-.24,4.55,4.55,0,0,1-.53-2.27v-.1A3.34,3.34,0,0,1,87.76,265.71Zm4.59,1.63c0,.3-.24.6-.57.46s-.37-.76-.43-1.07-.15-.91-.21-1.33l-.12-.8a11.55,11.55,0,0,1,1.19,2.15A1.54,1.54,0,0,1,92.35,267.34Z"/><path class="cls-8" d="M22.6,58.84a.86.86,0,0,1-.76.31,2.16,2.16,0,0,1-.81-.24,6,6,0,0,1-.65-.37,10.23,10.23,0,0,0-2-4,2.23,2.23,0,0,0-1.42-1,1.2,1.2,0,0,0-1.11.54,1.43,1.43,0,0,0-.13,1.21,7.47,7.47,0,0,0,1.83,2.32,11.87,11.87,0,0,0,1.94,1.51,11.92,11.92,0,0,1,.17,1.58c0,.38,0,.84-.35,1a1.12,1.12,0,0,1-1,0,7.32,7.32,0,0,1-1.18-.61,3.94,3.94,0,0,0-1.54-3,1,1,0,0,0-.86-.25.75.75,0,0,0-.45.54,1.43,1.43,0,0,0,.07.71,5.08,5.08,0,0,0,1.91,2.39l.31.22a1.57,1.57,0,0,1-.94,1.08,2.05,2.05,0,0,1-1.2,0,6.17,6.17,0,0,1-2.53-1.69l-2,.82a8.92,8.92,0,0,0,3.05,2,3.35,3.35,0,0,0,2.68.12,2.68,2.68,0,0,0,1.29-1.58c0-.13.07-.25.1-.38.13.08.27.17.41.24a2.4,2.4,0,0,0,2,.36,1.66,1.66,0,0,0,.85-.82,3.42,3.42,0,0,0,.3-1.18,6.76,6.76,0,0,0,0-.9,3.16,3.16,0,0,0,2.71.12A3.62,3.62,0,0,0,24.8,57a11.89,11.89,0,0,0-1.34-6.69l-4.67,2.08a12.61,12.61,0,0,1,3.82,5.33A1.3,1.3,0,0,1,22.6,58.84Zm-6,2-.08-.05a4.44,4.44,0,0,1-1.49-1.73.74.74,0,0,1-.08-.3.3.3,0,0,1,.14-.26.4.4,0,0,1,.4.1,2.52,2.52,0,0,1,.72.77A3.19,3.19,0,0,1,16.65,60.84ZM18,55.26a10.75,10.75,0,0,1,1,2.17l-.56-.55c-.3-.29-.63-.62-.93-.93s-.69-.6-.6-1,.44-.35.69-.18A1.52,1.52,0,0,1,18,55.26Z"/><polygon class="cls-7" points="186.41 74.87 183.18 77.66 187.03 76.87 187.94 80.6 189.16 76.87 193.69 75.31 190.26 73.44 191 69.86 187.94 72.41 185.19 71.06 186.41 74.87"/><polygon class="cls-7" points="102.45 247.19 99.4 250.09 104.41 249.74 104.57 252.91 106.14 250.68 109.78 252.67 107.32 248.98 109.13 244.41 104.97 246.5 101.09 244.46 102.45 247.19"/><g class="cls-9"><path class="cls-10" d="M100.08-24.67A160.36,160.36,0,0,1-33.22,33.89l.09-1.61a158.77,158.77,0,0,0,132-58Z"/><path class="cls-11" d="M8,43.39q-3.6-1.7-7.07-3.52-2.78,2.76-5.75,5.45-.76-6.89-1.54-13.76c4-.44,7.9-1,11.79-1.77Q6.71,36.59,8,43.39Z"/><path class="cls-12" d="M25.76,39.05q-3.77-1.3-7.38-2.76c-1.63,2-3.33,4-5.1,6q-1.5-6.77-3-13.52,5.79-1.29,11.47-3Q23.76,32.42,25.76,39.05Z"/><path class="cls-13" d="M42.91,32.87c-2.58-.6-5.12-1.25-7.62-2q-2.1,3.29-4.41,6.52-2.2-6.57-4.4-13.13,5.61-1.87,11.06-4.18Z"/><path class="cls-8" d="M59.31,24.93c-2.62-.33-5.22-.71-7.78-1.16-1.17,2.32-2.4,4.64-3.7,6.94q-2.88-6.29-5.77-12.58,5.38-2.46,10.57-5.32Q56,18.87,59.31,24.93Z"/><path class="cls-11" d="M74.82,15.27q-4-.06-7.88-.31c-.92,2.43-1.9,4.87-3,7.3L56.92,10.35c3.4-2,6.73-4.16,10-6.42Z"/><path class="cls-12" d="M89.29,4q-4,.38-7.9.54-1,3.8-2.19,7.59L70.92,1q4.77-3.55,9.28-7.49Z"/><path class="cls-13" d="M102.57-8.9c-2.62.55-5.24,1-7.83,1.42-.41,2.6-.87,5.21-1.41,7.82Q88.62-4.73,83.92-9.81q4.39-4.06,8.5-8.5Z"/><path class="cls-12" d="M11.72,186.29c-4.93,1.89-7.14-.73-7.14-.73l3.82-4.83Z"/><path class="cls-14" d="M11.72,186.29c-4.93,1.89-7.14-.73-7.14-.73A6.59,6.59,0,0,1,11.72,186.29Z"/><path class="cls-12" d="M28.46,170.14A48.56,48.56,0,0,1,7.93,182.43,34.79,34.79,0,0,1-9,157.31a35.69,35.69,0,0,1,5.49-24.66c5.56-8.19,15.1-13.4,24.11-12.51a21.31,21.31,0,0,1,16,9.81A24.75,24.75,0,0,1,39,134.87,28.48,28.48,0,0,1,40.15,150C38.64,157.77,34.06,164.74,28.46,170.14Z"/><path class="cls-15" d="M24,123.82c.71-.13,1.42-.24,2.13-.32a9.22,9.22,0,0,0-4.26-1.4,28.12,28.12,0,0,0-5.86.56,32.84,32.84,0,0,1,2.77,2.51A40.92,40.92,0,0,1,24,123.82Z"/><path class="cls-15" d="M25.05,124.57a37.4,37.4,0,0,0-5.59,1.33,36.9,36.9,0,0,1,2.6,3.11,40.74,40.74,0,0,1,10.11-.49,26,26,0,0,0-4.78-4.21C26.61,124.37,25.83,124.45,25.05,124.57Z"/><path class="cls-15" d="M-4.44,143.08a25.55,25.55,0,0,1,4.26-5.86,41,41,0,0,1,10.32-8.31,50.46,50.46,0,0,1,7.65-3.41,33.18,33.18,0,0,0-3-2.59,29.21,29.21,0,0,0-13.23,7.16,29.34,29.34,0,0,0-9,19.12C-6.19,147.26-5.45,145.11-4.44,143.08Z"/><path class="cls-15" d="M10.6,129.71A40.35,40.35,0,0,0,0,138.38a25,25,0,0,0-4.44,6.87l0,.09a43.41,43.41,0,0,1,13.88-12,40.88,40.88,0,0,1,11.63-4.18,34.65,34.65,0,0,0-2.56-3A49,49,0,0,0,10.6,129.71Z"/><path class="cls-14" d="M5.17,199.37c-2-3.3-4.61-7-4.06-11s4.63-5.91,8.29-5.7a.34.34,0,0,0,.16-.66C5.4,180,.49,183-.51,187.35c-1.4,6.08,3.63,11.76,6.36,16.69,6.13,11.07,11,27.39-.22,37.15-5.29,4.58-12.7,5.9-19.5,5.85a.37.37,0,0,0-.08.74c10.59,1.81,22.14-3,26.17-13.43C16.9,222.28,11.37,209.73,5.17,199.37Z"/><path class="cls-13" d="M192.26,189.77c-3.74,3.72-6.82,2.22-6.82,2.22l1.52-6Z"/><path class="cls-16" d="M192.26,189.77c-3.74,3.72-6.82,2.22-6.82,2.22A6.56,6.56,0,0,1,192.26,189.77Z"/><path class="cls-13" d="M201,168.21a48.33,48.33,0,0,1-13.77,19.56,35.46,35.46,0,0,1-23.56-13.13,34.31,34.31,0,0,1-2.08-3,35.67,35.67,0,0,1-5-24.77c1.76-9.74,8.37-18.37,17-21.21a21.33,21.33,0,0,1,18.56,2.49,25.13,25.13,0,0,1,4.21,3.52,28.58,28.58,0,0,1,7.2,13.39C205.29,152.77,203.93,161,201,168.21Z"/><path class="cls-17" d="M178.12,127.69c.59-.41,1.2-.79,1.82-1.15a9.3,9.3,0,0,0-4.47.44,28.66,28.66,0,0,0-5.12,2.89,32.1,32.1,0,0,1,3.55,1.18A40.86,40.86,0,0,1,178.12,127.69Z"/><path class="cls-17" d="M179.4,128a37.56,37.56,0,0,0-4.57,3.48,38.26,38.26,0,0,1,3.64,1.78,41.16,41.16,0,0,1,9-4.54,26.45,26.45,0,0,0-6.07-1.92C180.74,127.13,180.06,127.52,179.4,128Z"/><path class="cls-17" d="M160,156.82a25.46,25.46,0,0,1,1.52-7.08A40.89,40.89,0,0,1,167.54,138a50.83,50.83,0,0,1,5.6-6.22,30.82,30.82,0,0,0-3.76-1.16,28.9,28.9,0,0,0-9.61,33C160.05,161.36,159.86,159.1,160,156.82Z"/><path class="cls-17" d="M168.28,138.51a40.46,40.46,0,0,0-6.16,12.21,25.52,25.52,0,0,0-1.27,8.08v.1a43.57,43.57,0,0,1,7.84-16.56,40.94,40.94,0,0,1,8.94-8.54,37.13,37.13,0,0,0-3.55-1.69A49.48,49.48,0,0,0,168.28,138.51Z"/><path class="cls-18" d="M214.44,234.38c-6.07-.88-13.3-2.49-16.84-8-.17-.27-.34-.57-.5-.88a8.15,8.15,0,0,0,5.49-2.1c1.92-1.87,2.51-5.29.6-7.39s-5.18-1.67-7.12,0-2.44,4.38-2.12,6.86a5.58,5.58,0,0,1-3.4-4.69c-.38-3.46,1.17-6.87,2.64-9.9,2.51-5.15,5.42-10.47,3.71-16.37-1.3-4.48-7.79-8.93-11.7-4.47-.32.37.09,1,.56.8,4.66-2.11,9.17.79,9.74,5.85.51,4.51-1.9,8.78-3.81,12.68-2.69,5.5-6.16,15.52,2.06,18.23.25.08.5.14.76.21a15.64,15.64,0,0,0,7.07,8.08c4,2.32,8.28,2.74,12.78,2.75C215.31,236.05,215.37,234.52,214.44,234.38Zm-16.25-17.69a2.83,2.83,0,0,1,4.44,2.15c.28,2.44-1.91,4-4,4.45a8.75,8.75,0,0,1-2.27.14C195.63,220.91,195.81,218.05,198.19,216.69Z"/><path class="cls-11" d="M179.21,270.45c-3.93,3.52-6.93,1.86-6.93,1.86l1.85-5.87Z"/><path class="cls-19" d="M179.21,270.45c-3.93,3.52-6.93,1.86-6.93,1.86A6.58,6.58,0,0,1,179.21,270.45Z"/><path class="cls-11" d="M191.4,243.57a46.12,46.12,0,0,1-2.29,5.83,48.41,48.41,0,0,1-14.81,18.79A35.55,35.55,0,0,1,159.64,262a34.73,34.73,0,0,1-8.15-8.21,33.8,33.8,0,0,1-1.93-3.08,35.68,35.68,0,0,1-3.63-25c2.27-9.63,9.34-17.89,18.08-20.27a21.37,21.37,0,0,1,18.4,3.49,25.34,25.34,0,0,1,4,3.74,28.66,28.66,0,0,1,6.46,13.76A36.37,36.37,0,0,1,191.4,243.57Z"/><path class="cls-20" d="M168.45,207.71c.61-.38,1.24-.72,1.87-1.05a9.19,9.19,0,0,0-4.48.2,28.76,28.76,0,0,0-5.28,2.6,33.67,33.67,0,0,1,3.49,1.37A41.09,41.09,0,0,1,168.45,207.71Z"/><path class="cls-20" d="M169.71,208a38.67,38.67,0,0,0-4.75,3.23q1.81.9,3.54,2a41.13,41.13,0,0,1,9.27-4.05,26.83,26.83,0,0,0-6-2.24C171.09,207.29,170.39,207.64,169.71,208Z"/><path class="cls-20" d="M148.73,235.82a25.45,25.45,0,0,1,1.91-7,40.92,40.92,0,0,1,6.68-11.44,51.73,51.73,0,0,1,5.93-5.91,30.2,30.2,0,0,0-3.69-1.36,28.89,28.89,0,0,0-11.38,32.45C148.59,240.35,148.52,238.08,148.73,235.82Z"/><path class="cls-20" d="M158,218a40.65,40.65,0,0,0-6.8,11.87,25.34,25.34,0,0,0-1.71,8v.1a43.52,43.52,0,0,1,8.72-16.12,41,41,0,0,1,9.38-8,36,36,0,0,0-3.45-1.88A51.11,51.11,0,0,0,158,218Z"/><path class="cls-19" d="M180.93,292.34a18.69,18.69,0,0,1,1.18-5.86c1.19-3.55,2.84-6.94,2.74-10.78a9,9,0,0,0-3.42-7.29,7.12,7.12,0,0,0-7.92-.56.43.43,0,0,0,.33.79c2.14-.38,4.09-.65,6.06.47a6.83,6.83,0,0,1,3.27,4.64c.74,3.54-.94,7.12-2.21,10.34-1.69,4.29-3.74,11.5,1.09,14.71a.65.65,0,0,0,.89-.89C181.78,296.07,180.93,294.59,180.93,292.34Z"/><path class="cls-10" d="M254.94,60.8a160.37,160.37,0,0,1-122.28-79l1.39-.8A158.76,158.76,0,0,0,255.11,59.2C255.05,59.74,255,60.27,254.94,60.8Z"/><path class="cls-8" d="M135.35,7.53c-.12-2.67-.16-5.32-.15-7.94q-3.75-1.22-7.51-2.66l11.53-7.67q3.34,5,7,9.75Z"/><path class="cls-11" d="M147.42,21.4q-.57-3.94-.95-7.84-3.84-.8-7.71-1.8L149.39,2.9q3.83,4.59,8,8.87Z"/><path class="cls-12" d="M160.83,33.84c-.66-2.57-1.24-5.13-1.76-7.68-2.59-.24-5.2-.56-7.83-.94l9.63-9.94q4.27,4.14,8.82,7.93Z"/><path class="cls-13" d="M175.43,44.76Q174,41,172.88,37.32q-3.9,0-7.87-.1,4.26-5.46,8.53-10.9,4.67,3.64,9.58,6.93Z"/><path class="cls-8" d="M191.09,54.08q-1.76-3.55-3.32-7.14c-2.58.31-5.19.55-7.83.74q3.66-5.88,7.33-11.74C190.62,38,194,40,197.53,41.82Q194.32,48,191.09,54.08Z"/><path class="cls-11" d="M207.69,61.71q-2.15-3.36-4.07-6.76-3.81.87-7.73,1.55,3-6.22,6.05-12.44,5.34,2.58,10.86,4.78Q210.24,55.28,207.69,61.71Z"/><path class="cls-8" d="M23.12,271.23c-4.94,1.87-7.14-.75-7.14-.75l3.83-4.82Z"/><path class="cls-21" d="M23.12,271.23c-4.94,1.87-7.14-.75-7.14-.75A6.59,6.59,0,0,1,23.12,271.23Z"/><path class="cls-8" d="M44.12,250.48a47.8,47.8,0,0,1-4.23,4.63,48.43,48.43,0,0,1-20.55,12.25,35.61,35.61,0,0,1-11.49-11,34.85,34.85,0,0,1-4.67-10.58,30.41,30.41,0,0,1-.69-3.57A35.69,35.69,0,0,1,8,217.55c5.57-8.17,15.13-13.36,24.14-12.45a21.32,21.32,0,0,1,15.93,9.84,25.35,25.35,0,0,1,2.42,4.93A28.68,28.68,0,0,1,51.63,235,36.39,36.39,0,0,1,44.12,250.48Z"/><path class="cls-22" d="M35.51,208.78c.71-.13,1.42-.23,2.13-.31a9.24,9.24,0,0,0-4.26-1.41,28.1,28.1,0,0,0-5.86.54,33.08,33.08,0,0,1,2.77,2.53A40.92,40.92,0,0,1,35.51,208.78Z"/><path class="cls-22" d="M36.57,209.54A37.64,37.64,0,0,0,31,210.86a35.38,35.38,0,0,1,2.6,3.11,40.68,40.68,0,0,1,10.1-.46,25.56,25.56,0,0,0-4.76-4.23C38.13,209.34,37.35,209.42,36.57,209.54Z"/><path class="cls-22" d="M7.05,228a25.19,25.19,0,0,1,4.27-5.84,41,41,0,0,1,10.34-8.29,50.43,50.43,0,0,1,7.65-3.4,33.05,33.05,0,0,0-3-2.59A28.85,28.85,0,0,0,4.12,234.09C5.29,232.16,6,230,7.05,228Z"/><path class="cls-22" d="M22.11,214.65a40.65,40.65,0,0,0-10.6,8.64,25.2,25.2,0,0,0-4.45,6.86l0,.09a43.54,43.54,0,0,1,13.91-11.93,41.18,41.18,0,0,1,11.64-4.15,36.54,36.54,0,0,0-2.55-3A49.68,49.68,0,0,0,22.11,214.65Z"/><path class="cls-21" d="M28.78,275.92c-1.27-5.51-6-10.25-12-9.31-.55.08-.39.92.13.94,6.23.19,10.15,5.69,10.43,11.55a22.94,22.94,0,0,1-1.55,8.74c-.88,2.47-2.56,4.86-2.64,7.52a.39.39,0,0,0,.66.27c2.48-2.14,3.68-6.45,4.52-9.55A20.94,20.94,0,0,0,28.78,275.92Z"/></g><polygon class="cls-7" points="9.16 11.54 16.23 7.48 17.26 10.01 12.71 14.57 9.16 11.54"/><polygon class="cls-7" points="188.62 6.11 192.2 12.17 193.81 11.37 192.2 5.33 188.62 6.11"/><polygon class="cls-7" points="164.51 116.07 160.42 121.81 161.81 122.95 166.67 119.03 164.51 116.07"/><polygon class="cls-13" points="181.43 14.08 176.16 13.66 175.97 14.99 180.36 16.61 181.43 14.08"/><polygon class="cls-13" points="104.43 7.81 100.6 11.45 101.45 12.49 105.59 10.3 104.43 7.81"/><polygon class="cls-23" points="38.9 62.55 36.47 67.24 37.62 67.94 40.81 64.52 38.9 62.55"/><polygon class="cls-15" points="39.65 110.62 35.78 114.21 36.62 115.26 40.78 113.12 39.65 110.62"/><polygon class="cls-13" points="147.48 266.24 142.27 263.01 141.35 264.27 145.03 268.28 147.48 266.24"/><polygon class="cls-11" points="40.98 6.42 35.71 6 35.51 7.34 39.91 8.95 40.98 6.42"/><polygon class="cls-11" points="193.9 113.31 188.63 112.89 188.43 114.22 192.82 115.84 193.9 113.31"/><polygon class="cls-15" points="160.06 192.8 155.21 190.69 154.59 191.89 158.22 194.85 160.06 192.8"/><polygon class="cls-13" points="15.46 95.43 8.58 99.01 9.37 100.82 16.09 99.41 15.46 95.43"/><polygon class="cls-11" points="60.75 256.6 65.73 260.59 66.83 259.39 63.53 254.8 60.75 256.6"/><path class="cls-12" d="M11.09,113.27a1.09,1.09,0,0,0,0,2.18A1.09,1.09,0,0,0,11.09,113.27Z"/><path class="cls-12" d="M190.22,25.52a1.09,1.09,0,0,0,0,2.17A1.09,1.09,0,0,0,190.22,25.52Z"/><path class="cls-12" d="M192.33,91a1.09,1.09,0,0,0,0,2.17A1.09,1.09,0,0,0,192.33,91Z"/><path class="cls-15" d="M165.91,59.75a1.09,1.09,0,0,0,0,2.18A1.09,1.09,0,0,0,165.91,59.75Z"/><path class="cls-12" d="M28,11.48a1.09,1.09,0,0,0,0,2.18A1.09,1.09,0,0,0,28,11.48Z"/><path class="cls-12" d="M10.65,80.55a1.53,1.53,0,0,0,0,3A1.53,1.53,0,0,0,10.65,80.55Z"/><path class="cls-12" d="M120.28,10.83a1.53,1.53,0,0,0,0,3.05A1.53,1.53,0,0,0,120.28,10.83Z"/><path class="cls-12" d="M50.7,265.21a1.52,1.52,0,0,0,0,3A1.52,1.52,0,0,0,50.7,265.21Z"/><path class="cls-12" d="M124.51,256.62a1.52,1.52,0,0,0,0,3A1.52,1.52,0,0,0,124.51,256.62Z"/><polygon class="cls-7" points="15.31 194.75 13.1 196.99 17.28 196.49 18.39 200.03 18.84 195.85 22.82 194.91 20.35 193.22 21.31 190.75 17.96 192.29 14.66 190.75 15.31 194.75"/><polygon class="cls-12" points="128.98 232.27 71.03 232.27 74.48 226.41 71.03 220.55 128.98 220.55 125.53 226.41 128.98 232.27"/><path class="cls-7" d="M86.27,225.2h-1v-.56h2.62v.56H87v2.44h-.7Z"/><path class="cls-7" d="M90.23,225.55a1,1,0,0,1,.29.77v1.32h-.63v-.29a.74.74,0,0,1-.7.32,1.08,1.08,0,0,1-.46-.09.68.68,0,0,1-.3-.25.61.61,0,0,1-.1-.36.59.59,0,0,1,.24-.5,1.25,1.25,0,0,1,.75-.19h.53a.42.42,0,0,0-.13-.33.6.6,0,0,0-.4-.12,1,1,0,0,0-.36.06,1.28,1.28,0,0,0-.31.15l-.24-.46a1.5,1.5,0,0,1,.46-.21,1.9,1.9,0,0,1,.54-.07A1.2,1.2,0,0,1,90.23,225.55Zm-.57,1.59a.43.43,0,0,0,.19-.23v-.24h-.46c-.27,0-.41.09-.41.27a.24.24,0,0,0,.1.21.47.47,0,0,0,.28.07A.52.52,0,0,0,89.66,227.14Z"/><path class="cls-7" d="M93.41,225.45a1.1,1.1,0,0,1,.42.41,1.27,1.27,0,0,1,.14.63,1.26,1.26,0,0,1-.14.62,1,1,0,0,1-.42.41,1.14,1.14,0,0,1-.58.15.88.88,0,0,1-.7-.28v1.08h-.67v-3.14h.64v.27a.9.9,0,0,1,.73-.3A1.14,1.14,0,0,1,93.41,225.45Zm-.28,1.5a.65.65,0,0,0,.17-.46.66.66,0,0,0-.17-.47.6.6,0,0,0-.84,0,.66.66,0,0,0-.17.47.65.65,0,0,0,.17.46.6.6,0,0,0,.84,0Z"/><path class="cls-7" d="M97.81,227.53a.82.82,0,0,1-.25.11,1.39,1.39,0,0,1-.3,0,.89.89,0,0,1-.63-.21.79.79,0,0,1-.23-.61v-.95h-.35v-.52h.35v-.56h.67v.56h.57v.52h-.57v.94a.31.31,0,0,0,.07.22.29.29,0,0,0,.22.08.5.5,0,0,0,.27-.08Z"/><path class="cls-7" d="M98.9,227.52a1.1,1.1,0,0,1-.46-.42,1.26,1.26,0,0,1,0-1.23,1.1,1.1,0,0,1,.46-.42,1.48,1.48,0,0,1,1.3,0,1.14,1.14,0,0,1,.45.42,1.26,1.26,0,0,1,0,1.23,1.14,1.14,0,0,1-.45.42,1.48,1.48,0,0,1-1.3,0ZM100,227a.65.65,0,0,0,.17-.46A.66.66,0,0,0,100,226a.6.6,0,0,0-.84,0,.62.62,0,0,0-.17.47.61.61,0,0,0,.17.46.6.6,0,0,0,.84,0Z"/><path class="cls-7" d="M104.12,225.38a1.36,1.36,0,0,1,.47-.08v.62h-.15a.61.61,0,0,0-.45.16.65.65,0,0,0-.16.48v1.09h-.67v-2.31h.64v.31A.75.75,0,0,1,104.12,225.38Z"/><path class="cls-7" d="M107.56,226.67h-1.75a.54.54,0,0,0,.22.34.72.72,0,0,0,.44.13.79.79,0,0,0,.32-.06.69.69,0,0,0,.26-.17l.36.39a1.21,1.21,0,0,1-1,.37,1.52,1.52,0,0,1-.69-.15,1.1,1.1,0,0,1-.46-.42,1.16,1.16,0,0,1-.16-.61,1.19,1.19,0,0,1,.16-.62,1.11,1.11,0,0,1,.44-.42,1.33,1.33,0,0,1,.63-.15,1.37,1.37,0,0,1,.61.14,1.09,1.09,0,0,1,.43.42,1.18,1.18,0,0,1,.16.63A1.62,1.62,0,0,0,107.56,226.67Zm-1.57-.74a.64.64,0,0,0-.19.35h1.14a.58.58,0,0,0-.19-.35.62.62,0,0,0-.76,0Z"/><path class="cls-7" d="M110.05,225.55a1,1,0,0,1,.28.77v1.32h-.62v-.29a.76.76,0,0,1-.71.32,1.11,1.11,0,0,1-.46-.09.6.6,0,0,1-.29-.25.61.61,0,0,1-.11-.36.59.59,0,0,1,.24-.5,1.29,1.29,0,0,1,.75-.19h.53a.42.42,0,0,0-.13-.33.58.58,0,0,0-.4-.12,1.13,1.13,0,0,0-.36.06,1.05,1.05,0,0,0-.3.15l-.24-.46a1.34,1.34,0,0,1,.45-.21,2,2,0,0,1,.54-.07A1.23,1.23,0,0,1,110.05,225.55Zm-.58,1.59a.39.39,0,0,0,.19-.23v-.24h-.45q-.42,0-.42.27a.27.27,0,0,0,.1.21.47.47,0,0,0,.28.07A.5.5,0,0,0,109.47,227.14Z"/><path class="cls-7" d="M113.65,224.46v3.18H113v-.27a.87.87,0,0,1-.72.3,1.31,1.31,0,0,1-.59-.14,1.1,1.1,0,0,1-.41-.42,1.38,1.38,0,0,1,0-1.25,1.1,1.1,0,0,1,.41-.42,1.31,1.31,0,0,1,.59-.14.85.85,0,0,1,.69.28v-1.12Zm-.82,2.49a.65.65,0,0,0,.17-.46.66.66,0,0,0-.17-.47.6.6,0,0,0-.84,0,.62.62,0,0,0-.17.47.61.61,0,0,0,.17.46.6.6,0,0,0,.84,0Z"/><path class="cls-11" d="M66.07,204.87l.36,0a1.59,1.59,0,0,1,.39.07,1.25,1.25,0,0,1,.31.12.25.25,0,0,1,.11.22c-.13,1.21-.2,2.43-.21,3.64s0,2.42.13,3.65a.19.19,0,0,0,0,.08.15.15,0,0,0,0,.07.23.23,0,0,1,0,.09,1,1,0,0,1-.16.19.66.66,0,0,1-.29.14c-.13,0-.26,0-.4.06a1.25,1.25,0,0,1-.39,0,.73.73,0,0,1-.32-.15.69.69,0,0,1-.2-.37c0-.12,0-.24,0-.37a3,3,0,0,1,0-.45c0-.17,0-.37,0-.59v-.8c-.15,0-.33,0-.54,0l-.66,0-.67-.05-.6,0c0,.4,0,.79,0,1.19v1.2a.62.62,0,0,1-.08.24.69.69,0,0,1-.17.17.57.57,0,0,1-.31.1H61.8a1.23,1.23,0,0,1-.39-.06.81.81,0,0,1-.29-.19.6.6,0,0,1-.15-.38,1.44,1.44,0,0,1,0-.21v-.35c0-.53,0-1.06,0-1.59s0-1.07,0-1.63,0-1.13.05-1.72,0-1.21,0-1.85a.27.27,0,0,1,0-.18.4.4,0,0,1,.11-.12.38.38,0,0,1,.22-.07l.35,0a2.47,2.47,0,0,1,.39,0,1,1,0,0,1,.33.07.26.26,0,0,1,.14.21q0,.9.06,1.77l0,1.76h2.53v0c0-.58.09-1.15.15-1.73s.12-1.16.19-1.76a.34.34,0,0,1,.06-.16.43.43,0,0,1,.12-.11A.38.38,0,0,1,66.07,204.87Z"/><path class="cls-11" d="M73.55,207.46c-.07.89-.12,1.78-.13,2.66s0,1.77.06,2.66a.45.45,0,0,1-.07.18.78.78,0,0,1-.16.15.59.59,0,0,1-.29.09l-.36.05a1.37,1.37,0,0,1-.35,0,.94.94,0,0,1-.3-.07.37.37,0,0,1-.2-.17l-.49.1a3.85,3.85,0,0,1-.49.07,2.37,2.37,0,0,1-1.3-.2,2.31,2.31,0,0,1-.92-.74,3.11,3.11,0,0,1-.5-1.09,3.87,3.87,0,0,1-.06-1.27,3.83,3.83,0,0,1,.4-1.24,3.17,3.17,0,0,1,.88-1,3,3,0,0,1,1.35-.52,3.49,3.49,0,0,1,1.47.1.41.41,0,0,1,.29-.06l.36,0a2.3,2.3,0,0,1,.39.05,1.07,1.07,0,0,1,.3.09A.18.18,0,0,1,73.55,207.46Zm-1.72,1.34a1.61,1.61,0,0,0-.89-.12,1.33,1.33,0,0,0-.65.32,1.73,1.73,0,0,0-.41.61,2.36,2.36,0,0,0-.17.72,1.81,1.81,0,0,0,.09.67.79.79,0,0,0,.35.46.81.81,0,0,0,.61.08,2.41,2.41,0,0,0,.89-.47,5.44,5.44,0,0,0,0-.57c0-.19,0-.38,0-.57s0-.4,0-.59S71.8,209,71.83,208.8Z"/><path class="cls-11" d="M77.77,207.58a2.8,2.8,0,0,1,.89.68,2.63,2.63,0,0,1,.5.91,2.57,2.57,0,0,1,.11,1,3.14,3.14,0,0,1-.25,1,3,3,0,0,1-.62.87,3.09,3.09,0,0,1-1,.64,5.58,5.58,0,0,1-1.31.37s0,.14,0,.3,0,.33,0,.6v1.11a.77.77,0,0,1-.07.27.67.67,0,0,1-.16.19.82.82,0,0,1-.3.11l-.42,0a1.33,1.33,0,0,1-.4,0,.55.55,0,0,1-.43-.58c0-.21,0-.5,0-.87V212.9c0-.46,0-1,0-1.48s0-1,0-1.53,0-1,0-1.42,0-.82,0-1.14a.41.41,0,0,1,.12-.3.76.76,0,0,1,.35-.16l.35-.05.39,0a.8.8,0,0,1,.32.05.23.23,0,0,1,.15.2.51.51,0,0,1,0,.09.22.22,0,0,0,0,.08,3,3,0,0,1,.88,0A3.8,3.8,0,0,1,77.77,207.58Zm-1.69,3.86a1.48,1.48,0,0,0,.74-.25,1.55,1.55,0,0,0,.49-.5,1.46,1.46,0,0,0,.2-.62,1.16,1.16,0,0,0-.13-.61,1.21,1.21,0,0,0-.48-.47,1.86,1.86,0,0,0-.84-.19v1.25c0,.41,0,.86,0,1.33v.06Z"/><path class="cls-11" d="M83.43,207.58a2.92,2.92,0,0,1,.89.68,2.6,2.6,0,0,1,.49.91,2.78,2.78,0,0,1,.12,1,3.15,3.15,0,0,1-.26,1,2.84,2.84,0,0,1-.62.87,3,3,0,0,1-1,.64,5.49,5.49,0,0,1-1.3.37,2.32,2.32,0,0,0,0,.3c0,.13,0,.33,0,.6v1.11a.76.76,0,0,1-.06.27,1,1,0,0,1-.17.19.7.7,0,0,1-.3.11l-.41,0a1.26,1.26,0,0,1-.4,0,.65.65,0,0,1-.31-.18A.63.63,0,0,1,80,215c0-.21,0-.5,0-.87s0-.79,0-1.25v-3c0-.5,0-1,0-1.42s0-.82,0-1.14A.41.41,0,0,1,80,207a.72.72,0,0,1,.34-.16l.36-.05.38,0a.74.74,0,0,1,.32.05.25.25,0,0,1,.16.2.34.34,0,0,1,0,.09.22.22,0,0,0,0,.08,3,3,0,0,1,.89,0A3.8,3.8,0,0,1,83.43,207.58Zm-1.7,3.86a1.52,1.52,0,0,0,.75-.25,1.66,1.66,0,0,0,.49-.5,1.44,1.44,0,0,0,.19-.62,1.16,1.16,0,0,0-.13-.61,1.25,1.25,0,0,0-.47-.47,1.87,1.87,0,0,0-.85-.19c0,.41,0,.83,0,1.25s0,.86,0,1.33v.06Z"/><path class="cls-11" d="M89.89,207.05l.36,0a2.38,2.38,0,0,1,.39,0,1,1,0,0,1,.32.12.32.32,0,0,1,.14.28c0,.93,0,1.73,0,2.39s0,1.22,0,1.68,0,.82,0,1.1a5.89,5.89,0,0,1,0,.68,2.68,2.68,0,0,1,0,.4q0,.15-.06.27a2.69,2.69,0,0,1-.3.67,2.61,2.61,0,0,1-.46.58,2.51,2.51,0,0,1-.61.44,2.8,2.8,0,0,1-.77.26,4.47,4.47,0,0,1-1.16,0,2.82,2.82,0,0,1-1.16-.37.57.57,0,0,1-.28-.4,1.18,1.18,0,0,1,0-.56.94.94,0,0,1,.25-.47.46.46,0,0,1,.44-.15,4.25,4.25,0,0,0,.63.17,2.44,2.44,0,0,0,.76.06A1.49,1.49,0,0,0,89,214a1,1,0,0,0,.4-.67c0-.13,0-.26,0-.41v-.44c0-.15,0-.3,0-.46s0-.3,0-.44a1.81,1.81,0,0,1-.87.56,2,2,0,0,1-1,0,2.48,2.48,0,0,1-1.07-.51,2.56,2.56,0,0,1-.63-.87,3.57,3.57,0,0,1-.29-1.1,5.43,5.43,0,0,1,0-1.21c0-.19,0-.38.05-.56s0-.37.07-.55a.4.4,0,0,1,.1-.15,1,1,0,0,1,.15-.11.68.68,0,0,1,.26,0l.35,0a2.33,2.33,0,0,1,.38,0,1,1,0,0,1,.31.1.2.2,0,0,1,.13.19c0,.17,0,.36-.05.54a5,5,0,0,0-.06.56c0,.19,0,.38,0,.56a3.43,3.43,0,0,0,0,.56,1.61,1.61,0,0,0,.23.73.78.78,0,0,0,.42.31.73.73,0,0,0,.5,0,1.44,1.44,0,0,0,.48-.32,1.91,1.91,0,0,0,.37-.54,1.85,1.85,0,0,0,.17-.71c0-.23,0-.44,0-.63s0-.35,0-.48,0-.29,0-.42a.47.47,0,0,1,0-.24.28.28,0,0,1,.1-.17A.45.45,0,0,1,89.89,207.05Z"/><path class="cls-11" d="M100.29,208.91a2.22,2.22,0,0,1,.72.94,2.06,2.06,0,0,1,.15,1.15,2,2,0,0,1-.53,1.14,3.2,3.2,0,0,1-1,.72,4.52,4.52,0,0,1-1.27.36,6.14,6.14,0,0,1-1.28,0l-.1,0h-.51a1.43,1.43,0,0,1-.38-.07.72.72,0,0,1-.29-.2.7.7,0,0,1-.15-.39,3.24,3.24,0,0,1,0-.49c0-.25,0-.55,0-.91s0-.75,0-1.17l0-1.28c0-.56,0-1.13,0-1.7a16.38,16.38,0,0,0-.06-1.71.22.22,0,0,1,0-.18.35.35,0,0,1,.1-.13A.56.56,0,0,1,96,205l.24,0,.28,0h.28l.23,0a5.15,5.15,0,0,1,1.18,0,4.37,4.37,0,0,1,1.17.3,2.88,2.88,0,0,1,1,.59,1.82,1.82,0,0,1,.54.9,2.63,2.63,0,0,1,.07.49,2.37,2.37,0,0,1-.06.52,2.55,2.55,0,0,1-.22.57A3.12,3.12,0,0,1,100.29,208.91Zm-2.88-.65a2.41,2.41,0,0,0,.9-.11,1.34,1.34,0,0,0,.55-.35.67.67,0,0,0,.17-.47.65.65,0,0,0-.19-.46,1.19,1.19,0,0,0-.56-.3,2.47,2.47,0,0,0-1,0c0,.29,0,.57.05.85S97.4,208,97.41,208.26Zm0,3.21a2.62,2.62,0,0,0,1-.06,1.39,1.39,0,0,0,.62-.33.72.72,0,0,0,.21-.45.5.5,0,0,0-.2-.42,1.11,1.11,0,0,0-.6-.24,2.74,2.74,0,0,0-1,.08Z"/><path class="cls-11" d="M103.72,208.18c0,.78,0,1.56,0,2.33s0,1.54,0,2.32a.37.37,0,0,1-.08.15.57.57,0,0,1-.16.14.67.67,0,0,1-.29.08,2.47,2.47,0,0,1-.39,0,2.31,2.31,0,0,1-.38,0,.94.94,0,0,1-.31-.1.37.37,0,0,1-.16-.24,3.14,3.14,0,0,1,0-.32V212c0-.23,0-.49,0-.76s0-.56.05-.84,0-.55,0-.82,0-.5,0-.7.05-.47.07-.68a.14.14,0,0,1,0-.11.3.3,0,0,1,.11-.07.63.63,0,0,1,.23,0h.35l.38,0a1.4,1.4,0,0,1,.32.06C103.68,208.08,103.72,208.12,103.72,208.18Zm.11-1.46a.62.62,0,0,1-.24.49.88.88,0,0,1-1.14,0,.64.64,0,0,1-.23-.49.68.68,0,0,1,.23-.51.88.88,0,0,1,1.14,0A.65.65,0,0,1,103.83,206.72Z"/><path class="cls-11" d="M109.26,208.63a1.84,1.84,0,0,1,0,.62,1.46,1.46,0,0,1-.22.51,1.23,1.23,0,0,1-.43.34,1.25,1.25,0,0,1-.65.08c-.22,0-.35-.12-.39-.28a1.2,1.2,0,0,1,0-.54,3.64,3.64,0,0,0,0-.63c0-.22-.09-.36-.21-.4a.46.46,0,0,0-.43.14,1.55,1.55,0,0,0-.42.67,3.12,3.12,0,0,0-.19,1.19l0,2.5a.54.54,0,0,1-.07.19.48.48,0,0,1-.17.13.78.78,0,0,1-.29.08l-.4,0a1.53,1.53,0,0,1-.38,0,1,1,0,0,1-.31-.13.44.44,0,0,1-.17-.27,2.51,2.51,0,0,1,0-.37v-.67c0-.27,0-.56,0-.88l0-1c0-.76.07-1.6.11-2.52a.16.16,0,0,1,0-.12.3.3,0,0,1,.1-.09.89.89,0,0,1,.23-.05h.35a2.54,2.54,0,0,1,.39,0,1.31,1.31,0,0,1,.31.06c.09,0,.14.07.14.14l0,.21a2.3,2.3,0,0,1,.83-.36,1.87,1.87,0,0,1,.94,0,1.59,1.59,0,0,1,.86.52A1.72,1.72,0,0,1,109.26,208.63Z"/><path class="cls-11" d="M112.39,211.52a.55.55,0,0,0,.2.28.52.52,0,0,0,.27.1.84.84,0,0,0,.31,0,2.19,2.19,0,0,0,.34-.1c.39-.14.61,0,.66.38a1.41,1.41,0,0,1,0,.58.88.88,0,0,1-.23.44,1.36,1.36,0,0,1-.66.37,2,2,0,0,1-.73,0,2.16,2.16,0,0,1-.83-.3,2.28,2.28,0,0,1-.58-.58,3.1,3.1,0,0,1-.36-.78,4.25,4.25,0,0,1-.18-.86,6.47,6.47,0,0,1,0-.88c0-.3,0-.63,0-1h-.18a.53.53,0,0,1-.31-.12.81.81,0,0,1-.12-.35c0-.12,0-.24,0-.38s0-.25,0-.36a1.56,1.56,0,0,1,0-.27c0-.07,0-.11.07-.11h.69c0-.42,0-.81.05-1.18s0-.74.07-1.12A.32.32,0,0,1,111,205a.57.57,0,0,1,.3-.11l.35,0a2.55,2.55,0,0,1,.39,0,.76.76,0,0,1,.31.1.32.32,0,0,1,.15.25c0,.41,0,.8,0,1.19s0,.77-.07,1.14l.71,0,.72,0a.22.22,0,0,1,.13.09.38.38,0,0,1,.08.17,1.17,1.17,0,0,1,0,.3c0,.13,0,.26,0,.4a2.34,2.34,0,0,1,0,.38,1.18,1.18,0,0,1-.09.3.31.31,0,0,1-.19.15,2.46,2.46,0,0,1-.54,0l-1-.09c0,.14,0,.31,0,.5s0,.39,0,.6a5.68,5.68,0,0,0,0,.59A1.67,1.67,0,0,0,112.39,211.52Z"/><path class="cls-11" d="M116.62,207.68a3,3,0,0,1,.9-.32,2.12,2.12,0,0,1,.87,0,2,2,0,0,1,.79.33,2.09,2.09,0,0,1,.6.65,3,3,0,0,1,.37,1,4.62,4.62,0,0,1,0,1.31l-.1,2.08a.68.68,0,0,1-.09.25.55.55,0,0,1-.17.17.5.5,0,0,1-.31.09h-.4a1.18,1.18,0,0,1-.39-.06.7.7,0,0,1-.29-.19.67.67,0,0,1-.14-.41,8.71,8.71,0,0,1,0-1c0-.34.06-.68.08-1a2.16,2.16,0,0,0-.07-.92,1.06,1.06,0,0,0-.32-.5.64.64,0,0,0-.46-.13.8.8,0,0,0-.47.21,1.27,1.27,0,0,0-.36.52,1.69,1.69,0,0,0-.12.8q0,1.08.09,2.1a.56.56,0,0,1-.13.37.63.63,0,0,1-.36.19l-.41.06a1,1,0,0,1-.38,0,.81.81,0,0,1-.31-.15.6.6,0,0,1-.19-.38c-.08-1.16-.11-2.34-.11-3.54s.06-2.41.15-3.63a1.6,1.6,0,0,1,0-.23.72.72,0,0,1,.09-.2.47.47,0,0,1,.17-.14.68.68,0,0,1,.27-.05l.35,0a2.45,2.45,0,0,1,.39,0,1.25,1.25,0,0,1,.31.1.24.24,0,0,1,.12.21C116.67,206.07,116.64,206.88,116.62,207.68Z"/><path class="cls-11" d="M126.32,205.25c-.08,2.45-.08,4.92,0,7.39a.72.72,0,0,1-.07.25.7.7,0,0,1-.16.19.51.51,0,0,1-.29.11,3.08,3.08,0,0,1-.53,0,.79.79,0,0,1-.45-.1,4.79,4.79,0,0,1-1.42.07,2.74,2.74,0,0,1-1.31-.45,2.34,2.34,0,0,1-.78-.82,2.83,2.83,0,0,1-.35-1.05,3.61,3.61,0,0,1,.06-1.13,3.53,3.53,0,0,1,.43-1.06,2.77,2.77,0,0,1,.6-.68,3.28,3.28,0,0,1,.76-.46,3.36,3.36,0,0,1,.88-.23,3.13,3.13,0,0,1,.92.05c0-.3,0-.58,0-.83s0-.48,0-.67,0-.43.05-.61a.27.27,0,0,1,0-.18.58.58,0,0,1,.11-.13.37.37,0,0,1,.23-.06h.35a2.34,2.34,0,0,1,.39,0,1.13,1.13,0,0,1,.31.1A.24.24,0,0,1,126.32,205.25ZM124.55,209a1.5,1.5,0,0,0-.76-.1,1.29,1.29,0,0,0-.56.24,1.27,1.27,0,0,0-.36.46,1.59,1.59,0,0,0-.14.57,1.41,1.41,0,0,0,.08.57,1.07,1.07,0,0,0,.32.46,1,1,0,0,0,.55.25,1.9,1.9,0,0,0,.81-.1c0-.37,0-.73,0-1.11S124.53,209.46,124.55,209Z"/><path class="cls-11" d="M132.74,207.46c-.08.89-.12,1.78-.14,2.66s0,1.77.06,2.66a.45.45,0,0,1-.07.18.58.58,0,0,1-.45.24l-.36.05a1.37,1.37,0,0,1-.35,0,.94.94,0,0,1-.3-.07.37.37,0,0,1-.2-.17l-.48.1a4.29,4.29,0,0,1-.5.07,2.37,2.37,0,0,1-1.3-.2,2.31,2.31,0,0,1-.92-.74,2.92,2.92,0,0,1-.49-1.09,3.39,3.39,0,0,1-.06-1.27,3.58,3.58,0,0,1,.39-1.24,3.17,3.17,0,0,1,.88-1,3,3,0,0,1,1.35-.52,3.55,3.55,0,0,1,1.48.1.37.37,0,0,1,.28-.06l.36,0a2.3,2.3,0,0,1,.39.05,1.07,1.07,0,0,1,.3.09C132.7,207.34,132.74,207.39,132.74,207.46ZM131,208.8a1.61,1.61,0,0,0-.89-.12,1.37,1.37,0,0,0-.65.32,1.73,1.73,0,0,0-.41.61,2.34,2.34,0,0,0-.16.72,1.63,1.63,0,0,0,.08.67.83.83,0,0,0,.35.46.81.81,0,0,0,.61.08,2.34,2.34,0,0,0,.89-.47c0-.19,0-.38,0-.57a5.44,5.44,0,0,1,0-.57c0-.2,0-.4,0-.59S131,209,131,208.8Z"/><path class="cls-11" d="M137.76,207.05l.36,0a2.38,2.38,0,0,1,.39,0,.93.93,0,0,1,.32.12.36.36,0,0,1,.15.28c0,.93,0,1.73,0,2.39s0,1.22,0,1.68,0,.82,0,1.1a5.89,5.89,0,0,1,0,.68,2.68,2.68,0,0,1,0,.4,1.07,1.07,0,0,1-.06.27,2.69,2.69,0,0,1-.3.67,2.57,2.57,0,0,1-.45.58,2.71,2.71,0,0,1-1.39.7,4.46,4.46,0,0,1-1.16,0,2.78,2.78,0,0,1-1.15-.37.56.56,0,0,1-.29-.4,1.18,1.18,0,0,1,0-.56,1,1,0,0,1,.25-.47.47.47,0,0,1,.45-.15,4.09,4.09,0,0,0,.62.17,2.44,2.44,0,0,0,.76.06,1.45,1.45,0,0,0,.68-.23,1,1,0,0,0,.4-.67,2.55,2.55,0,0,0,0-.41c0-.14,0-.29,0-.44s0-.3,0-.46,0-.3,0-.44a1.81,1.81,0,0,1-.87.56,2,2,0,0,1-.95,0,2.48,2.48,0,0,1-1.07-.51,2.7,2.7,0,0,1-.63-.87,3.87,3.87,0,0,1-.29-1.1,6.11,6.11,0,0,1,0-1.21,5,5,0,0,1,.06-.56l.06-.55a.4.4,0,0,1,.1-.15.74.74,0,0,1,.16-.11.6.6,0,0,1,.25,0l.35,0a2.45,2.45,0,0,1,.39,0,1.25,1.25,0,0,1,.31.1.21.21,0,0,1,.12.19c0,.17,0,.36-.05.54l-.06.56c0,.19,0,.38,0,.56a3.43,3.43,0,0,0,0,.56,1.6,1.6,0,0,0,.24.73.73.73,0,0,0,.91.28,1.44,1.44,0,0,0,.48-.32,1.91,1.91,0,0,0,.37-.54,1.85,1.85,0,0,0,.17-.71c0-.23,0-.44,0-.63s0-.35,0-.48,0-.29,0-.42a.38.38,0,0,1,0-.24.33.33,0,0,1,.1-.17A.45.45,0,0,1,137.76,207.05Z"/><rect class="cls-24" x="44.39" y="108.01" width="73.25" height="82.66" transform="translate(6.93 -3.56) rotate(2.63)"/><rect class="cls-25" x="51.98" y="109.36" width="58.75" height="64.76" transform="translate(-63.96 216.51) rotate(-87.37)"/><polygon class="cls-26" points="115.05 113.87 114.57 124.4 103.96 123.91 103.45 135 91.08 134.43 91.84 117.85 86.58 117.61 74.3 128.82 73.07 155.58 60.65 155.01 61.87 128.49 49.58 127.92 50.36 110.9 115.05 113.87"/><rect class="cls-24" x="83.36" y="90.45" width="66.15" height="74.65" transform="translate(198.94 279.69) rotate(-166.16)"/><rect class="cls-25" x="91.55" y="91.85" width="53.06" height="58.48" transform="translate(-27.74 206.79) rotate(-76.16)"/><polygon class="cls-26" points="96.04 88.34 93.76 97.58 103.07 99.88 100.68 109.61 111.53 112.28 115.11 97.73 119.73 98.87 127.51 111.72 121.72 135.2 132.62 137.89 138.35 114.61 149.14 117.27 152.82 102.33 96.04 88.34"/><rect class="cls-7" x="57.59" y="94.45" width="82.85" height="93.5" transform="translate(-24.16 20.5) rotate(-10.54)"/><rect class="cls-26" x="60.82" y="99.5" width="73.25" height="66.46" transform="translate(-22.64 20.07) rotate(-10.54)"/><polygon class="cls-27" points="127.37 93.36 129.55 105.07 117.74 107.27 120.03 119.62 106.27 122.18 102.84 103.72 96.98 104.81 86.33 120.32 91.88 150.11 78.06 152.68 72.56 123.16 58.88 125.7 55.36 106.76 127.37 93.36"/><path class="cls-28" d="M97.65,116.16c-4.18,4.25-7.68,4.63-7.68,4.63s1.59-4.18-.94-9.84c-2-4.57-3.64-15.6-4.18-19.7-.08-.61-.13-1.07-.16-1.33s0-.24,0-.24l4.13-1.38h0a148.7,148.7,0,0,1,6.59,13.77C97.82,108.07,99.58,114.19,97.65,116.16Z"/><path class="cls-29" d="M104.49,152.66s8.46,3.59,15.33,5.84c4.09,1.35,7.62,2.21,8.44,1.55,2.19-1.77,18.05-15.87,18.05-15.87l-1.18-1.71-1.9-2.75-.34-.49-.56-.82h0l-.63.38-.08,0-.25.15L123.2,150c-5.33-2.59-17.16-7.74-17.16-7.74l-.53,3.56Z"/><path class="cls-30" d="M119.82,158.5c4.09,1.35,7.62,2.21,8.44,1.55,2.19-1.77,18.05-15.87,18.05-15.87l-1.18-1.71-.76-.13s-15.81,13.85-16.29,14.14C127.83,156.64,123.64,157.62,119.82,158.5Z"/><path class="cls-31" d="M105.51,145.78l19.64,6.94c1.06-.37,17.65-12.56,17.65-12.56l.09-.93-.56-.82h0l-.63.38-.08,0-.25.15L123.2,150c-5.33-2.59-17.16-7.74-17.16-7.74Z"/><path class="cls-12" d="M93.49,124s5.42-.08,7,1.5,15.92,18.11,15.92,18.11l-10,14.13-5-7.36Z"/><path class="cls-12" d="M112.64,163.69l-32.31,6c0-.2-.07-.41-.11-.61L80,167.68,79.63,166c-1.39-7.23-2.9-13.52-4.21-15.51-.67-1-2.48-3.6-4.3-6.26-.5-.72-1-1.44-1.47-2.15-1.73-2.58-3.17-4.82-3.17-5.23h0c0-.54,1-2.15,2.22-3.76.31-.42.62-.83.94-1.23a.44.44,0,0,1,.08-.11c.67-.85,1.32-1.62,1.79-2.1A17.81,17.81,0,0,1,73,128.15c1.64-1.28,3.17-2.23,3.17-2.23L82,124h0l2.43-.82h.2l.41,0h1c.29,0,.59,0,.92,0h1l1.11.07c.57,0,1.15.1,1.72.17a17.5,17.5,0,0,1,1.94.39l.31.1.37.11h0c.62.2,1.27.45,2,.71,2.55,1,4.53,3.62,6.06,6.81a44.57,44.57,0,0,1,2.77,7.9h0c.52,2,.91,3.92,1.2,5.53h0l.07.38.09.54c.28,1.64.43,2.87.49,3.39a4.27,4.27,0,0,0,.29.82h0c.16.39.38.92.65,1.55,0,.08.07.16.11.25.3.68.65,1.47,1.05,2.35l.25.55c.71,1.57,1.54,3.38,2.44,5.31,0,.12.11.24.17.36l.63,1.36.78,1.68C112.57,163.54,112.6,163.62,112.64,163.69Z"/><path class="cls-7" d="M90.87,123.35c1,3.2,2.56,8.66,1.41,9.8-1.64,1.63-6.07-2-6.07-2A8.52,8.52,0,0,1,83.86,138c-2.28,2.45-10.3-3.33-14.14-6.35.67-.85,1.32-1.62,1.79-2.1A16.44,16.44,0,0,1,73,128.15c1.64-1.28,3.17-2.23,3.17-2.23l8.26-2.78A37.32,37.32,0,0,1,90.87,123.35Z"/><path class="cls-29" d="M86.2,131.12l-10-5.2c-.4-1.23-.45-1.73-1.37-4.81-1-3.43-2-6.65-2-6.65L83.7,115a24,24,0,0,0,.89,8.29A42.57,42.57,0,0,1,86.2,131.12Z"/><path class="cls-30" d="M83.7,115a24,24,0,0,0,.89,8.29c-.26.23-.51.44-.76.63-1,.76-5.61-1.2-9-2.83-1-3.43-2-6.65-2-6.65Z"/><path class="cls-29" d="M89.91,100.29c.1.95.17,2,.19,3,0,0,2,4.65,1.9,5.89s-1.11,9-4.64,9.74c-2.94.61-11.23-1.2-14.46-2.86a3,3,0,0,1-1.25-1c-1-1.78-4.92-9.78-5.27-10.45-.92-1.8-6.57-15.91,12.17-17.77A8.83,8.83,0,0,1,87,91.08,22.08,22.08,0,0,1,89.91,100.29Z"/><path class="cls-31" d="M90.1,103.32s2,4.65,1.9,5.89-1.11,9-4.64,9.74c-2.94.61-11.23-1.2-14.46-2.86,3.62,1,13.22,3.62,15.24,2,2.52-1.95,3.61-9.33,3.34-9.94s-1.83-4.62-1.83-4.62.14-1.49.26-3.28C90,101.24,90.08,102.25,90.1,103.32Z"/><path class="cls-32" d="M86,103.25a2.45,2.45,0,0,1,4.6-1,4.33,4.33,0,0,0-4.6,1Z"/><path class="cls-32" d="M74.9,103a2.49,2.49,0,0,0,1.56.52,1.09,1.09,0,0,1,.59-.68c.7-.28,1.64.4,2.1,1.53s.25,2.28-.45,2.56-1.64-.4-2.1-1.53a3.34,3.34,0,0,1-.24-1A4,4,0,0,1,74.9,103Z"/><path class="cls-33" d="M78,105.05a3.14,3.14,0,0,1-1.57.7,3,3,0,0,1-1.68-.33,3.14,3.14,0,0,1,1.56-.7A3.2,3.2,0,0,1,78,105.05Z"/><path class="cls-31" d="M72.35,114.64a7.08,7.08,0,0,1-5.49-1,7.65,7.65,0,0,1-.69-.53c-1-.92-2.5-4.79-1.21-6.24a1.81,1.81,0,0,1,2.64.12h0a2.81,2.81,0,0,1,.41.38Z"/><path class="cls-29" d="M72.35,114.64a7.08,7.08,0,0,1-5.49-1l-.3-.25c-1-.93-2.5-4.79-1.2-6.24A1.62,1.62,0,0,1,67.6,107h0a2.81,2.81,0,0,1,.41.38Z"/><path class="cls-30" d="M65.51,110.17a1.68,1.68,0,0,0,.39.92c.88,1.17,2.54,1.73,4.11,2.24a3.45,3.45,0,0,1-1.14-1.91,6.41,6.41,0,0,0-.16-.76C68.39,109.67,65.36,108.15,65.51,110.17Z"/><path class="cls-34" d="M70.77,113.49h-.09l-.24-.06a2.62,2.62,0,0,1-.81-.35,2.56,2.56,0,0,1-.86-.87,2.27,2.27,0,0,1-.31-1.44,1.38,1.38,0,0,1,0-.2v0s0,0,0,0h0l0,0-.07-.06-.14-.12c-.18-.15-.37-.29-.56-.42s-.38-.23-.56-.32a3,3,0,0,0-.52-.24.86.86,0,0,0-.47,0,.69.69,0,0,0-.33.17.43.43,0,0,0-.11.19c0,.05,0,.08,0,.08l0-.07a.44.44,0,0,1,.07-.23.82.82,0,0,1,.36-.26,1.17,1.17,0,0,1,.59,0,2.82,2.82,0,0,1,.61.18c.21.08.42.18.64.29a5.62,5.62,0,0,1,.63.41l.15.12.08.06.1.09.07.06a.29.29,0,0,1,0,.09l0,.14a.51.51,0,0,0,0,.17,2.42,2.42,0,0,0,.21,1.3,2.77,2.77,0,0,0,.67.88,3.12,3.12,0,0,0,.67.45l.22.09Z"/><path class="cls-35" d="M89.68,97.35s-3.38-2-4.1-.32-.13,1.55-.13,1.55Z"/><path class="cls-35" d="M72.27,103.29s3-5.85,5.18-4.54c1.25.77.71,1.62.71,1.62Z"/><path class="cls-30" d="M84.75,108.55a2.59,2.59,0,0,0-1.18.08,3.82,3.82,0,0,0,2.61,1.24.56.56,0,0,0,.22,0,.52.52,0,0,0,.22-.17,4.57,4.57,0,0,0,.87-1.53.83.83,0,0,0,.06-.35c0-.39-.26-.23-.45-.07a3.88,3.88,0,0,1-.72.47A3.66,3.66,0,0,1,84.75,108.55Z"/><path class="cls-36" d="M86.18,109.63c.16-.27.35-.53.52-.8a5.62,5.62,0,0,0,.5-1c-1.46-.42-1.86-1.66-2.28-3.08a4.33,4.33,0,0,1-.1-2,3.89,3.89,0,0,1,.32-1,3.13,3.13,0,0,1,.25-.48,1.42,1.42,0,0,1,.33-.36c0,.11-.06.22-.1.33a6.32,6.32,0,0,0-.27.84,5.18,5.18,0,0,0,.08,2.68,4.37,4.37,0,0,0,.82,1.55A3.37,3.37,0,0,0,88,107.4s-.49,1.22-.54,1.33a4.66,4.66,0,0,1-.5.75,1.58,1.58,0,0,1-.69.59.45.45,0,0,1-.28,0,.86.86,0,0,0,.1-.16l0-.07Z"/><path class="cls-36" d="M87.15,112s-4.65-1.42-8.27,1.46c0,0,2.49,3.13,4.63,2.7C86.09,115.64,87.15,112,87.15,112Z"/><path class="cls-7" d="M86.93,112.15a19.9,19.9,0,0,0-7.79,1.34s1.65,2.57,4.45,1.94A4.47,4.47,0,0,0,86.93,112.15Z"/><path class="cls-30" d="M89.39,107.54c.36.44,1.47.13,2.49-.69s1.55-1.86,1.19-2.3-1.48-.14-2.5.69S89,107.1,89.39,107.54Z"/><path class="cls-30" d="M74,110.1c.06.83,1.65,1.4,3.56,1.26s3.41-.92,3.35-1.76-1.66-1.39-3.56-1.26S73.9,109.27,74,110.1Z"/><path class="cls-37" d="M124,117.67c-11.83,6.14-19.16,1.31-19.16,1.31a40.36,40.36,0,0,1,7.2-11.61h0A22.68,22.68,0,0,1,124,117.67Z"/><path class="cls-38" d="M122.91,117.38a20.92,20.92,0,0,0-15.49.53S113.61,121.69,122.91,117.38Z"/><path class="cls-39" d="M112,107.37c-4.05,9.43-7.2,11.61-7.2,11.61A40.36,40.36,0,0,1,112,107.37Z"/><path class="cls-37" d="M124.21,117.59c13.06-2.7,15.69-11.07,15.69-11.07a40.43,40.43,0,0,0-12.9-4.47h0A22.69,22.69,0,0,0,124.21,117.59Z"/><path class="cls-38" d="M124.87,116.68a20.93,20.93,0,0,1,12.36-9.36S134.81,114.16,124.87,116.68Z"/><path class="cls-39" d="M127,102.05c9.08,4.76,12.9,4.47,12.9,4.47A40.43,40.43,0,0,0,127,102.05Z"/><polygon class="cls-40" points="143.86 115.27 155.88 149.23 122.92 160.95 110.07 132.9 107.4 128.23 143.86 115.27"/><polygon class="cls-37" points="142.87 153.86 137.91 155.62 123.83 122.39 130.32 120.08 142.87 153.86"/><polygon class="cls-41" points="128.7 158.89 122.92 160.95 107.4 128.23 115.27 125.43 128.7 158.89"/><polygon class="cls-37" points="126.27 159.76 124.12 160.52 109.73 127.4 108.94 125.82 112.44 124.14 113.26 126.14 126.27 159.76"/><polygon class="cls-42" points="143.86 115.27 144.84 118.04 117.52 130.53 110.07 132.9 107.4 128.23 143.86 115.27"/><polygon class="cls-40" points="146.06 116.5 130.4 123.3 124.15 126.01 115.88 129.6 108.16 131.9 103.73 125.38 112 122.2 119.95 119.15 127.84 116.12 143.29 110.18 146.06 116.5"/><polygon class="cls-37" points="127.84 116.12 130.4 123.3 124.15 126.01 119.95 119.15 127.84 116.12"/><polygon class="cls-41" points="115.88 129.6 113.58 130.28 110.52 131.2 108.16 131.9 103.73 125.38 106.36 124.37 110.23 122.89 112 122.2 115.88 129.6"/><polygon class="cls-38" points="113.58 130.28 110.52 131.2 106.36 124.37 110.23 122.89 113.58 130.28"/><path class="cls-29" d="M121.63,147.7a0,0,0,0,1,0,0l-.72,1.14-1.1,1.7-.14.21c-.27.4-.54.82-.83,1.24l-.08.13-.12.18c-1,1.44-2.06,3-3.24,4.63s-2.34,3.18-3.64,4.83c-.63.8-1.28,1.62-2,2.43l-31.92,5.94c-1-1.75-1.52-3-1.52-3l2.26-.85,1-.38,7.05-2.65L89.32,168l.92-.82,3.39-3.06h0l10.62-9.56,1.48-1.33,1.47-1.32,1.5-1.35h0l1-.91,1.85-1.67.65-.59,1.78-1.6,1.19-1.07.19-.16,1-.95.48.39h0l4.66,3.71h0Z"/><path class="cls-29" d="M116.44,143.56l5.14,4.1,0,0,1.64-2.09.15-.18,0,0,1.78-.52c1.23-.53,9.18-10.3,8.71-11-.13-.18-.29-.38-.45-.56s-.51-.52-.68-.68a2.52,2.52,0,0,0-.21-.19,7.35,7.35,0,0,0-.34-.95,5,5,0,0,0-.45-.86.94.94,0,0,0-.61-.48,5.35,5.35,0,0,0-1.75,1c-2.12,1.48-5.33,4.05-5.35,3.74s5.42-7.68,5.42-7.68a1.71,1.71,0,0,0-.24-.6,2,2,0,0,0-.55-.55c-.68-.45-9.68,8.61-10,8.87a9.34,9.34,0,0,0-1.66-5.92l0,0a.51.51,0,0,0-.45-.27.38.38,0,0,0-.23.11,2.62,2.62,0,0,0-.88,2,18.43,18.43,0,0,0,.17,2.22,11,11,0,0,1-.79,4.15c-.74,2.3,2,5.69,2,5.69S116.7,143.16,116.44,143.56Z"/><path class="cls-34" d="M132.25,131.5l-.51.51a21,21,0,0,1-2.88,2.24c-.74.47-1.25.73-1.31.76s.41-.49,1-1.13,1.5-1.62,2.52-2.58l.73-.66A4.66,4.66,0,0,1,132.25,131.5Z"/><path class="cls-34" d="M133.48,133.32a21.73,21.73,0,0,1-3.29,2.64,20.63,20.63,0,0,1,2.61-3.32A8.63,8.63,0,0,1,133.48,133.32Z"/><path class="cls-31" d="M80.57,169.66l-2.69.5c-1-1.75-1.52-3-1.52-3l2.26-.85c.45.81,1,1.76,1.6,2.76Z"/><path class="cls-31" d="M123.28,145.6l-1.65,2.1a0,0,0,0,1,0,0l-.72,1.14-1.1,1.7-.14.21c-.27.4-.54.82-.83,1.24l-.08.13-.12.18c-1,1.44-2.06,3-3.24,4.63s-2.34,3.18-3.64,4.83c-.63.8-1.28,1.62-2,2.43l-3.1.58c1.43-1.57,2.86-3.17,4.25-4.73,1-1.15,2-2.28,3-3.38l.19-.21c1.42-1.65,2.76-3.21,4-4.61l.37-.44.1-.11.61-.73.46-.54,1.08-1.29.92-1.1h0Z"/><path class="cls-12" d="M120,153.44l-.34.48a.61.61,0,0,1-.07.1c-.48.68-1.37,1.92-2.57,3.54s-2.77,3.69-4.53,5.91l-.22.29L73.67,171c-.51-1-10.07-20.59-10.06-25.21a18.06,18.06,0,0,1,2.52-8.37h0c.21-.36.35-.56.35-.56h0l3.5.44.86.11L76,143.88,90.28,162l1.41,1.57L93.35,162h0l9.86-9,1.41-1.28,1.82-1.66,0,0h0l.36-.33.68-.62,2-1.85,1.15-1.06,1.51,1.18,1,.77.92.72h0l3,2.38.86.66.59.46.33.26h0l.21.16Z"/><path class="cls-43" d="M120,153.44l-.34.48a.61.61,0,0,1-.07.1c-.48.68-1.37,1.92-2.57,3.54s-2.77,3.69-4.53,5.91l-.22.29-4.89.91q1.93-2.07,3.7-4.24c1-1.22,1.91-2.46,2.78-3.74.06-.07.11-.15.16-.22a50.53,50.53,0,0,0,3.12-5.26l.86.66.59.46.33.26h0l.21.16Z"/><path class="cls-43" d="M108.44,148.7l-.87.58c-1.36-7.06-4.77-14.43-9.83-19-.08-.07-.17.06-.11.15,4.38,6,7.6,11.88,9.24,19.33-.88.6-1.74,1.21-2.58,1.85-2.17.49-4.3.07-6.21,1.48-.93.69-1.64,1.62-2.58,2.31-1.82,1.33-3.6,1.47-5.8,1.51a.26.26,0,0,0-.09.5,7,7,0,0,0,6.66-1c1.57-1.1,2.44-2.45,4.42-2.93.57-.13,1.1-.21,1.61-.29a69.79,69.79,0,0,0-11.51,12c-3.27-5-6.72-10-10.45-14.68-2.6-3.28-5.61-7.52-9.94-8.47-.19,0-.35.24-.17.36,4.5,2.9,7.37,6.89,10.54,11.14s6.37,8.85,9.34,13.44a.79.79,0,0,0,1.23,0,67.71,67.71,0,0,1,18-17C110.28,149.48,109.34,148.13,108.44,148.7Z"/><path class="cls-28" d="M90,93.77s-2.85,0-5.54.06-4.36-3.39-4.36-3.39S78.53,95,77,95.82s-7.7,5.13-7.7,5.13l.13,7S66.38,106,65,106.88L62.4,96.74l3.47-7.89L78,84.53l5.7,1.5,5.47,3.47Z"/><path class="cls-28" d="M89.18,89.5l-.67,2.88-.27,1.18-3.39-2.31-4.5-3.08L73,95.67S69.4,99.11,69.57,107s9.61,15.53,9.61,15.53A13.27,13.27,0,0,1,67,125.13c-3.29-.88-5.64-4.78-7.11-9.61A44.3,44.3,0,0,1,58.37,97c.86-4.88,5.2-8.81,8.79-11.3a18.13,18.13,0,0,1,13.16-3.11c5.57.89,7.7,4,8.46,5.71A5.35,5.35,0,0,1,89.18,89.5Z"/><path class="cls-35" d="M95.38,102.07a24.72,24.72,0,0,1-4.71-6.38,20.92,20.92,0,0,0-2.16-3.31,7.3,7.3,0,0,0-1.44-1.33,10.39,10.39,0,0,0-2.38-1.13c-.73-.25-1.46-.47-2.17-.74a6,6,0,0,1-3.7-3.05c.39,2.66-1.91,4.92-4.2,6.31s-5,2.63-6.11,5c-.6,1.24-.75,2.75-1.71,3.73s-2.64,1.3-3.29,2.54c-.82,1.57.53,3.42.45,5.19-.12,2.28-2.46,3.7-3.66,5.65a5.22,5.22,0,0,0-.45.92,44.36,44.36,0,0,1-1.61-8.07A39,39,0,0,1,58.37,97c.86-4.88,5.2-8.81,8.79-11.3a18.13,18.13,0,0,1,13.16-3.11c5.57.89,7.7,4,8.46,5.71h0s.3.55.8,1.51C90.85,92.19,93.35,97.1,95.38,102.07Z"/><path class="cls-44" d="M89.59,89.81c-.48-.2-1-.41-1.42-.63-3.41-1.66-6.53-4-10.11-5.2-.68,2-2.71,3.27-4.65,4.19s-4.06,1.76-5.32,3.51c-1.12,1.55-1.44,3.66-2.88,4.92S61.68,98,60.89,99.65s.28,3.48-.28,5.12a6.82,6.82,0,0,1-2.37,2.68A39,39,0,0,1,58.37,97c.86-4.88,5.2-8.81,8.79-11.3a18.13,18.13,0,0,1,13.16-3.11c5.57.89,7.7,4,8.46,5.71h0S89.09,88.85,89.59,89.81Z"/><polygon class="cls-37" points="58.58 96.76 68.32 87.21 70.96 84.62 70.95 84.62 69.03 83.82 66.2 82.64 63.83 81.66 61.95 80.88 58.39 79.4 58.1 79.28 55.55 78.22 53.62 77.43 50.65 76.19 52.22 80.25 52.26 80.36 53.85 84.5 54.11 85.16 55.17 87.91 55.87 89.73 56.29 90.81 57.3 93.44 58.58 96.76"/><path class="cls-45" d="M64.16,84.4a2.34,2.34,0,0,0,2-1.76l-2.37-1L62,80.88a2.31,2.31,0,0,0-.33,1.42A2.34,2.34,0,0,0,64.16,84.4Z"/><path class="cls-45" d="M53.85,84.5a2.33,2.33,0,0,0-1.59-4.14Z"/><path class="cls-45" d="M57.3,93.44a2,2,0,0,0-.54-4,2,2,0,0,0-.89.3l.42,1.08Z"/><path class="cls-45" d="M58,86.47a1.41,1.41,0,1,0-1.54-1.27A1.42,1.42,0,0,0,58,86.47Z"/><path class="cls-45" d="M56.85,80.43a1.42,1.42,0,0,0,1.25-1.15l-2.55-1a1.35,1.35,0,0,0-.24.93A1.41,1.41,0,0,0,56.85,80.43Z"/><path class="cls-45" d="M62.06,89.19A1,1,0,1,0,61,88.3,1,1,0,0,0,62.06,89.19Z"/><polygon class="cls-46" points="68.32 87.21 70.96 84.62 70.95 84.62 69.03 83.82 63.83 81.66 58.39 79.4 53.62 77.43 50.65 76.19 68.32 87.21"/><polygon class="cls-7" points="47.45 76.94 49.3 76.78 50.48 78.21 50.89 76.4 52.61 75.72 51.02 74.77 50.91 72.92 49.51 74.14 47.72 73.68 48.44 75.38 47.45 76.94"/><polygon class="cls-7" points="110.72 146.16 107.57 149.28 117.31 157.23 120.82 152.71 110.72 146.16"/><polygon class="cls-12" points="116.13 86.83 109.69 97.16 119.49 91.68 116.13 86.83"/><polygon class="cls-12" points="105.08 89.39 104.41 96.25 108 91.01 105.08 89.39"/><polygon class="cls-12" points="115.93 99.61 109.33 101.57 115.54 102.93 115.93 99.61"/><polygon class="cls-7" points="46.41 180.03 51.9 183.28 52.83 181.94 48.91 177.85 46.41 180.03"/><path class="cls-11" d="M80.21,37.82c.16.54.31,1.15.44,1.83a15.7,15.7,0,0,1,.26,2.09,15.15,15.15,0,0,1,0,2.13,7.82,7.82,0,0,1-.44,2,4.08,4.08,0,0,1-.73,1.29,3.87,3.87,0,0,1-1.07.88,4,4,0,0,1-1.25.45,3.11,3.11,0,0,1-1.29,0,3.14,3.14,0,0,1-1.19-.61A3.42,3.42,0,0,1,74,46.61a4.12,4.12,0,0,1-.83,1,3.84,3.84,0,0,1-1,.69,3.42,3.42,0,0,1-1.17.26,2.45,2.45,0,0,1-1.15-.26,3.3,3.3,0,0,1-1.22-1A5.21,5.21,0,0,1,67.81,46a7.71,7.71,0,0,1-.39-1.59c-.08-.56-.14-1.11-.17-1.65a10.94,10.94,0,0,1,0-1.62,15,15,0,0,1,.18-1.67A11.2,11.2,0,0,1,67.8,38a4.19,4.19,0,0,1,.57-1.2.52.52,0,0,1,.65-.23l.49.15a1.7,1.7,0,0,1,.53.24,1,1,0,0,1,.35.37.79.79,0,0,1,0,.56,16.7,16.7,0,0,0-.6,3A12.85,12.85,0,0,0,69.89,44a3,3,0,0,0,.5,1.44.52.52,0,0,0,.71.17,2.11,2.11,0,0,0,.73-1,7.5,7.5,0,0,0,.55-2c.12-.65.21-1.28.28-1.91s.16-1.26.27-1.9a.9.9,0,0,1,.49-.64,1.67,1.67,0,0,1,.82-.18,1.5,1.5,0,0,1,.78.25.79.79,0,0,1,.38.63c0,.46,0,.91,0,1.35s0,.89,0,1.32,0,.88.09,1.33a5.89,5.89,0,0,0,.36,1.35,2.51,2.51,0,0,0,.77,1.18.7.7,0,0,0,.84.08,1.88,1.88,0,0,0,.63-1.08,6.83,6.83,0,0,0,.17-2.26c-.06-.69-.15-1.37-.26-2.07s-.25-1.31-.38-1.85a3.22,3.22,0,0,1,0-.38,1.63,1.63,0,0,1,0-.44,1.19,1.19,0,0,1,.15-.41.84.84,0,0,1,.31-.28,5.48,5.48,0,0,1,.56-.23,1.14,1.14,0,0,1,.58,0,1.16,1.16,0,0,1,.54.34A2.5,2.5,0,0,1,80.21,37.82Z"/><path class="cls-11" d="M84.55,41.18q0,1.73,0,3.42c0,1.14,0,2.27,0,3.41a.8.8,0,0,1-.12.22.94.94,0,0,1-.23.2,1.15,1.15,0,0,1-.43.13,5.46,5.46,0,0,1-.58,0,3.37,3.37,0,0,1-.56,0,1.19,1.19,0,0,1-.45-.15.51.51,0,0,1-.23-.34,1.61,1.61,0,0,1,0-.47c0-.24,0-.53,0-.86s0-.71,0-1.12,0-.81.07-1.22,0-.82.07-1.21.06-.73.08-1,.06-.68.09-1a.18.18,0,0,1,0-.16.37.37,0,0,1,.16-.1.87.87,0,0,1,.33-.05h.52a5,5,0,0,1,.56,0,2.5,2.5,0,0,1,.46.09C84.48,41,84.55,41.1,84.55,41.18ZM84.71,39a.9.9,0,0,1-.35.72,1.31,1.31,0,0,1-1.67,0,.93.93,0,0,1-.35-.72,1,1,0,0,1,.35-.75,1.28,1.28,0,0,1,1.67,0A1,1,0,0,1,84.71,39Z"/><path class="cls-11" d="M90.5,42a1,1,0,0,0-.21-.66,1.27,1.27,0,0,0-.48-.38,1.75,1.75,0,0,0-.61-.13,1.32,1.32,0,0,0-.52.08.57.57,0,0,0-.36.24.32.32,0,0,0,0,.3.64.64,0,0,0,.18.29.77.77,0,0,0,.29.22,4.59,4.59,0,0,0,.44.21,4.52,4.52,0,0,0,.47.18l.4.16.28.12a4.28,4.28,0,0,1,1.15.74,3.35,3.35,0,0,1,.77,1,2.73,2.73,0,0,1,.26,1.12,2.82,2.82,0,0,1-.17,1,3.16,3.16,0,0,1-.55.91,3.53,3.53,0,0,1-2,1.19,3.64,3.64,0,0,1-1.23,0,3.76,3.76,0,0,1-1.16-.38,3.67,3.67,0,0,1-1-.73,2.45,2.45,0,0,1-.46-.66,2.32,2.32,0,0,1-.2-.75,2.18,2.18,0,0,1,.06-.76,1.61,1.61,0,0,1,.37-.66.4.4,0,0,1,.13-.13.58.58,0,0,1,.48-.15c.17,0,.29.17.37.41A2.65,2.65,0,0,0,87.89,46a1.88,1.88,0,0,0,1.19.47,1.09,1.09,0,0,0,.44-.06,1.07,1.07,0,0,0,.36-.21.72.72,0,0,0,.2-.35.74.74,0,0,0,0-.48,1,1,0,0,0-.43-.51,3.91,3.91,0,0,0-.74-.36c-.27-.11-.54-.2-.81-.29a5.5,5.5,0,0,1-.65-.24,5,5,0,0,1-1.1-.72,2,2,0,0,1-.61-1.15A2.51,2.51,0,0,1,85.78,41a2.34,2.34,0,0,1,.57-1,3.52,3.52,0,0,1,.69-.53,4.34,4.34,0,0,1,.78-.33,4.61,4.61,0,0,1,.79-.16,6.24,6.24,0,0,1,.72,0,4.12,4.12,0,0,1,1.16.17,3.27,3.27,0,0,1,1,.49,2.38,2.38,0,0,1,.68.77,2,2,0,0,1,.24,1,.74.74,0,0,1-.13.41,1.19,1.19,0,0,1-.34.33,1.57,1.57,0,0,1-.48.2,2.36,2.36,0,0,1-.55.07.44.44,0,0,1-.29-.09C90.53,42.25,90.5,42.15,90.5,42Z"/><path class="cls-11" d="M96.23,40.45A4.21,4.21,0,0,1,97.55,40a3.44,3.44,0,0,1,1.28,0,3.15,3.15,0,0,1,1.15.49,3,3,0,0,1,.89,1,4.51,4.51,0,0,1,.54,1.44,7,7,0,0,1,.07,1.91l-.15,3.06a.91.91,0,0,1-.13.37.85.85,0,0,1-.25.25.69.69,0,0,1-.45.13h-.6a2,2,0,0,1-.56-.08,1,1,0,0,1-.43-.28,1,1,0,0,1-.21-.6,14.78,14.78,0,0,1,.07-1.5c0-.49.09-1,.13-1.52a3.25,3.25,0,0,0-.1-1.34,1.54,1.54,0,0,0-.48-.74,1,1,0,0,0-.67-.19,1.2,1.2,0,0,0-.69.31,2.06,2.06,0,0,0-.53.77,2.69,2.69,0,0,0-.18,1.18c0,1,.08,2.07.14,3.07a.82.82,0,0,1-.73.82,5.58,5.58,0,0,1-.59.09,1.49,1.49,0,0,1-.56,0,1.11,1.11,0,0,1-.46-.23.82.82,0,0,1-.27-.54c-.12-1.71-.18-3.45-.16-5.21s.08-3.53.21-5.32a3.07,3.07,0,0,1,0-.34,1,1,0,0,1,.13-.3.63.63,0,0,1,.25-.2.9.9,0,0,1,.4-.07l.51,0a3.42,3.42,0,0,1,.57.07,1.4,1.4,0,0,1,.45.15.34.34,0,0,1,.19.3Q96.26,38.68,96.23,40.45Z"/><path class="cls-11" d="M109.08,37.69a.48.48,0,0,1,.3.38,1.42,1.42,0,0,1,0,.54,2.27,2.27,0,0,1-.2.55,4.36,4.36,0,0,1-.26.43.77.77,0,0,1-.22.22.29.29,0,0,1-.29,0,7.16,7.16,0,0,0-1.15-.48,1,1,0,0,0-.74,0,.81.81,0,0,0-.4.54,4.75,4.75,0,0,0-.14,1.16c0,.29,0,.56,0,.83v.83l1.37-.05h1.37a.73.73,0,0,1,.33.49,3.35,3.35,0,0,1,.12.85,2.48,2.48,0,0,1-.11.84c-.07.26-.18.4-.34.43a2.11,2.11,0,0,1-.47,0h-1.44l-.7,0c0,.67.08,1.26.1,1.78s0,1,.06,1.41,0,.8,0,1.14,0,.69,0,1a4.4,4.4,0,0,1,0,.48,1.93,1.93,0,0,1-.13.5,1.06,1.06,0,0,1-.29.4.68.68,0,0,1-.48.16l-.53,0a2.09,2.09,0,0,1-.56-.14,1.35,1.35,0,0,1-.43-.31.75.75,0,0,1-.18-.52c0-.88,0-1.83,0-2.85s0-2-.09-3.07H103a.12.12,0,0,1-.13,0,.46.46,0,0,1-.1-.14,1,1,0,0,1-.09-.34c0-.14-.05-.31-.07-.51a3.88,3.88,0,0,1,0-.57,2.25,2.25,0,0,1,0-.47c0-.13.07-.2.13-.22l.38,0,.39,0V41.8a11.46,11.46,0,0,1,.06-1.17,7.16,7.16,0,0,1,.21-1.14,3.79,3.79,0,0,1,.43-1,2.62,2.62,0,0,1,.74-.78,2.53,2.53,0,0,1,1.14-.41,6.1,6.1,0,0,1,.77-.05,5.55,5.55,0,0,1,.82.06,5.27,5.27,0,0,1,.79.16A3.47,3.47,0,0,1,109.08,37.69Z"/><path class="cls-11" d="M118.33,40.05c-.11,1.32-.18,2.63-.21,3.94s0,2.64,0,4a.59.59,0,0,1-.1.26,1.33,1.33,0,0,1-.24.2,1,1,0,0,1-.44.14l-.55,0a2.26,2.26,0,0,1-.53,0,1.09,1.09,0,0,1-.45-.15.56.56,0,0,1-.26-.34,3.63,3.63,0,0,1-2.22.47,2.91,2.91,0,0,1-1.63-.83,4.32,4.32,0,0,1-1-1.67,6.68,6.68,0,0,1-.36-2.08c0-.63,0-1.26.06-1.9a14.21,14.21,0,0,1,.31-1.92.77.77,0,0,1,.21-.41.59.59,0,0,1,.44-.14c.15,0,.33,0,.53,0a3.1,3.1,0,0,1,.56.1,1.38,1.38,0,0,1,.44.21.36.36,0,0,1,.16.35c-.09.48-.15,1-.2,1.45a15.11,15.11,0,0,0-.07,1.53A5,5,0,0,0,113,45a2,2,0,0,0,.61.94.76.76,0,0,0,.78.07,1.68,1.68,0,0,0,.73-.84,5.4,5.4,0,0,0,.44-1.26,9.26,9.26,0,0,0,.2-1.3c0-.45.06-.89.07-1.34s0-.91.1-1.36a.32.32,0,0,1,.1-.2c.09-.12.28-.17.57-.16l.51,0a4.93,4.93,0,0,1,.57.07,2.21,2.21,0,0,1,.45.13A.26.26,0,0,1,118.33,40.05Z"/><path class="cls-11" d="M122.05,47.8a1,1,0,0,1-.12.35,1.07,1.07,0,0,1-.23.26.84.84,0,0,1-.43.15l-.59,0a2,2,0,0,1-.56,0,.91.91,0,0,1-.45-.25,1,1,0,0,1-.24-.55,5.59,5.59,0,0,1,0-.74c0-.37,0-.82,0-1.34s0-1.11,0-1.74,0-1.28.05-1.93c0-1.5.1-3.18.17-5a.42.42,0,0,1,0-.25.55.55,0,0,1,.16-.18.79.79,0,0,1,.33-.08l.53,0a2.67,2.67,0,0,1,.57,0,1.24,1.24,0,0,1,.46.13.34.34,0,0,1,.21.3Z"/><path class="cls-11" d="M123.49,45.1c-.06-1.63.82-2.46,1.94-2.46a5.16,5.16,0,0,1,2.29.74,5.13,5.13,0,0,0,2,.68c.59,0,.86-.47.88-1.37h1c.08,1.82-.86,2.46-1.87,2.46a5.52,5.52,0,0,1-2.35-.72,5.07,5.07,0,0,0-1.95-.71c-.59,0-.94.4-1,1.38Z"/><path class="cls-11" d="M81.2,67.72c0,.19,0,.38,0,.59a5.22,5.22,0,0,1,0,.58,1.73,1.73,0,0,1-.12.45.38.38,0,0,1-.24.24,1.12,1.12,0,0,1-.32,0l-.56,0c-.58,0-1.19,0-1.82,0s-1.27,0-1.93,0h-.5a1.14,1.14,0,0,1-.46-.09,1,1,0,0,1-.37-.27,1,1,0,0,1-.23-.51q0-.08,0-.57v-4.8c0-.64,0-1.27,0-1.9s0-1.18,0-1.68,0-.91,0-1.25,0-.54,0-.6a.45.45,0,0,1,0-.26.39.39,0,0,1,.14-.18.73.73,0,0,1,.35-.1l.57,0a5.1,5.1,0,0,1,.68,0,1.59,1.59,0,0,1,.56.12.33.33,0,0,1,.26.29c0,1.56,0,3.11,0,4.65s0,3.09,0,4.64L79,67c.57,0,1.19,0,1.88-.06A.23.23,0,0,1,81,67a.51.51,0,0,1,.11.22,2,2,0,0,1,0,.26A1.77,1.77,0,0,1,81.2,67.72Z"/><path class="cls-11" d="M85,60.9a4.25,4.25,0,0,1,1.89-.14,3.55,3.55,0,0,1,1.56.67,3.29,3.29,0,0,1,1,1.36,4,4,0,0,1,.24,1.94,1.09,1.09,0,0,1-.11.36.35.35,0,0,1-.26.18,1.44,1.44,0,0,1-.34,0l-.63,0h-.8l-.88,0-1.12,0-.85,0a3.21,3.21,0,0,0,.06.76,2,2,0,0,0,.25.68,1.44,1.44,0,0,0,1.2.73,1.31,1.31,0,0,0,.69-.13,1.65,1.65,0,0,0,.61-.55.85.85,0,0,1,.54-.4,1.12,1.12,0,0,1,.63.06,1.2,1.2,0,0,1,.52.4,1,1,0,0,1,.21.64,1.41,1.41,0,0,1-.23.8,2.8,2.8,0,0,1-.59.65,4,4,0,0,1-.79.48,3.22,3.22,0,0,1-.82.26,4.14,4.14,0,0,1-1,.08,4.46,4.46,0,0,1-1-.16,3.56,3.56,0,0,1-1.72-1.14,4.71,4.71,0,0,1-1-1.84,5.56,5.56,0,0,1-.15-2,4.3,4.3,0,0,1,1.55-2.95A3.48,3.48,0,0,1,85,60.9ZM85,63.61c.77,0,1.54,0,2.32,0a1.16,1.16,0,0,0-.38-.77,1,1,0,0,0-.67-.2,1.4,1.4,0,0,0-.72.3A1.74,1.74,0,0,0,85,63.61Z"/><path class="cls-11" d="M94.27,67.16a.89.89,0,0,0,.29.4.73.73,0,0,0,.4.15,1.48,1.48,0,0,0,.46,0,3.6,3.6,0,0,0,.5-.16q.85-.3,1,.57a2,2,0,0,1,0,.85,1.38,1.38,0,0,1-.33.65,1.86,1.86,0,0,1-1,.53,2.77,2.77,0,0,1-1.07,0,2.91,2.91,0,0,1-1.21-.43,3.16,3.16,0,0,1-.85-.86,4.36,4.36,0,0,1-.54-1.13,6.32,6.32,0,0,1-.26-1.28,11,11,0,0,1,0-1.29c0-.44,0-.92,0-1.44h-.26a.59.59,0,0,1-.45-.17,1.05,1.05,0,0,1-.18-.51,4.74,4.74,0,0,1,0-.55,3.21,3.21,0,0,1,0-.54,1.86,1.86,0,0,1,0-.39c0-.11.06-.16.11-.16l.49,0h.52c0-.61,0-1.19.07-1.73S92,58.53,92,58a.46.46,0,0,1,.2-.36.86.86,0,0,1,.44-.16c.14,0,.31,0,.51,0a3.51,3.51,0,0,1,.57,0,1.09,1.09,0,0,1,.46.15.43.43,0,0,1,.21.37c0,.59,0,1.17,0,1.74s-.07,1.13-.1,1.68l1,0,1.07,0a.51.51,0,0,1,.18.13.83.83,0,0,1,.13.25,2.46,2.46,0,0,1,.06.45c0,.19,0,.38,0,.58a4.75,4.75,0,0,1,0,.56,1.63,1.63,0,0,1-.14.44.49.49,0,0,1-.28.23,4.52,4.52,0,0,1-.79,0l-1.42-.13c0,.2,0,.45,0,.73s0,.57,0,.88a8.19,8.19,0,0,0,0,.87A2.24,2.24,0,0,0,94.27,67.16Z"/><path class="cls-11" d="M101.32,67.16a.89.89,0,0,0,.29.4.73.73,0,0,0,.4.15,1.48,1.48,0,0,0,.46,0,3.6,3.6,0,0,0,.5-.16q.86-.3,1,.57a2,2,0,0,1,0,.85,1.38,1.38,0,0,1-.33.65,1.86,1.86,0,0,1-1,.53,2.76,2.76,0,0,1-1.07,0,2.91,2.91,0,0,1-1.21-.43,3.16,3.16,0,0,1-.85-.86,4.36,4.36,0,0,1-.54-1.13,7.09,7.09,0,0,1-.26-1.28,11,11,0,0,1-.05-1.29c0-.44,0-.92.05-1.44h-.26a.59.59,0,0,1-.45-.17,1.05,1.05,0,0,1-.18-.51,6,6,0,0,1,0-1.09,2.9,2.9,0,0,1,0-.39c0-.11.07-.16.11-.16l.49,0h.52c0-.61,0-1.19.07-1.73s.06-1.09.1-1.64a.49.49,0,0,1,.2-.36.86.86,0,0,1,.44-.16c.14,0,.31,0,.51,0a3.51,3.51,0,0,1,.57,0,1.09,1.09,0,0,1,.46.15.43.43,0,0,1,.21.37c0,.59,0,1.17,0,1.74s-.07,1.13-.1,1.68l1,0,1.07,0a.51.51,0,0,1,.18.13.65.65,0,0,1,.13.25,2.46,2.46,0,0,1,.06.45c0,.19,0,.38,0,.58a3.28,3.28,0,0,1,0,.56,1.34,1.34,0,0,1-.14.44.46.46,0,0,1-.28.23,4.4,4.4,0,0,1-.78,0l-1.43-.13c0,.2,0,.45,0,.73s0,.57,0,.88a8.19,8.19,0,0,0,0,.87A2.24,2.24,0,0,0,101.32,67.16Z"/><path class="cls-11" d="M107.75,60.9a4.25,4.25,0,0,1,1.89-.14,3.5,3.5,0,0,1,1.56.67,3.29,3.29,0,0,1,1,1.36,3.85,3.85,0,0,1,.24,1.94,1.09,1.09,0,0,1-.11.36.34.34,0,0,1-.26.18,1.44,1.44,0,0,1-.34,0l-.63,0h-.8l-.88,0-1.12,0-.85,0a3.21,3.21,0,0,0,.06.76,2,2,0,0,0,.25.68,1.43,1.43,0,0,0,1.21.73,1.29,1.29,0,0,0,.68-.13,1.67,1.67,0,0,0,.62-.55.83.83,0,0,1,.53-.4,1.17,1.17,0,0,1,.64.06,1.23,1.23,0,0,1,.51.4,1,1,0,0,1,.22.64,1.42,1.42,0,0,1-.24.8,2.6,2.6,0,0,1-.59.65,3.7,3.7,0,0,1-.79.48,3.22,3.22,0,0,1-.82.26,4.14,4.14,0,0,1-1,.08,4.56,4.56,0,0,1-1-.16,3.6,3.6,0,0,1-1.72-1.14,5,5,0,0,1-1-1.84,5.35,5.35,0,0,1-.14-2,4.52,4.52,0,0,1,.65-1.93,4.8,4.8,0,0,1,.89-1A3.57,3.57,0,0,1,107.75,60.9Zm0,2.71c.77,0,1.54,0,2.32,0a1.16,1.16,0,0,0-.38-.77.94.94,0,0,0-.66-.2,1.39,1.39,0,0,0-.73.3A1.74,1.74,0,0,0,107.8,63.61Z"/><path class="cls-11" d="M120.55,62.92a2.47,2.47,0,0,1,0,.9,2,2,0,0,1-.32.74,1.53,1.53,0,0,1-.64.5,1.9,1.9,0,0,1-.95.13.62.62,0,0,1-.58-.41,1.87,1.87,0,0,1,0-.79,5.36,5.36,0,0,0,0-.93c0-.33-.12-.53-.31-.59a.68.68,0,0,0-.63.2,2.58,2.58,0,0,0-.62,1,4.88,4.88,0,0,0-.27,1.75l0,3.67a.63.63,0,0,1-.11.28.55.55,0,0,1-.23.19,1.16,1.16,0,0,1-.44.12l-.59,0a3.28,3.28,0,0,1-.56,0,1,1,0,0,1-.44-.18.67.67,0,0,1-.26-.41,2.85,2.85,0,0,1,0-.53c0-.27,0-.6,0-1s0-.83,0-1.3,0-.94.05-1.42c0-1.11.1-2.35.16-3.7a.23.23,0,0,1,0-.18.74.74,0,0,1,.16-.12,1,1,0,0,1,.33-.08l.51,0a5.32,5.32,0,0,1,.57,0,1.9,1.9,0,0,1,.46.08.28.28,0,0,1,.22.21v.31a3.55,3.55,0,0,1,1.22-.54,2.81,2.81,0,0,1,1.38,0,2.39,2.39,0,0,1,1.27.77A2.52,2.52,0,0,1,120.55,62.92Z"/><path class="cls-11" d="M124.26,68.5a1.06,1.06,0,0,1-.39.82,1.44,1.44,0,0,1-1,.34,1.41,1.41,0,0,1-.94-.34,1.06,1.06,0,0,1-.39-.82,1.08,1.08,0,0,1,.39-.84,1.36,1.36,0,0,1,.94-.34,1.39,1.39,0,0,1,1,.34A1.08,1.08,0,0,1,124.26,68.5Zm-2.45-2.4c0-1.33.07-2.66.07-4s0-2.65-.09-4a.69.69,0,0,1,.11-.29,1.14,1.14,0,0,1,.25-.23,1,1,0,0,1,.45-.14,3.55,3.55,0,0,1,.57-.07,2.47,2.47,0,0,1,.55,0,1.11,1.11,0,0,1,.44.19.68.68,0,0,1,.24.41,2.69,2.69,0,0,1,0,.56c0,.28,0,.62,0,1,0,1.15,0,2.26-.09,3.34s-.15,2.14-.28,3.19a.21.21,0,0,1,0,.18.42.42,0,0,1-.16.13.87.87,0,0,1-.33,0H123a3.45,3.45,0,0,1-.57,0,1.83,1.83,0,0,1-.46-.11C121.87,66.27,121.81,66.2,121.81,66.1Z"/><path class="cls-12" d="M85.8,176.49c0,.11.07.22.11.35a2.21,2.21,0,0,1,.06.34.66.66,0,0,1,0,.29.3.3,0,0,1-.19.19,2,2,0,0,1-.5.13c-.27.06-.58.11-.94.17.21.92.4,1.83.59,2.74s.36,1.82.54,2.74a.46.46,0,0,1,0,.21.38.38,0,0,1-.12.17A.54.54,0,0,1,85,184l-.36.09-.34,0A.53.53,0,0,1,84,184a.44.44,0,0,1-.2-.27,2.46,2.46,0,0,1-.1-.4c0-.21-.08-.45-.13-.74s-.1-.6-.15-.95-.11-.69-.16-1-.15-.94-.23-1.37-.13-.77-.17-1l-.59.09c-.18,0-.34.06-.48.07l-.45.08a.12.12,0,0,1-.1,0,.32.32,0,0,1-.09-.08.43.43,0,0,1-.08-.19c0-.09-.06-.2-.09-.32a2.29,2.29,0,0,1-.07-.34,1.1,1.1,0,0,1,0-.3c0-.08,0-.13.08-.14l4.4-1,.16,0a.53.53,0,0,1,.13.13A.58.58,0,0,1,85.8,176.49Z"/><path class="cls-12" d="M90.58,177.6c.08.81.19,1.61.32,2.4s.29,1.58.49,2.37a.26.26,0,0,1,0,.17.49.49,0,0,1-.36.29l-.31.1a.89.89,0,0,1-.31.06.84.84,0,0,1-.28,0,.37.37,0,0,1-.21-.12l-.42.17a3.12,3.12,0,0,1-.43.15,2.35,2.35,0,0,1-1.2,0,2.23,2.23,0,0,1-.94-.52,2.59,2.59,0,0,1-.62-.89,3.28,3.28,0,0,1-.27-1.12,3.37,3.37,0,0,1,.15-1.17,2.83,2.83,0,0,1,.62-1.07,2.74,2.74,0,0,1,1.11-.69,3.36,3.36,0,0,1,1.34-.15.42.42,0,0,1,.25-.1l.32,0,.36,0a1.11,1.11,0,0,1,.28,0C90.52,177.5,90.57,177.54,90.58,177.6Zm-1.32,1.48a1.44,1.44,0,0,0-.81,0,1.27,1.27,0,0,0-.53.4,1.58,1.58,0,0,0-.27.62,2.16,2.16,0,0,0,0,.67,1.41,1.41,0,0,0,.18.58.77.77,0,0,0,.39.35.74.74,0,0,0,.56,0,2.06,2.06,0,0,0,.72-.57c0-.17,0-.34-.07-.51l-.06-.52-.06-.53A4.32,4.32,0,0,1,89.26,179.08Z"/><path class="cls-12" d="M94.17,177.05a2.37,2.37,0,0,1,.91.46,2.26,2.26,0,0,1,.59.72,2.65,2.65,0,0,1,.27.88,2.59,2.59,0,0,1-.07.92,2.63,2.63,0,0,1-.4.89,2.94,2.94,0,0,1-.76.73,5.21,5.21,0,0,1-1.11.54,2.42,2.42,0,0,0,0,.28l.09.54c0,.24.11.57.19,1a.69.69,0,0,1,0,.25.5.5,0,0,1-.12.19.42.42,0,0,1-.24.15l-.37.1a1.5,1.5,0,0,1-.36,0,.55.55,0,0,1-.31-.11.65.65,0,0,1-.18-.33q-.06-.28-.15-.78c-.07-.33-.13-.7-.21-1.12s-.15-.85-.24-1.32-.17-.92-.26-1.37-.17-.86-.25-1.26-.15-.74-.22-1a.36.36,0,0,1,.06-.28.61.61,0,0,1,.28-.2l.31-.11a2.14,2.14,0,0,1,.34-.09.7.7,0,0,1,.29,0,.2.2,0,0,1,.18.15.31.31,0,0,1,0,.08s0,0,0,.06a3.44,3.44,0,0,1,.8-.1A3.51,3.51,0,0,1,94.17,177.05Zm-.87,3.73a1.5,1.5,0,0,0,.62-.35,1.36,1.36,0,0,0,.35-.53,1.2,1.2,0,0,0,.07-.59,1,1,0,0,0-.21-.52,1.06,1.06,0,0,0-.5-.34,1.7,1.7,0,0,0-.79,0l.21,1.11c.07.37.15.77.24,1.19v.06Z"/><path class="cls-12" d="M101.92,179.25a.62.62,0,0,0,.22.21.48.48,0,0,0,.26,0,1,1,0,0,0,.28-.07c.1,0,.19-.1.29-.15.32-.19.54-.11.65.23a1.31,1.31,0,0,1,.07.52.82.82,0,0,1-.13.44,1.22,1.22,0,0,1-.53.43,1.69,1.69,0,0,1-.65.14,1.71,1.71,0,0,1-.79-.13,1.85,1.85,0,0,1-.61-.42,2.69,2.69,0,0,1-.46-.63,4,4,0,0,1-.3-.75,6.34,6.34,0,0,1-.18-.78c0-.27-.08-.56-.13-.88h-.16a.43.43,0,0,1-.3-.05.82.82,0,0,1-.16-.29c0-.11-.06-.22-.09-.33s0-.23-.06-.33a2.36,2.36,0,0,1,0-.25c0-.07,0-.1.05-.11l.3-.06.31-.06c-.06-.38-.11-.73-.15-1.07s-.09-.67-.12-1a.27.27,0,0,1,.08-.24.55.55,0,0,1,.25-.14l.3-.08.35,0a.73.73,0,0,1,.3,0,.24.24,0,0,1,.17.19,10.32,10.32,0,0,1,.17,1.07c0,.35.09.7.13,1l.64-.11.65-.1a.21.21,0,0,1,.12.05.4.4,0,0,1,.11.14,1.21,1.21,0,0,1,.09.27c0,.11.05.23.08.35s0,.23,0,.34a.85.85,0,0,1,0,.29.23.23,0,0,1-.14.16,1.69,1.69,0,0,1-.48.08l-.88.09c0,.12,0,.27.07.44s0,.36.08.54l.12.53A1.91,1.91,0,0,0,101.92,179.25Z"/><path class="cls-12" d="M106.6,180a2.29,2.29,0,0,1-1,0,2.56,2.56,0,0,1-.89-.44,2.81,2.81,0,0,1-1.09-1.79,2.85,2.85,0,0,1,0-1.09,2.92,2.92,0,0,1,.37-1,2.78,2.78,0,0,1,.68-.73,2.44,2.44,0,0,1,.92-.39,2.29,2.29,0,0,1,1,0,2.53,2.53,0,0,1,.89.43,3.23,3.23,0,0,1,.7.77,3,3,0,0,1,.39,2.12,2.86,2.86,0,0,1-.37,1,2.63,2.63,0,0,1-.68.73A2.06,2.06,0,0,1,106.6,180Zm-.74-4a.94.94,0,0,0-.41.17,1,1,0,0,0-.28.34,1.26,1.26,0,0,0-.14.44,1.4,1.4,0,0,0,0,.5,1.28,1.28,0,0,0,.18.47,1.18,1.18,0,0,0,.29.36,1.13,1.13,0,0,0,.39.21.89.89,0,0,0,.43,0,1,1,0,0,0,.4-.18A1,1,0,0,0,107,178a1.29,1.29,0,0,0,.16-.44,1.74,1.74,0,0,0,0-.51,1.35,1.35,0,0,0-.18-.47,1.14,1.14,0,0,0-.3-.35,1.06,1.06,0,0,0-.39-.21A.9.9,0,0,0,105.86,176Z"/><path class="cls-12" d="M116.15,173.93a1.51,1.51,0,0,1,.09.55,1.14,1.14,0,0,1-.11.49.9.9,0,0,1-.33.37,1.1,1.1,0,0,1-.57.19.37.37,0,0,1-.39-.19,1.12,1.12,0,0,1-.12-.47,3.68,3.68,0,0,0-.07-.57c-.05-.2-.14-.31-.26-.32s-.24.05-.36.19a1.5,1.5,0,0,0-.27.67,3.13,3.13,0,0,0,0,1.09l.45,2.23a.34.34,0,0,1,0,.18.4.4,0,0,1-.12.15.84.84,0,0,1-.25.11l-.36.1-.34,0a.65.65,0,0,1-.29-.06.37.37,0,0,1-.2-.22,2,2,0,0,1-.08-.32c0-.17-.07-.37-.11-.61s-.08-.5-.13-.79-.09-.58-.13-.87c-.1-.68-.21-1.44-.32-2.27a.11.11,0,0,1,0-.11.31.31,0,0,1,.08-.1.71.71,0,0,1,.19-.08l.31-.07.35-.06a1.4,1.4,0,0,1,.29,0,.16.16,0,0,1,.15.1l0,.19A2,2,0,0,1,114,173a1.82,1.82,0,0,1,.84-.14,1.4,1.4,0,0,1,1.33,1.07Z"/><path class="cls-12" d="M118.14,172.29a2.69,2.69,0,0,1,1.13-.3,2.2,2.2,0,0,1,1,.23,2,2,0,0,1,.77.72,2.45,2.45,0,0,1,.37,1.15.75.75,0,0,1,0,.23.22.22,0,0,1-.14.14l-.2.07-.38.08-.49.08-.53.09-.69.1-.52.06a1.73,1.73,0,0,0,.12.46,1.49,1.49,0,0,0,.23.39,1,1,0,0,0,.34.25,1,1,0,0,0,.47.06.9.9,0,0,0,.41-.16,1,1,0,0,0,.31-.41.49.49,0,0,1,.28-.3.75.75,0,0,1,.39,0,.7.7,0,0,1,.36.19.57.57,0,0,1,.2.36.84.84,0,0,1,0,.52,1.62,1.62,0,0,1-.29.46,2.19,2.19,0,0,1-.42.38,2,2,0,0,1-.47.25,2.41,2.41,0,0,1-.6.16,3.09,3.09,0,0,1-.61,0A2.21,2.21,0,0,1,118,177a2.83,2.83,0,0,1-.79-1,3.23,3.23,0,0,1-.32-1.21,2.92,2.92,0,0,1,.17-1.25,3.27,3.27,0,0,1,.43-.72A2.24,2.24,0,0,1,118.14,172.29Zm.34,1.65,1.41-.3a.73.73,0,0,0-.33-.42.52.52,0,0,0-.42-.05.92.92,0,0,0-.41.26A1.11,1.11,0,0,0,118.48,173.94Z"/><path class="cls-12" d="M126.6,170.9c.08.81.18,1.61.32,2.4s.29,1.58.49,2.37a.55.55,0,0,1,0,.17.51.51,0,0,1-.12.16.54.54,0,0,1-.24.13l-.31.1a1.28,1.28,0,0,1-.32.06.87.87,0,0,1-.28,0,.34.34,0,0,1-.2-.13l-.42.18a3.59,3.59,0,0,1-.43.14,2.15,2.15,0,0,1-1.2,0,2.06,2.06,0,0,1-.94-.51,2.76,2.76,0,0,1-.63-.89A3.33,3.33,0,0,1,122,174a3.37,3.37,0,0,1,.15-1.17,2.83,2.83,0,0,1,.62-1.07,2.67,2.67,0,0,1,1.11-.69,3.34,3.34,0,0,1,1.34-.15.36.36,0,0,1,.24-.1l.33,0,.35,0a.81.81,0,0,1,.29,0C126.54,170.8,126.59,170.84,126.6,170.9Zm-1.32,1.48a1.44,1.44,0,0,0-.81,0,1.14,1.14,0,0,0-.53.4,1.61,1.61,0,0,0-.27.61,2.55,2.55,0,0,0,0,.67,1.58,1.58,0,0,0,.19.59.74.74,0,0,0,.39.35.79.79,0,0,0,.56,0,2.18,2.18,0,0,0,.72-.57c0-.17,0-.34-.07-.51s-.05-.34-.07-.52,0-.36,0-.53A4.32,4.32,0,0,1,125.28,172.38Z"/><path class="cls-12" d="M131.51,167.94q.5,3.31,1.23,6.61a.86.86,0,0,1,0,.23.5.5,0,0,1-.36.35c-.14,0-.3.09-.46.12a.83.83,0,0,1-.42,0,4.46,4.46,0,0,1-1.26.3,2.49,2.49,0,0,1-1.24-.18,2.17,2.17,0,0,1-.84-.61,2.44,2.44,0,0,1-.48-.88,3.09,3.09,0,0,1-.14-1,3.26,3.26,0,0,1,.21-1,2.51,2.51,0,0,1,.42-.7,2.86,2.86,0,0,1,1.36-.89,2.6,2.6,0,0,1,.83-.11c0-.27-.07-.52-.1-.75s-.05-.44-.06-.61-.05-.38-.06-.55a.3.3,0,0,1,0-.16.35.35,0,0,1,.08-.13.34.34,0,0,1,.2-.1l.31,0,.36,0a.85.85,0,0,1,.29,0A.22.22,0,0,1,131.51,167.94Zm-1,3.66a1.3,1.3,0,0,0-.69,0,1.1,1.1,0,0,0-.46.31,1.12,1.12,0,0,0-.25.47,1.59,1.59,0,0,0,0,.53,1.29,1.29,0,0,0,.17.5,1,1,0,0,0,.36.36,1,1,0,0,0,.53.13,1.59,1.59,0,0,0,.71-.23c-.06-.32-.12-.65-.17-1S130.61,172,130.55,171.6Z"/></g></g></svg>