<svg xmlns="http://www.w3.org/2000/svg" viewBox="0 0 258.48 321.77"><defs><style>.cls-1{fill:#8f3e96;}.cls-2{fill:#f7c7dd;}.cls-3{fill:#ffc828;}.cls-4{fill:#f8fbff;}.cls-5{fill:#6d4c41;}.cls-6{fill:#e9417b;}.cls-7{fill:#ffebb0;}.cls-8{fill:#f27d20;}.cls-9{fill:#ed5fa1;}.cls-10{fill:#f6951d;}.cls-11,.cls-12{fill:#fff;}.cls-11{opacity:0.1;}.cls-12{opacity:0.15;}</style></defs><title>cake</title><g id="OBJECTS"><polygon class="cls-1" points="119.04 69.67 133.39 69.67 130.52 16.09 121.91 16.09 119.04 69.67"/><path class="cls-2" d="M121.22,7.15c.17,3.52,2.6,6.06,4.8,6.06a4.38,4.38,0,0,0,4.26-5.38c-.72-3-4.89-2.29-5.74-7.9C124.54-.07,121,3.48,121.22,7.15Z"/><path class="cls-3" d="M127.35,13c-2.16-.13-4.48-3-4.65-6.85A11.52,11.52,0,0,1,124.55,0c.88,5.53,5,4.86,5.73,7.83A4.28,4.28,0,0,1,127.35,13Z"/><path class="cls-4" d="M131.67,17.42c0,.43-.4,2.74-.82,2.83s-.75-.26-.93-.62-.36-1.2-.67-1.26-.32.31-.48.5a.67.67,0,0,1-1-.07,10.65,10.65,0,0,1-.64-.86c-.49-.55-1.21-.46-1.23.43,0,.4.07.81,0,1.2-.15,1.33-1.6,1.14-1.68-.06,0-.45.09-1-.31-1.26s-.82.18-1,.58c-.43,1-.18,2.1-.25,3.16a2.1,2.1,0,0,1-.41,1.24,1,1,0,0,1-1.19.29,1.22,1.22,0,0,1-.33-1.47,9.85,9.85,0,0,0,.63-1.51,5.38,5.38,0,0,0-.39-2.21,2.63,2.63,0,0,1,2.84-3.56,15.35,15.35,0,0,0,3.52-.26,10,10,0,0,1,1.64,0A2.53,2.53,0,0,1,131.67,17.42Z"/><path class="cls-5" d="M125.73,15.36c0,.24,1,.23,1,0a24.22,24.22,0,0,1-.49-3.47h-.31S125.78,14.8,125.73,15.36Z"/><polygon class="cls-6" points="161.07 69.67 171.76 69.67 169.62 29.77 163.21 29.77 161.07 69.67"/><path class="cls-2" d="M162.69,23.11c.14,2.62,1.94,4.51,3.58,4.51a3.26,3.26,0,0,0,3.17-4c-.53-2.22-3.64-1.7-4.27-5.88C165.17,17.73,162.56,20.37,162.69,23.11Z"/><path class="cls-3" d="M167.26,27.43c-1.61-.09-3.34-2.19-3.46-5.1a8.47,8.47,0,0,1,1.38-4.55c.65,4.12,3.73,3.62,4.26,5.83A3.17,3.17,0,0,1,167.26,27.43Z"/><path class="cls-4" d="M170.48,30.75c0,.32-.3,2-.61,2.11a.69.69,0,0,1-.69-.46c-.1-.22-.27-.89-.5-.94s-.24.24-.36.38a.51.51,0,0,1-.71-.06,7.62,7.62,0,0,1-.48-.64c-.36-.41-.9-.34-.92.32,0,.3.06.6,0,.9-.11,1-1.19.85-1.25,0,0-.34.07-.78-.23-.94s-.61.13-.74.42a6.63,6.63,0,0,0-.19,2.36,1.57,1.57,0,0,1-.31.92.75.75,0,0,1-.89.22.91.91,0,0,1-.24-1.1,6.82,6.82,0,0,0,.47-1.12,4.17,4.17,0,0,0-.29-1.65,2.13,2.13,0,0,1,.64-2.27,2.09,2.09,0,0,1,1.47-.38,11.4,11.4,0,0,0,2.62-.19,8.42,8.42,0,0,1,1.23,0A1.88,1.88,0,0,1,170.48,30.75Z"/><path class="cls-5" d="M166.05,29.22c0,.18.78.18.72,0a17.94,17.94,0,0,1-.36-2.59h-.23S166.09,28.8,166.05,29.22Z"/><polygon class="cls-2" points="80.67 69.67 91.35 69.67 89.22 29.77 82.8 29.77 80.67 69.67"/><path class="cls-2" d="M82.29,23.11c.13,2.62,1.94,4.51,3.58,4.51a3.26,3.26,0,0,0,3.17-4c-.54-2.22-3.64-1.7-4.28-5.88C84.76,17.73,82.15,20.37,82.29,23.11Z"/><path class="cls-3" d="M86.86,27.43c-1.61-.09-3.34-2.19-3.47-5.1a8.64,8.64,0,0,1,1.38-4.55c.65,4.12,3.73,3.62,4.27,5.83A3.19,3.19,0,0,1,86.86,27.43Z"/><path class="cls-4" d="M90.08,30.75c0,.32-.3,2-.62,2.11a.7.7,0,0,1-.69-.46c-.1-.22-.26-.89-.5-.94s-.24.24-.35.38a.51.51,0,0,1-.71-.06,5.93,5.93,0,0,1-.48-.64c-.37-.41-.9-.34-.92.32,0,.3.06.6,0,.9-.11,1-1.19.85-1.24,0,0-.34.06-.78-.23-.94s-.62.13-.75.42a7.13,7.13,0,0,0-.19,2.36,1.56,1.56,0,0,1-.3.92.75.75,0,0,1-.89.22A.91.91,0,0,1,82,34.2a7.81,7.81,0,0,0,.47-1.12,4,4,0,0,0-.3-1.65,2,2,0,0,1,2.12-2.65,11.49,11.49,0,0,0,2.62-.19,8.42,8.42,0,0,1,1.23,0A1.88,1.88,0,0,1,90.08,30.75Z"/><path class="cls-5" d="M85.65,29.22c0,.18.77.18.72,0A17.94,17.94,0,0,1,86,26.63h-.24S85.69,28.8,85.65,29.22Z"/><path class="cls-7" d="M41.54,175.87H210.88s20.41-82.7,0-94.72c-33.21-19.55-142.53-20-169.34,0C22.57,95.32,41.54,175.87,41.54,175.87Z"/><path class="cls-7" d="M15.26,321.77H237.8s26.4-128.31-.42-144.1c-43.64-25.69-187.31-26.31-222.54,0C-10.09,196.29,15.26,321.77,15.26,321.77Z"/><path class="cls-6" d="M221.17,91.17c6,8.09,8.29,16.54,8.54,27.56.27,12-4.52,17-8.83,17-3.51,0-6.12-10.06-8.33-13.56-3.06-4.83-8.59-5.6-12.57-2-1.89,1.71-3.63,10.32-5.74,11.56-1.37.81-2.93,1.52-4.37.91-4.27-1.82-2.26-10.23-2.13-12.84.56-11.41-10.54-19.6-16.71-14.84-3.43,2.65-3,8.89-4.23,13.7-3.29,13-18,13.75-22.07,1.06-1-3.27-1.14-6.9-2-10.27-1.66-6.85-6.7-12.34-12.39-13s-11.61,3.9-13.39,10.7c-1.35,5.16-.48,11.17-4.06,15.3-3.12,3.6-8.07,3.86-11.33.48s-3.74-9-5.24-13.76c-1.38-4.41-4.77-8.81-8.4-7.5-6.55,7.19.14,24.23-7.91,29.71-2,1.4-8.83,3-14-.14-9.21-5.59,1.28-13.84-9.94-19.32a5,5,0,0,0-5.22.37c-6.67,4.76-4.73,19.73-12.58,23.08a7.16,7.16,0,0,1-7-1c-8.15-5.78-9.75-24.8-5.13-35.25C28.51,93.86,32,88.74,36.64,86.83,118.8,52.77,208.15,77.67,221.17,91.17Z"/><path class="cls-8" d="M247.6,191.66c10.89,10.69,9,36.74,10.54,56.46.48,6.25.74,13-1.21,18.35s-7,7.76-9.61,3.11c-2.16-3.88-1.51-9.86-1.33-15.08.27-7.53-1.13-16-5-20s-10.28-.2-10.25,7.36c0,5.23,2.85,10.23,1.86,15.16-1.08,5.36-6.08,5.49-8.58,1.51s-3.16-10-3.79-15.65-1.53-11.7-4.27-15.21c-3.89-5-9.57-2.34-13.56,2.18s-7.38,10.77-12,13.28c-5.42,3-11.93-.37-15.51-7.92-1.69-3.56-2.72-7.82-4-11.85-1.78-5.71-4.24-11.28-7.8-13.79s-8.38-.76-9.91,5.05c-1.31,5,.1,10.73.42,16.18s-.7,11.65-3.35,15.06-7,3.19-9.1-1.3-1.3-10.48-1.53-15.94c-.5-11.92-7.05-22.84-14.24-22.6S112,218.8,113.94,230.37c.74,4.48,2.45,8.37,3.59,12.63s1.62,9.57,0,13.26a6.48,6.48,0,0,1-5.19,4.09c-4.06.47-8.23-3-10.44-8.77-1.49-3.84-2.1-8.4-2.8-12.8-1.14-7.11-2.72-14.36-5.88-19.57s-8.28-7.79-12.11-4.26c-2.87,2.63-4.41,8-5.37,13.16-2.47,13.39-2.79,29.65-9.62,37.8-1.11,1.32-2.43,2.37-3.8,2.14-2.41-.4-4-4.56-4.47-8.51s-.12-8.05-.62-12c-.78-6.18-3.72-11.55-7.36-13.45s-7.84-.25-10.51,4.13c-5.9,9.65-4.25,29.58-11.88,35-1.13.81-2.46,1.16-3.6.3-3.49-2.65-1.91-12.92-5.17-16.29-4.46-4.61-10,10.21-14.25,5.17-1.16-1.37-1.66-3.79-2-6.06C-.51,239.66-1.44,221,3.47,205.84c3.36-10.33,8.93-18.59,15.38-23.49C62.76,148.9,215.9,160.54,247.6,191.66Z"/><path class="cls-9" d="M221.17,85.78c6,8.08,8.29,16.53,8.54,27.55.27,12-4.52,17-8.83,17-3.51,0-6.12-10.07-8.33-13.56-3.06-4.83-8.59-5.6-12.57-2-1.89,1.71-3.63,10.33-5.74,11.57-1.37.81-2.93,1.52-4.37.91-4.27-1.82-2.26-10.23-2.13-12.84.56-11.41-10.54-19.6-16.71-14.85-3.43,2.65-3,8.9-4.23,13.71-3.29,13-18,13.74-22.07,1.06-1-3.27-1.14-6.9-2-10.28-1.66-6.84-6.7-12.33-12.39-13S118.77,95,117,101.84c-1.35,5.15-.48,11.16-4.06,15.3-3.12,3.59-8.07,3.86-11.33.47s-3.74-9-5.24-13.76C95,99.45,91.59,95,88,96.36c-6.55,7.18.14,24.22-7.91,29.71-2,1.39-8.83,3-14-.14-9.21-5.59,1.28-13.85-9.94-19.33a5,5,0,0,0-5.22.37c-6.67,4.77-4.73,19.74-12.58,23.08a7.14,7.14,0,0,1-7-1c-8.15-5.77-9.75-24.79-5.13-35.24C28.51,88.47,32,83.35,36.64,81.43,118.8,47.37,208.15,72.27,221.17,85.78Z"/><path class="cls-10" d="M247.6,182.33c10.89,10.69,9,36.74,10.54,56.46.48,6.25.74,13-1.21,18.35s-7,7.76-9.61,3.11c-2.16-3.87-1.51-9.86-1.33-15.07.27-7.54-1.13-16-5-20s-10.28-.2-10.25,7.36c0,5.23,2.85,10.23,1.86,15.16-1.08,5.36-6.08,5.49-8.58,1.52s-3.16-10.05-3.79-15.66-1.53-11.7-4.27-15.2c-3.89-5-9.57-2.35-13.56,2.17s-7.38,10.77-12,13.28c-5.42,3-11.93-.36-15.51-7.92-1.69-3.56-2.72-7.82-4-11.84-1.78-5.71-4.24-11.29-7.8-13.8s-8.38-.75-9.91,5c-1.31,5,.1,10.73.42,16.19s-.7,11.64-3.35,15.05-7,3.19-9.1-1.3-1.3-10.48-1.53-15.93c-.5-11.93-7.05-22.85-14.24-22.61S112,209.47,113.94,221c.74,4.49,2.45,8.37,3.59,12.63s1.62,9.57,0,13.26a6.48,6.48,0,0,1-5.19,4.09c-4.06.47-8.23-3-10.44-8.76-1.49-3.85-2.1-8.41-2.8-12.81-1.14-7.11-2.72-14.35-5.88-19.57s-8.28-7.79-12.11-4.26c-2.87,2.64-4.41,7.95-5.37,13.16-2.47,13.39-2.79,29.66-9.62,37.8-1.11,1.32-2.43,2.37-3.8,2.14-2.41-.4-4-4.56-4.47-8.51s-.12-8.05-.62-12c-.78-6.18-3.72-11.55-7.36-13.44s-7.84-.26-10.51,4.12c-5.9,9.65-4.25,29.58-11.88,35-1.13.81-2.46,1.16-3.6.3-3.49-2.65-1.91-12.92-5.17-16.29-4.46-4.6-10,10.21-14.25,5.17-1.16-1.37-1.66-3.79-2-6.06-2.89-16.72-3.82-35.43,1.09-50.54C6.83,186.18,12.4,177.92,18.85,173,62.76,139.57,215.9,151.22,247.6,182.33Z"/><path class="cls-11" d="M26.67,175.26c0,3.09,44.13-8.07,98.57-8.07s98.57,11.16,98.57,8.07-44.13-16.8-98.57-16.8S26.67,172.17,26.67,175.26Z"/><path class="cls-9" d="M171.9,146.12a2.87,2.87,0,1,0,2.87-2.87A2.86,2.86,0,0,0,171.9,146.12Z"/><path class="cls-9" d="M47.52,136a2.87,2.87,0,1,0,2.87-2.87A2.87,2.87,0,0,0,47.52,136Z"/><path class="cls-9" d="M138.89,137.51a2.87,2.87,0,1,0,2.87-2.87A2.86,2.86,0,0,0,138.89,137.51Z"/><path class="cls-9" d="M202.75,134.73a2.87,2.87,0,1,0,2.87-2.87A2.87,2.87,0,0,0,202.75,134.73Z"/><path class="cls-9" d="M74.23,143.25a2.87,2.87,0,1,0,2.87-2.87A2.87,2.87,0,0,0,74.23,143.25Z"/><path class="cls-4" d="M107.32,140.38a2.87,2.87,0,1,0,2.87-2.87A2.86,2.86,0,0,0,107.32,140.38Z"/><circle class="cls-4" cx="90.57" cy="133.18" r="1.55"/><path class="cls-4" d="M51.7,149.83a1.56,1.56,0,1,0,1.56-1.56A1.55,1.55,0,0,0,51.7,149.83Z"/><path class="cls-4" d="M127.69,119.54a1.56,1.56,0,1,0,1.55-1.56A1.55,1.55,0,0,0,127.69,119.54Z"/><path class="cls-4" d="M193.54,151.38a1.56,1.56,0,1,0,1.56-1.55A1.56,1.56,0,0,0,193.54,151.38Z"/><path class="cls-4" d="M169,128.75a2.87,2.87,0,1,0,2.87-2.87A2.86,2.86,0,0,0,169,128.75Z"/><path class="cls-10" d="M184.94,295.94a3.72,3.72,0,1,0,3.72-3.72A3.71,3.71,0,0,0,184.94,295.94Z"/><path class="cls-10" d="M23.6,282.76A3.73,3.73,0,1,0,27.33,279,3.73,3.73,0,0,0,23.6,282.76Z"/><path class="cls-4" d="M145.84,282.76a3.73,3.73,0,1,0,3.73-3.73A3.73,3.73,0,0,0,145.84,282.76Z"/><path class="cls-10" d="M225,281.16a3.73,3.73,0,1,0,3.72-3.72A3.73,3.73,0,0,0,225,281.16Z"/><path class="cls-4" d="M47.37,290.36A5.59,5.59,0,1,0,53,284.77,5.58,5.58,0,0,0,47.37,290.36Z"/><path class="cls-10" d="M101.17,288.49a3.72,3.72,0,1,0,3.72-3.72A3.72,3.72,0,0,0,101.17,288.49Z"/><path class="cls-10" d="M77.43,279.15a2,2,0,1,0,2-2A2,2,0,0,0,77.43,279.15Z"/><path class="cls-10" d="M29,300.75a2,2,0,1,0,2-2A2,2,0,0,0,29,300.75Z"/><path class="cls-10" d="M127.59,261.45a2,2,0,1,0,2-2A2,2,0,0,0,127.59,261.45Z"/><circle class="cls-10" cx="133.64" cy="306.8" r="2.02"/><path class="cls-10" d="M213,302.77a2,2,0,1,0,2-2A2,2,0,0,0,213,302.77Z"/><path class="cls-10" d="M79.45,308.82a2,2,0,1,0,2-2A2,2,0,0,0,79.45,308.82Z"/><path class="cls-10" d="M167,247.52a2,2,0,1,0,2-2A2,2,0,0,0,167,247.52Z"/><path class="cls-4" d="M192.93,267.19a3.72,3.72,0,1,0,3.72-3.72A3.73,3.73,0,0,0,192.93,267.19Z"/><path class="cls-12" d="M59.32,80.05c0,2.82,30-6.38,67-6.38s67,9.2,67,6.38-30-13.51-67-13.51S59.32,77.23,59.32,80.05Z"/><path class="cls-12" d="M40.8,86.76c.38,1,4,.66,8-.82s7-3.53,6.61-4.56-3.95-.66-8,.82S40.42,85.73,40.8,86.76Z"/></g></svg>