<svg xmlns="http://www.w3.org/2000/svg" viewBox="0 0 115.16 118.42"><defs><style>.cls-1{isolation:isolate;}.cls-2{fill:#dfd4b5;}.cls-10,.cls-3{fill:#fff;}.cls-4{fill:#faa332;}.cls-5{fill:#5dd0cb;}.cls-6{fill:#7bdbd4;}.cls-7{fill:#ffa133;}.cls-8{fill:#ee353a;}.cls-9{fill:#87402c;}.cls-10{opacity:0.5;mix-blend-mode:overlay;}.cls-11{fill:#c8c8c8;mix-blend-mode:multiply;}</style></defs><title>Cake icon</title><g class="cls-1"><g id="OBJECTS"><path class="cls-2" d="M96.77,41h-.1V26.26a7,7,0,0,0-.55-2.7c1.77-4.43.43-10.88-4-19.21a6.1,6.1,0,0,0-10.76,0c-4.44,8.32-5.78,14.77-4,19.2a6.79,6.79,0,0,0-.55,2.7V41h-8V26.26a6.79,6.79,0,0,0-.55-2.7c1.77-4.43.43-10.88-4-19.2a6.1,6.1,0,0,0-10.76,0c-4.44,8.32-5.78,14.77-4,19.2a6.79,6.79,0,0,0-.55,2.7V41h-8V26.26a6.79,6.79,0,0,0-.55-2.7c1.77-4.43.43-10.88-4-19.21a6.1,6.1,0,0,0-10.76,0c-4.44,8.32-5.78,14.77-4,19.2a6.79,6.79,0,0,0-.55,2.7V41h-.1A18.41,18.41,0,0,0,2.49,59.37V72a10.84,10.84,0,0,0,2.17,6.54v26.73a13.13,13.13,0,0,0,3,8.34,13,13,0,0,0,1.78,1.77,13,13,0,0,0,8.33,3H99.88A13.12,13.12,0,0,0,113,105.31V78.69a10.47,10.47,0,0,0,2.17-6.42V59.37A18.41,18.41,0,0,0,96.77,41Z"/><path class="cls-3" d="M94.28,39.85h-.1V25.13a6.92,6.92,0,0,0-.54-2.7c1.76-4.43.42-10.88-4-19.21a6.1,6.1,0,0,0-10.76,0c-4.45,8.32-5.79,14.77-4,19.2a6.93,6.93,0,0,0-.55,2.7V39.85h-8V25.13a6.92,6.92,0,0,0-.54-2.7c1.76-4.43.42-10.88-4-19.2A6.1,6.1,0,0,0,51,3.23c-4.45,8.32-5.79,14.77-4,19.2a6.93,6.93,0,0,0-.55,2.7V39.85h-8V25.13a6.92,6.92,0,0,0-.54-2.7c1.76-4.43.42-10.88-4-19.21a6.1,6.1,0,0,0-10.76,0c-4.45,8.32-5.79,14.76-4,19.2a6.93,6.93,0,0,0-.55,2.7V39.85h-.1A18.41,18.41,0,0,0,0,58.24V70.91a10.84,10.84,0,0,0,2.17,6.54v26.73a13.08,13.08,0,0,0,3,8.34A13.11,13.11,0,0,0,9,115.7a13.1,13.1,0,0,0,6.25,1.59H97.4a13.12,13.12,0,0,0,13.1-13.11V77.56a10.47,10.47,0,0,0,2.17-6.42V58.24A18.41,18.41,0,0,0,94.28,39.85Z"/><path class="cls-4" d="M90.24,45.82H22.44A15.27,15.27,0,0,0,7.17,61.08v43.1a8.11,8.11,0,0,0,8.11,8.11H97.4a8.11,8.11,0,0,0,8.1-8.11V61.08A15.26,15.26,0,0,0,90.24,45.82Z"/><path class="cls-5" d="M31.44,23.19h-6a1.94,1.94,0,0,0-1.94,1.94V52.66h9.89V25.13A1.94,1.94,0,0,0,31.44,23.19Z"/><polygon class="cls-6" points="33.38 29.84 23.49 33.87 23.49 29.25 33.38 25.22 33.38 29.84"/><polygon class="cls-6" points="33.38 40.12 23.49 44.14 23.49 39.52 33.38 35.49 33.38 40.12"/><polygon class="cls-6" points="33.38 50.52 23.49 54.55 23.49 49.92 33.38 45.9 33.38 50.52"/><path class="cls-7" d="M29.41,5.58a1.1,1.1,0,0,0-1.94,0c-2.54,4.75-8.53,17.61,1,17.61S31.94,10.33,29.41,5.58Z"/><path class="cls-5" d="M59.34,23.19h-6a1.94,1.94,0,0,0-1.94,1.94V52.66h9.89V25.13A1.94,1.94,0,0,0,59.34,23.19Z"/><polygon class="cls-6" points="61.28 29.84 51.39 33.87 51.39 29.25 61.28 25.22 61.28 29.84"/><polygon class="cls-6" points="61.28 40.12 51.39 44.14 51.39 39.52 61.28 35.49 61.28 40.12"/><polygon class="cls-6" points="61.28 50.52 51.39 54.55 51.39 49.92 61.28 45.9 61.28 50.52"/><path class="cls-7" d="M57.31,5.58a1.1,1.1,0,0,0-1.94,0c-2.54,4.75-8.53,17.61,1,17.61S59.84,10.33,57.31,5.58Z"/><path class="cls-5" d="M87.24,23.19h-6a1.94,1.94,0,0,0-1.94,1.94V52.66h9.89V25.13A1.94,1.94,0,0,0,87.24,23.19Z"/><polygon class="cls-6" points="89.18 29.84 79.29 33.87 79.29 29.25 89.18 25.22 89.18 29.84"/><polygon class="cls-6" points="89.18 40.12 79.29 44.14 79.29 39.52 89.18 35.49 89.18 40.12"/><polygon class="cls-6" points="89.18 50.52 79.29 54.55 79.29 49.92 89.18 45.9 89.18 50.52"/><path class="cls-7" d="M85.21,5.58a1.1,1.1,0,0,0-1.94,0c-2.54,4.75-8.53,17.61,1,17.61S87.74,10.33,85.21,5.58Z"/><path class="cls-8" d="M94.28,44.85H18.39A13.4,13.4,0,0,0,5,58.24V70.91a5.72,5.72,0,0,0,5.38,5.79,5.56,5.56,0,0,0,5.73-5.56V62.9a5.7,5.7,0,0,1,5.38-5.78,5.56,5.56,0,0,1,5.73,5.55v6.74A9.54,9.54,0,0,0,35.92,79a9.33,9.33,0,0,0,9.95-9.3V59.65a4.81,4.81,0,0,1,4.22-4.86,4.68,4.68,0,0,1,5.14,4.66V85.34a4.08,4.08,0,0,0,3.59,4.12,4,4,0,0,0,4.36-3.95v-23a4.09,4.09,0,0,1,3.58-4.13,4,4,0,0,1,4.36,4v1.21h0v5.82A9.54,9.54,0,0,0,79.83,79a9.32,9.32,0,0,0,10-9.3V60a3.39,3.39,0,0,1,6.78,0V70.91A5.73,5.73,0,0,0,102,76.7a5.56,5.56,0,0,0,5.72-5.56V58.24A13.39,13.39,0,0,0,94.28,44.85Z"/><path class="cls-9" d="M7.17,104.18a8.11,8.11,0,0,0,8.11,8.11H97.4a8.11,8.11,0,0,0,8.1-8.11V98.59H7.17Z"/><path class="cls-10" d="M18.33,53.68a4.82,4.82,0,1,1-4.82-4.81A4.81,4.81,0,0,1,18.33,53.68Z"/><path class="cls-10" d="M24.49,48.89a1.95,1.95,0,1,1-1.95-2A1.95,1.95,0,0,1,24.49,48.89Z"/><rect class="cls-11" x="7.17" y="95.32" width="98.33" height="3.27"/></g></g></svg>