<svg xmlns="http://www.w3.org/2000/svg" viewBox="0 0 430 360"><defs><style>.cls-1{fill:#e3e3e3;}.cls-2{fill:#ee5b7d;}.cls-3{fill:#dd5478;}.cls-4{fill:#fff;}.cls-5{fill:#ff6763;}.cls-6{fill:#694dc1;}.cls-10,.cls-7{fill:none;stroke-linecap:round;stroke-linejoin:round;}.cls-7{stroke:#fff;stroke-width:3.53px;}.cls-8{fill:#f5f5f5;}.cls-9{opacity:0.32;}.cls-10{stroke:#fa614f;stroke-width:2.65px;}</style></defs><title>Clock</title><g id="OBJECTS"><path class="cls-1" d="M172.68,37.6a21.49,21.49,0,0,0-42.55,0Z"/><path class="cls-1" d="M196.06,37.6a21.49,21.49,0,1,0-38.68,0Z"/><path class="cls-1" d="M225.37,37.6a21.49,21.49,0,0,0-41.85,0Z"/><rect class="cls-2" x="286.68" y="101.45" width="7.28" height="44.73" transform="translate(133.55 -150.11) rotate(37.12)"/><path class="cls-3" d="M327.58,144.22l-.39.49L259.27,94.13c.13-.17.24-.33.36-.5l0,0c14-18.74,35-25.31,59.23-8.63.6.41,1.18.81,1.74,1.24C343.79,103.24,341.21,125.9,327.58,144.22Z"/><path class="cls-2" d="M320.72,138.29c-.13.16-.27.31-.39.48L259.66,93.59c14-18.74,35-25.31,59.23-8.63.6.41,1.18.81,1.74,1.24C336.21,102.34,332.83,122,320.72,138.29Z"/><path class="cls-4" d="M267.29,95.47c6.37-6.72,12.2-10.68,21.49-12.39,2.79-.52,1.61-4.77-1.17-4.26-10,1.85-16.57,6.28-23.44,13.53-2,2.06,1.16,5.19,3.12,3.12Z"/><path class="cls-4" d="M294.78,81.93c2.84,0,2.85-4.41,0-4.41s-2.84,4.41,0,4.41Z"/><path class="cls-3" d="M168.62,94.58l-59.35,44.19-8.57,6.39-.39-.48C86.35,125.91,84,102.59,109,85.41a61.17,61.17,0,0,1,11.24-6.19c19.49-8.11,36.26-.93,48,14.87C168.39,94.25,168.5,94.42,168.62,94.58Z"/><path class="cls-2" d="M168.62,94.58l-59.35,44.19c-13.43-18.61-15.35-41.49,9.28-58.42l1.69-1.13c19.49-8.11,36.26-.93,48,14.87C168.39,94.25,168.5,94.42,168.62,94.58Z"/><path class="cls-4" d="M161.87,93c-6.78-7.15-13.16-11.46-23-13.29-1.57-.29-2.25,2.12-.66,2.41,9.43,1.75,15.44,5.82,21.92,12.65,1.11,1.17,2.87-.6,1.76-1.77Z"/><path class="cls-4" d="M131.93,81.93c2.84,0,2.85-4.41,0-4.41s-2.84,4.41,0,4.41Z"/><rect class="cls-2" x="137.07" y="101.45" width="7.28" height="44.73" transform="translate(327.64 137.64) rotate(142.88)"/><circle class="cls-5" cx="215" cy="235.75" r="124.25"/><rect class="cls-6" x="200.76" y="96.43" width="28.48" height="28.48" rx="11.58"/><path class="cls-6" d="M339.24,235.75A124.25,124.25,0,1,1,215,111.51,123.77,123.77,0,0,1,339.24,235.75Z"/><path class="cls-7" d="M108,286.05a117.69,117.69,0,0,1-11.2-50.3"/><path class="cls-7" d="M333.2,235.75a119.08,119.08,0,0,1-1.13,16.45,117.58,117.58,0,0,1-15.8,44.56"/><path class="cls-7" d="M135.38,148.38A117.78,117.78,0,0,1,215,117.55"/><path class="cls-8" d="M320,235.75a104.91,104.91,0,1,1-48.07-88.25A105,105,0,0,1,320,235.75Z"/><path class="cls-4" d="M313.55,229.56c0,53.93-43.1,97.62-96.27,97.62S121,283.49,121,229.56,164.11,132,217.28,132a94.84,94.84,0,0,1,52.19,15.56A97.92,97.92,0,0,1,313.55,229.56Z"/><g class="cls-9"><path class="cls-2" d="M271.92,147.5l-7.47,11.58L260,166l-45,69.71v-105A104.63,104.63,0,0,1,271.92,147.5Z"/></g><path class="cls-6" d="M219.22,148.55a4.22,4.22,0,1,1-4.22-4.22A4.22,4.22,0,0,1,219.22,148.55Z"/><circle class="cls-6" cx="261.5" cy="162.09" r="4.22"/><path class="cls-6" d="M296.69,195a4.23,4.23,0,1,1-4.23-4.22A4.23,4.23,0,0,1,296.69,195Z"/><path class="cls-6" d="M307.06,238.43a4.23,4.23,0,1,1-4.23-4.23A4.22,4.22,0,0,1,307.06,238.43Z"/><path class="cls-6" d="M293.86,281.82a4.23,4.23,0,1,1-4.22-4.22A4.22,4.22,0,0,1,293.86,281.82Z"/><circle class="cls-6" cx="256.73" cy="312.66" r="4.22"/><path class="cls-6" d="M164.28,162.09a4.22,4.22,0,1,0,4.22-4.22A4.23,4.23,0,0,0,164.28,162.09Z"/><path class="cls-6" d="M133.32,195a4.22,4.22,0,1,0,4.22-4.22A4.22,4.22,0,0,0,133.32,195Z"/><circle class="cls-6" cx="127.17" cy="238.43" r="4.22"/><path class="cls-6" d="M136.14,281.82a4.23,4.23,0,1,0,4.22-4.22A4.22,4.22,0,0,0,136.14,281.82Z"/><path class="cls-6" d="M169.05,312.66a4.23,4.23,0,1,0,4.23-4.23A4.22,4.22,0,0,0,169.05,312.66Z"/><circle class="cls-6" cx="215" cy="322.96" r="4.22"/><circle class="cls-2" cx="215" cy="235.75" r="8.72"/><path class="cls-1" d="M117.3,360a45.7,45.7,0,0,0-90.51,0Z"/><path class="cls-1" d="M167,360a45.72,45.72,0,1,0-82.29,0Z"/><path class="cls-1" d="M229.39,360a45.7,45.7,0,0,0-89,0Z"/><path class="cls-1" d="M291.12,360a45.7,45.7,0,0,0-90.51,0Z"/><path class="cls-1" d="M340.87,360a45.71,45.71,0,1,0-82.3,0Z"/><path class="cls-1" d="M403.21,360a45.7,45.7,0,0,0-89,0Z"/><path class="cls-2" d="M183.94,260.2v34.16H176V266.55H169.2V260.2Z"/><path class="cls-2" d="M224.88,260.2v34.16H217v-14H201.46v14h-7.91V260.2h7.91v13.47H217V260.2Z"/><path class="cls-2" d="M256.7,280.26h-8.49v8.3h-6.29v-8.3h-8.45v-5.95h8.45V266h6.29v8.3h8.49Z"/><polyline class="cls-10" points="215.24 162.09 215.24 234.2 255.41 173.11"/></g></svg>