<svg xmlns="http://www.w3.org/2000/svg" viewBox="0 0 352.91 171.15"><defs><style>.cls-1{isolation:isolate;}.cls-2{fill:#822e4f;}.cls-3{fill:#ee5b7d;}.cls-4{opacity:0.3;mix-blend-mode:overlay;}.cls-5{fill:#ffffe7;}.cls-6{fill:#0cbad2;}.cls-7{fill:#ffac00;}.cls-8{fill:#793291;}</style></defs><title>triangle shape</title><g class="cls-1"><g id="OBJECTS"><path class="cls-2" d="M317.46,134q17.82,0,35.45-1.49l-.15-1.8C223.42,141.68,92,92.82,1.29,0L0,1.26c44.47,45.5,100.49,81.63,162,104.5A448,448,0,0,0,317.46,134Z"/><path class="cls-3" d="M272.24,130.76,243.07,169.7a3.62,3.62,0,0,1-6.36-1.13l-14-46.6a3.62,3.62,0,0,1,4.1-4.6L270,125A3.61,3.61,0,0,1,272.24,130.76Z"/><g class="cls-4"><polygon class="cls-5" points="260.44 123.33 266.89 137.91 265.02 140.39 257.22 122.76 260.44 123.33"/><path class="cls-5" d="M253.46,136.53c-2.31-5.1-4.68-10.33-6.82-15.64l3.16.56c1.95,4.72,4.06,9.39,6.13,14l4.83,10.68-1.86,2.47Z"/><path class="cls-5" d="M241.37,120a318.06,318.06,0,0,0,12.76,35l-1.86,2.48a321.64,321.64,0,0,1-13.9-38Z"/><path class="cls-5" d="M227.17,117.43l3.08.55c5.51,15.11,11.51,30.14,17.91,44.93l-1.87,2.5C239.43,149.64,233,133.57,227.17,117.43Z"/></g><path class="cls-6" d="M214.9,121.27l-32.73,36a3.62,3.62,0,0,1-6.23-1.73l-9.51-47.7a3.62,3.62,0,0,1,4.52-4.2l42.24,11.72A3.62,3.62,0,0,1,214.9,121.27Z"/><g class="cls-4"><polygon class="cls-5" points="203.85 112.76 208.89 127.88 206.8 130.18 200.7 111.88 203.85 112.76"/><path class="cls-5" d="M195.65,125.23c-1.81-5.3-3.67-10.73-5.3-16.22l3.09.86c1.5,4.89,3.15,9.74,4.78,14.48l3.8,11.09-2.09,2.29Z"/><path class="cls-5" d="M185.19,107.58a318,318,0,0,0,9.39,36l-2.09,2.29a320.45,320.45,0,0,1-10.24-39.15Z"/><path class="cls-5" d="M171.3,103.73l3,.83c4.06,15.56,8.6,31.1,13.57,46.43l-2.1,2.31C180.44,137,175.59,120.35,171.3,103.73Z"/></g><path class="cls-7" d="M158.08,104.63l-36.91,31.68a3.62,3.62,0,0,1-6-2.48l-3.56-48.52a3.62,3.62,0,0,1,5-3.61l40.47,16.83A3.62,3.62,0,0,1,158.08,104.63Z"/><g class="cls-4"><polygon class="cls-5" points="148.17 94.82 151.31 110.44 148.95 112.46 145.15 93.56 148.17 94.82"/><path class="cls-5" d="M138.5,106.18c-1.15-5.48-2.33-11.1-3.27-16.75l3,1.24c.88,5,1.92,10,3,15l2.41,11.48-2.35,2Z"/><path class="cls-5" d="M130.29,87.38a318.82,318.82,0,0,0,4.87,36.92l-2.35,2a320.79,320.79,0,0,1-5.33-40.11Z"/><path class="cls-5" d="M117,81.84l2.89,1.2c2.1,15.95,4.7,31.93,7.74,47.75l-2.37,2C122,115.94,119.19,98.86,117,81.84Z"/></g><path class="cls-8" d="M108.07,80.05,68,107.64a3.62,3.62,0,0,1-5.67-3.1l1.61-48.62a3.62,3.62,0,0,1,5.35-3.06l38.46,21A3.62,3.62,0,0,1,108.07,80.05Z"/><g class="cls-4"><polygon class="cls-5" points="99.25 69.24 100.72 85.11 98.16 86.87 96.39 67.67 99.25 69.24"/><path class="cls-5" d="M88.43,79.52c-.56-5.57-1.14-11.28-1.47-17l2.81,1.54c.35,5.1.86,10.2,1.36,15.18L92.3,90.91l-2.55,1.75Z"/><path class="cls-5" d="M82.26,60a319.1,319.1,0,0,0,.93,37.23l-2.55,1.76a319.45,319.45,0,0,1-1-40.45Z"/><path class="cls-5" d="M69.61,53l2.75,1.5c.4,16.08,1.28,32.25,2.63,48.3l-2.57,1.77C71,87.46,70,70.2,69.61,53Z"/></g></g></g></svg>