<svg xmlns="http://www.w3.org/2000/svg" viewBox="0 0 430 360"><defs><style>.cls-1{fill:#694dc1;}.cls-2{fill:#e3e3e3;}.cls-3{fill:none;stroke:#205776;stroke-linecap:round;stroke-linejoin:round;stroke-width:1.3px;}.cls-4{fill:#ee5b7d;}.cls-5{fill:#fcb798;}.cls-6{opacity:0.42;}.cls-7{fill:#fff;}.cls-8{fill:#dd5478;}</style></defs><title>Waiting</title><g id="OBJECTS"><path class="cls-1" d="M347.35,200.3a27.37,27.37,0,0,0-2.83,2,58.37,58.37,0,0,1-7,4.25c-12.77,6.54-27.7,8.86-41.93,7.77a23,23,0,0,1-8.29-1.82c-5.41-2.6-7-9-7.12-14.9l.14.61,34.58-15.1h0c3.41-.32,6.9-.6,10.36-.85Z"/><path class="cls-2" d="M126.66,60.11a30.81,30.81,0,0,0-61,0Z"/><path class="cls-2" d="M160.19,60.11a30.82,30.82,0,1,0-55.47,0Z"/><path class="cls-2" d="M202.22,60.11a30.81,30.81,0,0,0-60,0Z"/><path class="cls-2" d="M105,360a23.78,23.78,0,0,0-47.09,0Z"/><path class="cls-2" d="M130.83,360A23.78,23.78,0,1,0,88,360Z"/><path class="cls-2" d="M163.27,360A23.78,23.78,0,0,0,117,360Z"/><path class="cls-3" d="M155,130s11.35-1.31,14.61,7.13c0,0,.59-10,12.07-11"/><path class="cls-3" d="M120.28,122.08s7.39-.75,9.24,4c0,0,0-6.31,5.9-6.31"/><path class="cls-3" d="M102.77,147.17s7.56-1,9.09,4.78c0,0-1.29-5.1,6-5.74"/><path class="cls-4" d="M133.8,220.45c-.19-1.4-.92-2.11-2.2-2.11l-4.06,0h-.42a2.34,2.34,0,0,1-1.68-.66,2.37,2.37,0,0,1,0-3.32,2.34,2.34,0,0,1,1.68-.66h4.48a6.84,6.84,0,0,1,4.61,1.53,7.34,7.34,0,0,1,9.4.36,7,7,0,0,1,1.84,5.09l0,10.48a1.24,1.24,0,0,1,0,.33,2.22,2.22,0,0,1-.68,1.66,2.31,2.31,0,0,1-1.68.67,2.28,2.28,0,0,1-1.68-.67,2.21,2.21,0,0,1-.69-1.66,1.86,1.86,0,0,1,0-.33V220.63a2.37,2.37,0,0,0-.61-1.64,2,2,0,0,0-1.56-.69,2,2,0,0,0-1.52.69,2.38,2.38,0,0,0-.62,1.64v6.74a6,6,0,0,1-2,4.64,7,7,0,0,1-4.88,1.77h-4.48a2.37,2.37,0,0,1-1.68-.65,2.19,2.19,0,0,1-.68-1.65,2.35,2.35,0,0,1,.68-1.7,2.29,2.29,0,0,1,1.68-.69h4.48a2.07,2.07,0,0,0,1.52-.6,2.33,2.33,0,0,0,.68-1.51Z"/><path class="cls-4" d="M156.46,231.41a2.24,2.24,0,0,1-.68,1.66,2.33,2.33,0,0,1-1.67.67,2.29,2.29,0,0,1-1.66-.67,2.22,2.22,0,0,1-.68-1.67V220.56a2.4,2.4,0,0,0-.62-1.65,2,2,0,0,0-1.56-.69,2.22,2.22,0,0,0-1.81,1.06,1.73,1.73,0,0,0-.29.88l0,.68V221a2.28,2.28,0,0,1-2.49,1.82,2.59,2.59,0,0,1-1.49-.57,1.33,1.33,0,0,1-.71-1.23l.05-.37.16-.88a7.9,7.9,0,0,1,2.39-4.31,6.12,6.12,0,0,1,4.37-1.86,6.42,6.42,0,0,1,4.9,1.94,7,7,0,0,1,1.83,5v10.81Z"/><path class="cls-4" d="M167.57,225.65a3.59,3.59,0,0,1,2.53,1,4.11,4.11,0,0,1,1.29,2.47,6.2,6.2,0,0,1,0,2.28v.09a2.14,2.14,0,0,1-.68,1.63,2.33,2.33,0,0,1-1.64.65h-4.52a6.65,6.65,0,0,1-5-1.91,7,7,0,0,1-1.87-5.08v-6.15a6.94,6.94,0,0,1,1.85-5.07,6.59,6.59,0,0,1,5-1.91h4.52a2.3,2.3,0,0,1,2.32,2.3,2.22,2.22,0,0,1-.66,1.64,2.28,2.28,0,0,1-1.66.66h-.46l-4.06,0a2.19,2.19,0,0,0-1.54.62,2,2,0,0,0-.66,1.5q0,6.39,0,6.55a2.39,2.39,0,0,0,.58,1.37,6.2,6.2,0,0,1,1.8-2A4.64,4.64,0,0,1,167.57,225.65Zm-3,3.44h2.32a1.49,1.49,0,0,0-.66-1.12,2.31,2.31,0,0,0-1-.21,2.79,2.79,0,0,0-1.95,1A2.19,2.19,0,0,0,164.55,229.09Z"/><path class="cls-4" d="M178.63,232.11l-.89,1.42-1.54.21a5,5,0,0,1-1.95-.05,2.15,2.15,0,0,1-1.82-2.28V220.6a6.91,6.91,0,0,1,1.94-5,6.53,6.53,0,0,1,4.9-2,6.7,6.7,0,0,1,5,1.9,7,7,0,0,1,1.84,5.11v6.18a2.44,2.44,0,0,0,.58,1.64,1.88,1.88,0,0,0,1.52.69,2,2,0,0,0,1.56-.69,2.37,2.37,0,0,0,.61-1.64V216a2.26,2.26,0,0,1,.68-1.67,2.31,2.31,0,0,1,1.67-.67,2.29,2.29,0,0,1,1.66.67,2.2,2.2,0,0,1,.68,1.66v10.81a7,7,0,0,1-1.84,5.09,6.64,6.64,0,0,1-5,1.9,6.46,6.46,0,0,1-4.9-2,7,7,0,0,1-1.91-5v-6.17a2.36,2.36,0,0,0-.63-1.65,2,2,0,0,0-1.59-.69,1.94,1.94,0,0,0-1.55.69,2.46,2.46,0,0,0-.58,1.65v4.08q2.4.75,2.4,4.13A6.11,6.11,0,0,1,178.63,232.11ZM177.12,229c.16,0,.38-.22.66-.58a3.24,3.24,0,0,0,.29-1.28,2.78,2.78,0,0,0-.95-2.12Z"/><path class="cls-4" d="M201.8,218.55c0,1.86-.9,2.78-2.72,2.78a2.5,2.5,0,0,1-2-.85,3,3,0,0,1-.76-2V217a.35.35,0,0,1,0-.17,2.7,2.7,0,0,1,.76-1.95,2.58,2.58,0,0,1,1.91-.79c1.82,0,2.72.93,2.72,2.78Zm0,12c0,1.86-.9,2.78-2.72,2.78a2.5,2.5,0,0,1-2-.85,2.94,2.94,0,0,1-.76-2v-1.41a.35.35,0,0,1,0-.17,2.7,2.7,0,0,1,.76-1.95,2.58,2.58,0,0,1,1.91-.79c1.82,0,2.72.93,2.72,2.78Zm-2.7-14c-.19,0-.29.11-.29.33v1.66c0,.22.1.33.29.33s.23-.09.25-.29v-1.74C199.33,216.66,199.25,216.56,199.1,216.56Zm0,12c-.19,0-.29.11-.29.33v1.66c0,.22.1.33.29.33s.23-.09.25-.29v-1.74C199.33,228.69,199.25,228.59,199.1,228.59Z"/><path class="cls-4" d="M209.25,232.11c-.6.94-.89,1.42-.89,1.42l-1.54.21a5,5,0,0,1-1.95-.05,2.14,2.14,0,0,1-1.82-2.28V220.6a6.87,6.87,0,0,1,1.94-5,6.53,6.53,0,0,1,4.9-2,6.72,6.72,0,0,1,5.05,1.9,7,7,0,0,1,1.84,5.11v6.18a2.48,2.48,0,0,0,.57,1.64,1.9,1.9,0,0,0,1.53.69,2,2,0,0,0,1.56-.69,2.37,2.37,0,0,0,.61-1.64V216a2.26,2.26,0,0,1,.68-1.67,2.31,2.31,0,0,1,1.67-.67,2.29,2.29,0,0,1,1.66.67,2.24,2.24,0,0,1,.68,1.66v10.81a7,7,0,0,1-1.84,5.09,6.65,6.65,0,0,1-5,1.9,6.45,6.45,0,0,1-4.9-2,7,7,0,0,1-1.91-5v-6.17a2.36,2.36,0,0,0-.63-1.65,2.06,2.06,0,0,0-1.59-.69,1.94,1.94,0,0,0-1.55.69,2.47,2.47,0,0,0-.59,1.65v4.08q2.42.75,2.41,4.13A6.19,6.19,0,0,1,209.25,232.11ZM207.73,229c.17,0,.39-.22.67-.58a3.24,3.24,0,0,0,.29-1.28,2.76,2.76,0,0,0-1-2.12Z"/><path class="cls-4" d="M249.68,240.66A2.39,2.39,0,0,1,247,243l-12.69,0q-5.64,0-6.93-4.84a14.83,14.83,0,0,1-.33-3.48v-3.18a2.34,2.34,0,0,1,2.35-2.36l.33,0h4.13a2,2,0,0,0,1.51-.6A2.4,2.4,0,0,0,236,227v-6.61a2,2,0,0,0-.66-1.5,2.15,2.15,0,0,0-1.53-.63l-4.05,0h-.41a2.3,2.3,0,0,1-1.67-.66,2.16,2.16,0,0,1-.68-1.64,2.22,2.22,0,0,1,.68-1.65,2.34,2.34,0,0,1,1.68-.66h4.48a6.62,6.62,0,0,1,5,1.9,7.21,7.21,0,0,1,1.87,5.11v6.18c0,1.55.7,2.33,2.11,2.33a2,2,0,0,0,1.58-.69,2.38,2.38,0,0,0,.62-1.64V216a2.34,2.34,0,0,1,4-1.67,2.27,2.27,0,0,1,.67,1.66v10.81a7,7,0,0,1-1.85,5.07,7.26,7.26,0,0,1-9.39.38,6.85,6.85,0,0,1-4.61,1.54h-2.16v2.59c0,1.48.71,2.22,2.11,2.22H245v-1.7a1.92,1.92,0,0,1,.69-1.58,2.41,2.41,0,0,1,1.68-.66,2.2,2.2,0,0,1,1.59.66,2.12,2.12,0,0,1,.69,1.58Z"/><path class="cls-4" d="M244.53,211.58q0,1.95-1.86,1.95h-1.16A4.94,4.94,0,0,1,238,212.2a4.71,4.71,0,0,1,0-6.78,5,5,0,0,1,3.49-1.35h3.85a5.23,5.23,0,0,1,3.57,1.16,2.75,2.75,0,0,1,1.45,2.33c0,1.13-.63,1.74-1.9,1.82a3,3,0,0,1-2.16-1.08,2,2,0,0,0-1.25-.24h-3.36a1,1,0,0,0-.7.31.74.74,0,0,0-.29.64.78.78,0,0,0,.58.62h.46a2,2,0,0,1,.33,0l.87.08a1.38,1.38,0,0,1,1.12.6A2.17,2.17,0,0,1,244.53,211.58Z"/><path class="cls-4" d="M256.36,218.55c0,1.86-.91,2.78-2.72,2.78a2.48,2.48,0,0,1-1.95-.85,3,3,0,0,1-.77-2V217a.37.37,0,0,1,.05-.17,2.7,2.7,0,0,1,.76-1.95,2.55,2.55,0,0,1,1.91-.79c1.81,0,2.72.93,2.72,2.78Zm0,12c0,1.86-.91,2.78-2.72,2.78a2.48,2.48,0,0,1-1.95-.85,3,3,0,0,1-.77-2v-1.41a.37.37,0,0,1,.05-.17,2.7,2.7,0,0,1,.76-1.95,2.55,2.55,0,0,1,1.91-.79c1.81,0,2.72.93,2.72,2.78Zm-2.7-14c-.19,0-.29.11-.29.33v1.66c0,.22.1.33.29.33s.23-.09.25-.29v-1.74C253.89,216.66,253.8,216.56,253.66,216.56Zm0,12c-.19,0-.29.11-.29.33v1.66c0,.22.1.33.29.33s.23-.09.25-.29v-1.74C253.89,228.69,253.8,228.59,253.66,228.59Z"/><path class="cls-4" d="M278.8,226.83q0,2.34,2.1,2.34a2,2,0,0,0,1.56-.69,2.4,2.4,0,0,0,.62-1.65V216a2.25,2.25,0,0,1,.68-1.68,2.29,2.29,0,0,1,1.66-.67,2.33,2.33,0,0,1,1.67.67,2.26,2.26,0,0,1,.68,1.67v10.83a7,7,0,0,1-1.85,5.08,6.61,6.61,0,0,1-5,1.92,6.51,6.51,0,0,1-4.4-1.58,6.69,6.69,0,0,1-4.6,1.58h-4.48a2.37,2.37,0,0,1-1.68-.63,2.1,2.1,0,0,1-.69-1.61,2.19,2.19,0,0,1,.69-1.65,2.28,2.28,0,0,1,1.68-.68l.33,0h4.15a2,2,0,0,0,1.51-.61,2.42,2.42,0,0,0,.69-1.53V220.4a2,2,0,0,0-.67-1.51,2.15,2.15,0,0,0-1.53-.63l-4.07,0h-.41a2.31,2.31,0,0,1-1.68-.66,2.31,2.31,0,0,1,0-3.29,2.34,2.34,0,0,1,1.68-.66h4.5a6.59,6.59,0,0,1,5,1.91,7.18,7.18,0,0,1,1.87,5.12Z"/><path class="cls-4" d="M286.25,205.3a4.71,4.71,0,0,1,0,6.76,4.86,4.86,0,0,1-3.46,1.35h-3.53a4.84,4.84,0,0,1-3.46-1.35,4.69,4.69,0,0,1,0-6.76,4.84,4.84,0,0,1,3.46-1.35h3.53A4.86,4.86,0,0,1,286.25,205.3Zm-6.87,2.63c-.71,0-1.07.29-1.07.87s.4.67,1.2.67h3.07c.72,0,1.08-.23,1.08-.67s-.36-.87-1.08-.87Z"/><path class="cls-4" d="M297.43,228.34A2.15,2.15,0,0,0,298,227c0-.11,0-2.31,0-6.58a2,2,0,0,0-.66-1.5,2.15,2.15,0,0,0-1.53-.63l-4,0h-.42a2.32,2.32,0,0,1-1.67-.66,2.19,2.19,0,0,1-.68-1.64,2.22,2.22,0,0,1,.68-1.65,2.34,2.34,0,0,1,1.68-.66h4.49a6.63,6.63,0,0,1,5,1.92,7,7,0,0,1,1.84,5.07v6.15a6.83,6.83,0,0,1-1.78,5,6.69,6.69,0,0,1-5.06,2h-4.4a2.49,2.49,0,0,1-1.72-.65,2,2,0,0,1-.73-1.59v-2.37a3.89,3.89,0,0,1,4.46-3.4A4.81,4.81,0,0,1,297.43,228.34Zm-.33.41a2.76,2.76,0,0,0-2-1,2.1,2.1,0,0,0-.95.22,1.51,1.51,0,0,0-.67,1.15h2.33A2.12,2.12,0,0,0,297.1,228.75Z"/><path class="cls-4" d="M301.62,233.13a2,2,0,0,1,.67,1.52,2.23,2.23,0,0,1-.38,1.24l-.83,1a1.83,1.83,0,0,0-.33.87c0,.64.66.9,2,.79l1,0V215.81a2.07,2.07,0,0,1,.7-1.59,2.33,2.33,0,0,1,1.64-.65,2.16,2.16,0,0,1,1.58.67,2.08,2.08,0,0,1,.68,1.57v24.85a2.41,2.41,0,0,1-2.69,2.33l-3.12,0h-1.07c-3,0-4.86-1.43-5.44-4.27a5,5,0,0,1-.08-.88,5.62,5.62,0,0,1,2.11-4.64,3.12,3.12,0,0,1,2-.71A2.27,2.27,0,0,1,301.62,233.13Z"/><path class="cls-4" d="M316.48,233.78a6.65,6.65,0,0,1-5-1.91,7,7,0,0,1-1.87-5.08v-6.15a6.94,6.94,0,0,1,1.85-5.07,6.59,6.59,0,0,1,5-1.91H321a2.3,2.3,0,0,1,2.32,2.3,2.22,2.22,0,0,1-.66,1.64,2.28,2.28,0,0,1-1.66.66h-.46l-4.06,0a2.2,2.2,0,0,0-1.54.62,2,2,0,0,0-.66,1.5q0,6.39,0,6.55a2.36,2.36,0,0,0,.68,1.52,2.07,2.07,0,0,0,1.52.6h4.14l.38,0a2.23,2.23,0,0,1,1.66.69,2.31,2.31,0,0,1,.66,1.68,2.18,2.18,0,0,1-.68,1.61,2.27,2.27,0,0,1-1.64.67h-4.52Z"/><path class="cls-4" d="M318.18,211.58c0,1.3-.63,1.95-1.87,1.95h-1.16a5,5,0,0,1-3.51-1.33,4.71,4.71,0,0,1,0-6.78,5,5,0,0,1,3.49-1.35H319a5.22,5.22,0,0,1,3.56,1.16,2.77,2.77,0,0,1,1.46,2.33c0,1.13-.64,1.74-1.91,1.82A3,3,0,0,1,320,208.3a2,2,0,0,0-1.24-.24h-3.36a1,1,0,0,0-.71.31.74.74,0,0,0-.29.64.8.8,0,0,0,.58.62h.46a2,2,0,0,1,.33,0l.87.08a1.36,1.36,0,0,1,1.12.6A2.11,2.11,0,0,1,318.18,211.58Z"/><path class="cls-4" d="M340.58,240.91c0,1.41-.64,2.12-1.91,2.12h-2.9c-1.47,0-2.22-.82-2.24-2.46v-20a2.32,2.32,0,0,0-.63-1.64,2,2,0,0,0-1.57-.69,1.92,1.92,0,0,0-1.54.69,2.46,2.46,0,0,0-.58,1.65v3.83a4.43,4.43,0,0,1,2.48,2.17,3.31,3.31,0,0,1,.47,1.38,4,4,0,0,1,0,.62,6,6,0,0,1-1,3.17,3.51,3.51,0,0,1-2.57,2,5.16,5.16,0,0,1-2.78-.16l-.41-.21a2.24,2.24,0,0,1-1-1.91V220.6a6.91,6.91,0,0,1,1.94-5,6.51,6.51,0,0,1,4.89-2,6.62,6.62,0,0,1,5,1.92,7,7,0,0,1,1.86,5.07v18h.48C340,238.59,340.58,239.36,340.58,240.91Zm-10.33-12.44a2.43,2.43,0,0,0,.25-1,3.72,3.72,0,0,0-1.29-2.41v4.11A1.81,1.81,0,0,0,330.25,228.47Z"/><path class="cls-4" d="M346.35,233.78a6.65,6.65,0,0,1-5-1.91,7,7,0,0,1-1.87-5.08v-6.15a7,7,0,0,1,1.85-5.07,6.59,6.59,0,0,1,5-1.91h4.52a2.3,2.3,0,0,1,2.32,2.3,2.22,2.22,0,0,1-.66,1.64,2.26,2.26,0,0,1-1.66.66h-.46l-4.06,0a2.2,2.2,0,0,0-1.54.62,2,2,0,0,0-.66,1.5q0,6.39,0,6.55a2.36,2.36,0,0,0,.68,1.52,2.07,2.07,0,0,0,1.52.6h4.15l.37,0a2.21,2.21,0,0,1,1.66.69,2.31,2.31,0,0,1,.66,1.68,2.18,2.18,0,0,1-.68,1.61,2.27,2.27,0,0,1-1.64.67h-4.52Z"/><path class="cls-4" d="M348.05,211.58c0,1.3-.62,1.95-1.87,1.95H345a5,5,0,0,1-3.51-1.33,4.71,4.71,0,0,1,0-6.78,5,5,0,0,1,3.49-1.35h3.86a5.22,5.22,0,0,1,3.56,1.16,2.77,2.77,0,0,1,1.46,2.33c0,1.13-.64,1.74-1.91,1.82a3.07,3.07,0,0,1-2.16-1.08,2,2,0,0,0-1.24-.24h-3.36a1,1,0,0,0-.71.31.74.74,0,0,0-.29.64.8.8,0,0,0,.58.62h.46a2,2,0,0,1,.33,0l.87.08a1.36,1.36,0,0,1,1.12.6A2.11,2.11,0,0,1,348.05,211.58Z"/><path class="cls-1" d="M177.39,298.06a10.49,10.49,0,0,1-3,7.53,9.85,9.85,0,0,1-7.4,3.11,10.06,10.06,0,0,1-7.47-3.11,10.39,10.39,0,0,1-3-7.53v-15.9a10.39,10.39,0,0,1,3-7.53,10,10,0,0,1,7.47-3.11,9.81,9.81,0,0,1,7.4,3.11,10.49,10.49,0,0,1,3,7.53v2.35h-3.6v-2.39a7.17,7.17,0,0,0-1.93-5A6.28,6.28,0,0,0,167,275a6.55,6.55,0,0,0-4.91,2.09,6.93,6.93,0,0,0-2,5v16a7.25,7.25,0,0,0,1.38,4.3,10.62,10.62,0,0,1,3.66-5.94,10,10,0,0,1,6.57-2.35,9.24,9.24,0,0,1,5.11,1.52l.56,1Zm-3.6,0a9.3,9.3,0,0,0-2.21-.28,6.33,6.33,0,0,0-4.84,2.11,7.25,7.25,0,0,0-1.93,5.07,7.79,7.79,0,0,0,2.21.29,6.15,6.15,0,0,0,4.7-2.12A7.78,7.78,0,0,0,173.79,298.06Z"/><path class="cls-1" d="M201.3,298.06a10.49,10.49,0,0,1-3,7.53,9.83,9.83,0,0,1-7.4,3.11,10,10,0,0,1-7.46-3.11,10.35,10.35,0,0,1-3-7.53v-15.9a10.35,10.35,0,0,1,3-7.53,10,10,0,0,1,7.46-3.11,9.79,9.79,0,0,1,7.4,3.11,10.49,10.49,0,0,1,3,7.53Zm-3.59.07v-16a7.09,7.09,0,0,0-2-5,6.41,6.41,0,0,0-4.88-2.09,6.71,6.71,0,0,0-4.4,1.54,7,7,0,0,0-2.45,4,10,10,0,0,1,5.91,3.84,11,11,0,0,1,2.25,6.76,11.1,11.1,0,0,1-2,6.42,9.51,9.51,0,0,1-5.32,3.91,6.41,6.41,0,0,0,6.08,3.77,6.3,6.3,0,0,0,4.84-2.1A7.13,7.13,0,0,0,197.71,298.13Zm-9.13-7c0-3.6-1.52-5.9-4.56-6.92v13.55A6.46,6.46,0,0,0,188.58,291.15Z"/><path class="cls-1" d="M219.13,308.7h-3.59V282a6.87,6.87,0,0,0-2-4.95,6.59,6.59,0,0,0-4.91-2.07,6.39,6.39,0,0,0-4.84,2,6.81,6.81,0,0,0-1.93,4.88v.27l-3.18-.28a8.23,8.23,0,0,1,1.38-5.66,9.42,9.42,0,0,1,8.57-4.7,10,10,0,0,1,7.46,3.11,10.35,10.35,0,0,1,3,7.53Z"/><path class="cls-1" d="M243.19,298.06a10.49,10.49,0,0,1-3,7.53,9.85,9.85,0,0,1-7.4,3.11,10,10,0,0,1-7.46-3.11,10.36,10.36,0,0,1-3.05-7.53v-15.9a10.36,10.36,0,0,1,3.05-7.53,10,10,0,0,1,7.46-3.11,9.81,9.81,0,0,1,7.4,3.11,10.49,10.49,0,0,1,3,7.53v1.24h-3.6v-1.49a6.86,6.86,0,0,0-1.93-4.9,6.39,6.39,0,0,0-4.84-2,6.57,6.57,0,0,0-4.91,2.07,6.92,6.92,0,0,0-2,5v16.59a6.2,6.2,0,0,0,2,4.77,7,7,0,0,0,4.91,1.87,6.6,6.6,0,0,0,4.77-2,6.47,6.47,0,0,0,2-4.78V297h3.6Z"/><path class="cls-1" d="M243.6,260.18l-3.48,1a3.88,3.88,0,0,0-.28-1.69q-1.25-5.37-6.83-5.36a6.69,6.69,0,0,0-4.94,2,7.2,7.2,0,0,0,0,10,6.77,6.77,0,0,0,5,2.05h1.41l-1.38,3.45a10.39,10.39,0,0,1-7.54-3,10.51,10.51,0,0,1,0-14.93,10.43,10.43,0,0,1,7.54-3,10.8,10.8,0,0,1,7.32,2.77A8.63,8.63,0,0,1,243.6,260.18Z"/><path class="cls-1" d="M237.52,316.17a5,5,0,0,1-1.45,3.59,4.71,4.71,0,0,1-3.53,1.52,4.48,4.48,0,0,1-3.45-1.52,5.17,5.17,0,0,1-1.39-3.59,4.65,4.65,0,0,1,1.46-3.39,4.6,4.6,0,0,1,3.38-1.45,4.93,4.93,0,0,1,3.53,1.38A4.56,4.56,0,0,1,237.52,316.17Zm-2.9,0c0-1.2-.69-1.8-2.08-1.8s-1.93.6-1.93,1.8c0,1.38.64,2.07,1.93,2.07A1.83,1.83,0,0,0,234.62,316.17Z"/><path class="cls-1" d="M291.71,317.41a10.55,10.55,0,0,1-3.11,7.88,10.89,10.89,0,0,1-8,3H256.73a10.08,10.08,0,0,1-7.6-3.18,10.77,10.77,0,0,1-3-7.74V261.56a11.12,11.12,0,0,1,2.83-7.53,9.05,9.05,0,0,1,7.12-3.25h25a10.21,10.21,0,0,1,7.6,3.11,10.57,10.57,0,0,1,3,7.67v1.38h-3.6v-1.38a7,7,0,0,0-1.94-5,6.34,6.34,0,0,0-4.85-2.08H256.07a5.72,5.72,0,0,0-4.58,2.14,7.36,7.36,0,0,0-1.81,4.9v55.74a7,7,0,0,0,2,5.1,6.59,6.59,0,0,0,4.92,2.07h24.56a6.59,6.59,0,0,0,4.92-2.07,6.91,6.91,0,0,0,2-5V304.55h3.6Z"/><path class="cls-1" d="M291.85,282.2v26.5h-3.6V282.08a6.92,6.92,0,0,0-2.05-5,6.68,6.68,0,0,0-4.93-2.09,7.06,7.06,0,0,0-4.79,1.81,5.86,5.86,0,0,0-2.05,4.6q-.14,15.06,0,27.32h-3.87V281.49a6,6,0,0,0-2.08-4.64,7,7,0,0,0-4.83-1.88,6.57,6.57,0,0,0-4.91,2.08,7,7,0,0,0-2,5V308.7h-3.59q-.13-.82-.14-26.54a10.62,10.62,0,0,1,10.65-10.64,10.08,10.08,0,0,1,8.84,4.7,10,10,0,0,1,8.71-4.7,10.26,10.26,0,0,1,7.6,3.05A10.36,10.36,0,0,1,291.85,282.2Z"/><path class="cls-1" d="M333.73,298.06a10.21,10.21,0,0,1-3.11,7.6,10.53,10.53,0,0,1-7.67,3,10,10,0,0,1-8.71-4.7,10.09,10.09,0,0,1-8.85,4.7,10.28,10.28,0,0,1-6.91-2.49v11.28a7.1,7.1,0,0,0,1.95,5,6.35,6.35,0,0,0,4.85,2.09h17.91a6.55,6.55,0,0,0,4.93-2.1,7,7,0,0,0,2-5.05v-2.67h3.59v2.66a10.71,10.71,0,0,1-3,7.75,10.16,10.16,0,0,1-7.6,3.14H305.53a10.16,10.16,0,0,1-7.6-3.12,10.6,10.6,0,0,1-3-7.71V295.43h3.59v2.66a7.05,7.05,0,0,0,2,5.12,7.22,7.22,0,0,0,10.05,0,7,7,0,0,0,1.95-5.09v-15.9a7.31,7.31,0,0,0-1.95-5.17,6.6,6.6,0,0,0-5-2.09,6.51,6.51,0,0,0-5,2.11,7.3,7.3,0,0,0-2,5.18v2.39h-3.59V282.3a10.55,10.55,0,0,1,3-7.67,10.72,10.72,0,0,1,15.11,0,10.66,10.66,0,0,1,3,7.7v15.83a6.91,6.91,0,0,0,2,5,6.55,6.55,0,0,0,4.91,2.09,7,7,0,0,0,5.11-2,6.73,6.73,0,0,0,2.08-5.06V271.52h3.59Z"/><path class="cls-1" d="M334.15,260.18l-3.49,1a3.88,3.88,0,0,0-.28-1.69q-1.25-5.37-6.82-5.36a6.71,6.71,0,0,0-4.95,2,7.18,7.18,0,0,0,0,10,6.75,6.75,0,0,0,5,2.05H325l-1.38,3.45a10.35,10.35,0,0,1-7.53-3,10.51,10.51,0,0,1,0-14.93,10.39,10.39,0,0,1,7.53-3,10.83,10.83,0,0,1,7.33,2.77A8.63,8.63,0,0,1,334.15,260.18Z"/><path class="cls-1" d="M328.06,316.17a5,5,0,0,1-1.45,3.59,4.7,4.7,0,0,1-3.52,1.52,4.48,4.48,0,0,1-3.46-1.52,5.16,5.16,0,0,1-1.38-3.59,5,5,0,0,1,4.84-4.84,4.92,4.92,0,0,1,3.52,1.38A4.56,4.56,0,0,1,328.06,316.17Zm-2.9,0q0-1.8-2.07-1.8c-1.29,0-1.94.6-1.94,1.8,0,1.38.65,2.07,1.94,2.07A1.83,1.83,0,0,0,325.16,316.17Z"/><path class="cls-5" d="M289.61,123.59c.45-3.35,10.1-19.78,10.1-19.78l4.79,10.72s-.08.63-.22,1.64c-.2,1.47-.51,3.74-.84,6.07-.36,2.51-.74,5.07-1,6.79C301.63,133.48,289.15,126.93,289.61,123.59Z"/><path class="cls-5" d="M314.57,102.38s.27,17.05-10.65,15.72c0,0-7.4-1.36-5.89-13.1S313.49,100.21,314.57,102.38Z"/><path class="cls-1" d="M286.83,186.78c6.19-1.27,16.72-2.65,28-3.7l-34.58,15.1-.14-.61a36.89,36.89,0,0,1,.33-5.39C280.82,189.63,283.35,187.49,286.83,186.78Z"/><path class="cls-1" d="M360.24,246.09h-5.39s-6.06-46.53-7.5-45.79l-22.11-18.07,1-.07c7.65-.53,15.13-.84,21.38-.82a91.26,91.26,0,0,1,10.5.53,14.31,14.31,0,0,1,4.79,1.21C371.93,188.15,360.24,246.09,360.24,246.09Z"/><path class="cls-4" d="M360.24,246.1s11.89,5,11.89,6.52-17.32.74-17.32.74V246.1Z"/><g class="cls-6"><path class="cls-7" d="M359.69,187.33c1.77,10.26,1,20.49.22,30.8-.12,1.61,2.38,1.6,2.5,0,.8-10.55,1.5-21-.31-31.46-.28-1.59-2.69-.92-2.41.66Z"/></g><g class="cls-6"><path class="cls-7" d="M360.62,224.8a1.25,1.25,0,0,0,0-2.5,1.25,1.25,0,0,0,0,2.5Z"/></g><path class="cls-1" d="M300.18,102.39a50.5,50.5,0,0,0,14.39,0c7.68-1.16,10.8-6.19,5.78-7s-13-4.33-17.49-6-7.29-.22-7.93,1.48c-1.57,4.21,0,21.36,0,21.36S301.9,106.28,300.18,102.39Z"/><path class="cls-5" d="M302.71,105.5a2.5,2.5,0,0,1-3.22,1.52,2.54,2.54,0,0,1-1.51-3.25,2.51,2.51,0,0,1,3.22-1.53A2.56,2.56,0,0,1,302.71,105.5Z"/><path class="cls-4" d="M314.88,183.08h0l-34.58,15.1-.14-.61c-1.13-4.87-8.24-37.79.15-60.57,6.33-17.2,11.25-18.28,11.25-18.28h0L303.19,124s3.5,12.61,6.67,27.19c.52,2.37,1,4.79,1.51,7.21q.64,3.27,1.23,6.51c.31,1.79.61,3.57.88,5.3.14.94.28,1.87.41,2.78.19,1.44.37,2.84.52,4.19C314.64,179.26,314.8,181.25,314.88,183.08Z"/><path class="cls-8" d="M285.33,137.7s6.75,45.22,18.34,45.28,10.21-12.36,10.21-12.36L291.19,147Z"/><path class="cls-4" d="M301.65,127.51s7.81,47.58,46,53.76l-.69,2.95s-45.33,6.5-61.65-46.52Z"/><g class="cls-6"><path class="cls-7" d="M296.6,132.91a135.89,135.89,0,0,0,16.92,33.33c.91,1.31,3.08.06,2.16-1.26A133.79,133.79,0,0,1,299,132.25c-.53-1.51-2.95-.86-2.42.66Z"/><path class="cls-7" d="M317.3,170.11a1.25,1.25,0,0,0,0-2.5,1.25,1.25,0,0,0,0,2.5Z"/></g><path class="cls-5" d="M347.67,181.27a13.61,13.61,0,0,1,9.42-.18c5.17,1.79-10.11,3.13-10.11,3.13Z"/></g></svg>